{
.appVersion = "3151";
.formatVersion = 3;
customParameters = (
{
name = vendorID;
value = COMM;
},
{
name = panose;
value = (
2,
13,
8,
4,
3,
5,
2,
5,
2,
3
);
},
{
name = unicodeRanges;
value = (
0,
1,
2
);
},
{
name = codePageRanges;
value = (
"1252",
"1250",
"1254",
"1257",
"bit 29"
);
},
{
name = fsType;
value = (
2
);
},
{
name = glyphOrder;
value = (
.notdef,
Eth,
eth,
Lslash,
lslash,
Scaron,
scaron,
Yacute,
yacute,
Thorn,
thorn,
Zcaron,
zcaron,
onehalf,
onequarter,
onesuperior,
threequarters,
threesuperior,
twosuperior,
brokenbar,
minus,
multiply,
space,
exclam,
quotedbl,
numbersign,
dollar,
percent,
ampersand,
quotesingle,
parenleft,
parenright,
asterisk,
plus,
comma,
hyphen,
period,
slash,
zero,
one,
two,
three,
four,
five,
six,
seven,
eight,
nine,
colon,
semicolon,
less,
equal,
greater,
question,
at,
A,
B,
C,
D,
E,
F,
G,
H,
I,
J,
K,
L,
M,
N,
O,
P,
Q,
R,
S,
T,
U,
V,
W,
X,
Y,
Z,
bracketleft,
backslash,
bracketright,
asciicircum,
underscore,
grave,
a,
b,
c,
d,
e,
f,
g,
h,
i,
j,
k,
l,
m,
n,
o,
p,
q,
r,
s,
t,
u,
v,
w,
x,
y,
z,
braceleft,
bar,
braceright,
asciitilde,
Adieresis,
Aring,
Ccedilla,
Eacute,
Ntilde,
Odieresis,
Udieresis,
aacute,
agrave,
acircumflex,
adieresis,
atilde,
aring,
ccedilla,
eacute,
egrave,
ecircumflex,
edieresis,
iacute,
igrave,
icircumflex,
idieresis,
ntilde,
oacute,
ograve,
ocircumflex,
odieresis,
otilde,
uacute,
ugrave,
ucircumflex,
udieresis,
dagger,
degree,
cent,
sterling,
section,
bullet,
paragraph,
germandbls,
registered,
copyright,
trademark,
acute,
dieresis,
notequal,
AE,
Oslash,
infinity,
plusminus,
lessequal,
greaterequal,
yen,
mu,
partialdiff,
summation,
product,
pi,
integral,
ordfeminine,
ordmasculine,
Omega,
ae,
oslash,
questiondown,
exclamdown,
logicalnot,
radical,
florin,
approxequal,
Delta,
guillemotleft,
guillemotright,
ellipsis,
uni00A0,
Agrave,
Atilde,
Otilde,
OE,
oe,
endash,
emdash,
quotedblleft,
quotedblright,
quoteleft,
quoteright,
divide,
lozenge,
ydieresis,
Ydieresis,
fraction,
Euro,
guilsinglleft,
guilsinglright,

glyphs = (
{
glyphname = Eth;
kernRight = Eth;
layers = (
{
hints = (
{
horizontal = 1;
place = (0, 149);
place = (0, 149);
type = Stem;
},
{
horizontal = 1;
place = (296, 137);
place = (296, 137);
type = Stem;
},
{
horizontal = 1;
place = (567, 148);
place = (567, 148);
type = Stem;
},
{
place = (58, 177);
place = (58, 177);
type = Stem;
},
{
place = (515, 179);
place = (515, 179);
type = Stem;
}
);
layerId = m01;
shapes = (
{
closed = 1;
nodes = (
(235,149,l),
(235,296,l),
(391,296,l),
(391,433,l),
(235,433,l),
(235,567,l),
(341,567,ls),
(452,567,o),
(515,483,o),
(515,353,cs),
(515,222,o),
(455,149,o),
(339,149,cs)
);
},
{
closed = 1;
nodes = (
(58,0,l),
(352,0,ls),
(453,0,o),
(532,29,o),
(589,81,cs),
(658,143,o),
(694,238,o),
(694,353,cs),
(694,572,o),
(561,715,o),
(363,715,cs),
(58,715,l),
(58,433,l),
(3,433,l),
(3,296,l),
(58,296,l)
);
}
);
width = 714;
}
);
note = Eth;
unicode = 208;
},
{
glyphname = eth;
layers = (
{
hints = (
{
horizontal = 1;
place = (-16, 116);
place = (-16, 116);
type = Stem;
},
{
horizontal = 1;
place = (407, 109);
place = (407, 109);
type = Stem;
},
{
horizontal = 1;
place = (579, 136);
place = (579, 136);
type = Stem;
},
{
place = (16, 165);
place = (16, 165);
type = Stem;
},
{
place = (398, 162);
place = (398, 162);
type = Stem;
},
{
horizontal = 1;
place = (624, 91);
place = (624, 91);
type = Stem;
}
);
layerId = m01;
shapes = (
{
closed = 1;
nodes = (
(143,535,l),
(277,579,l),
(309,546,o),
(337,511,o),
(359,474,c),
(357,474,l),
(329,501,o),
(297,516,o),
(252,516,cs),
(109,516,o),
(16,409,o),
(16,255,cs),
(16,101,o),
(123,-16,o),
(290,-16,cs),
(486,-16,o),
(560,124,o),
(560,277,cs),
(560,433,o),
(499,547,o),
(422,627,c),
(496,651,l),
(472,704,l),
(374,672,l),
(354,688,o),
(334,702,o),
(314,715,c),
(110,715,l),
(148,688,o),
(189,658,o),
(229,624,c),
(120,588,l)
);
},
{
closed = 1;
nodes = (
(218,100,o),
(181,161,o),
(181,254,cs),
(181,347,o),
(218,407,o),
(289,407,cs),
(360,407,o),
(398,347,o),
(398,254,cs),
(398,161,o),
(360,100,o),
(289,100,cs)
);
}
);
width = 579;
}
);
note = eth;
unicode = 240;
},
{
glyphname = Lslash;
layers = (
{
hints = (
{
horizontal = 1;
place = (0, 150);
place = (0, 150);
type = Stem;
},
{
horizontal = 1;
place = (527, -20);
target = down;
type = TopGhost;
},
{
horizontal = 1;
place = (715, -20);
target = down;
type = TopGhost;
},
{
place = (57, 177);
place = (57, 177);
type = Stem;
}
);
layerId = m01;
shapes = (
{
closed = 1;
nodes = (
(57,0,l),
(555,0,l),
(555,150,l),
(234,150,l),
(234,310,l),
(425,410,l),
(425,527,l),
(234,427,l),
(234,715,l),
(57,715,l),
(57,334,l),
(-4,303,l),
(-4,186,l),
(57,217,l)
);
}
);
width = 572;
}
);
note = Lslash;
unicode = 321;
},
{
glyphname = lslash;
layers = (
{
hints = (
{
horizontal = 1;
place = (0, 21);
target = up;
type = BottomGhost;
},
{
horizontal = 1;
place = (513, -20);
target = down;
type = TopGhost;
},
{
horizontal = 1;
place = (715, -20);
target = down;
type = TopGhost;
},
{
place = (55, 165);
place = (55, 165);
type = Stem;
}
);
layerId = m01;
shapes = (
{
closed = 1;
nodes = (
(55,0,l),
(220,0,l),
(220,352,l),
(280,396,l),
(280,513,l),
(220,469,l),
(220,715,l),
(55,715,l),
(55,347,l),
(2,308,l),
(2,191,l),
(55,230,l)
);
}
);
width = 276;
}
);
note = lslash;
unicode = 322;
},
{
glyphname = Scaron;
kernLeft = Scaron;
kernRight = Scaron;
layers = (
{
hints = (
{
horizontal = 1;
place = (-17, 140);
place = (-17, 140);
type = Stem;
},
{
horizontal = 1;
place = (594, 134);
place = (594, 134);
type = Stem;
},
{
place = (37, 175);
place = (37, 175);
type = Stem;
},
{
place = (448, 179);
place = (448, 179);
type = Stem;
},
{
horizontal = 1;
place = (750, 125);
place = (750, 125);
type = Stem;
}
);
layerId = m01;
shapes = (
{
closed = 1;
nodes = (
(499,-17,o),
(627,66,o),
(627,216,cs),
(627,369,o),
(507,410,o),
(374,441,cs),
(267,465,o),
(212,477,o),
(212,527,cs),
(212,567,o),
(253,594,o),
(315,594,cs),
(381,594,o),
(423,563,o),
(430,508,c),
(603,508,l),
(596,658,o),
(476,728,o),
(321,728,cs),
(161,728,o),
(37,661,o),
(37,508,cs),
(37,358,o),
(168,320,o),
(292,291,cs),
(390,267,o),
(448,255,o),
(448,198,cs),
(448,144,o),
(391,123,o),
(333,123,cs),
(248,123,o),
(201,153,o),
(193,225,c),
(15,225,l),
(19,67,o),
(144,-17,o),
(334,-17,cs)
);
},
{
closed = 1;
nodes = (
(244,750,l),
(401,750,l),
(507,875,l),
(367,875,l),
(322,821,l),
(320,821,l),
(275,875,l),
(138,875,l)
);
}
);
width = 650;
}
);
note = Scaron;
unicode = 352;
},
{
glyphname = scaron;
kernLeft = scaron;
kernRight = scaron;
layers = (
{
hints = (
{
horizontal = 1;
place = (-16, 106);
place = (-16, 106);
type = Stem;
},
{
horizontal = 1;
place = (423, 104);
place = (423, 104);
type = Stem;
},
{
horizontal = 1;
place = (571, 138);
place = (571, 138);
type = Stem;
},
{
place = (22, 149);
place = (22, 149);
type = Stem;
},
{
place = (336, 154);
place = (336, 154);
type = Stem;
},
{
horizontal = 1;
place = (363, 164);
place = (363, 164);
type = Stem;
}
);
layerId = m01;
shapes = (
{
closed = 1;
nodes = (
(172,571,l),
(329,571,l),
(435,709,l),
(295,709,l),
(250,643,l),
(248,643,l),
(203,709,l),
(66,709,l)
);
},
{
closed = 1;
nodes = (
(391,-16,o),
(490,42,o),
(490,154,cs),
(490,285,o),
(384,308,o),
(294,323,cs),
(229,335,o),
(171,340,o),
(171,376,cs),
(171,408,o),
(202,423,o),
(242,423,cs),
(287,423,o),
(318,409,o),
(324,363,c),
(474,363,l),
(466,464,o),
(388,527,o),
(243,527,cs),
(122,527,o),
(22,471,o),
(22,363,cs),
(22,243,o),
(117,219,o),
(206,204,cs),
(274,192,o),
(336,187,o),
(336,141,cs),
(336,108,o),
(305,90,o),
(256,90,cs),
(202,90,o),
(168,115,o),
(162,166,c),
(8,166,l),
(13,53,o),
(107,-16,o),
(257,-16,cs)
);
}
);
width = 504;
}
);
note = scaron;
unicode = 353;
},
{
glyphname = Yacute;
kernLeft = Yacute;
kernRight = Yacute;
layers = (
{
hints = (
{
horizontal = 1;
place = (0, 21);
target = up;
type = BottomGhost;
},
{
horizontal = 1;
place = (715, -20);
target = down;
type = TopGhost;
},
{
horizontal = 1;
place = (750, 130);
place = (750, 130);
type = Stem;
},
{
place = (243, 177);
place = (243, 177);
type = Stem;
}
);
layerId = m01;
shapes = (
{
closed = 1;
nodes = (
(243,0,l),
(420,0,l),
(420,264,l),
(662,715,l),
(475,715,l),
(384,530,ls),
(360,481,o),
(335,421,o),
(335,421,c),
(333,421,l),
(333,421,o),
(310,481,o),
(286,530,cs),
(194,715,l),
(1,715,l),
(243,264,l)
);
},
{
closed = 1;
nodes = (
(267,750,l),
(391,750,l),
(497,880,l),
(310,880,l)
);
}
);
width = 663;
}
);
note = Yacute;
unicode = 221;
},
{
glyphname = yacute;
kernLeft = yacute;
kernRight = yacute;
layers = (
{
hints = (
{
horizontal = 1;
place = (-169, 127);
place = (-169, 127);
type = Stem;
},
{
horizontal = 1;
place = (512, -20);
target = down;
type = TopGhost;
},
{
horizontal = 1;
place = (572, 148);
place = (572, 148);
type = Stem;
},
{
place = (-3, 535);
place = (-3, 535);
type = Stem;
}
);
layerId = m01;
shapes = (
{
closed = 1;
nodes = (
(56,-169,l),
(162,-169,ls),
(265,-169,o),
(314,-127,o),
(355,-7,cs),
(532,512,l),
(369,512,l),
(302,294,ls),
(286,244,o),
(272,176,o),
(272,176,c),
(270,176,l),
(270,176,o),
(254,244,o),
(238,294,cs),
(169,512,l),
(-3,512,l),
(148,118,ls),
(169,64,o),
(179,34,o),
(179,12,cs),
(179,-23,o),
(160,-42,o),
(112,-42,cs),
(56,-42,l)
);
},
{
closed = 1;
nodes = (
(201,572,l),
(325,572,l),
(446,720,l),
(258,720,l)
);
}
);
width = 529;
}
);
note = yacute;
unicode = 253;
},
{
glyphname = Thorn;
layers = (
{
hints = (
{
horizontal = 1;
place = (0, 21);
target = up;
type = BottomGhost;
},
{
horizontal = 1;
place = (139, 140);
place = (139, 140);
type = Stem;
},
{
horizontal = 1;
place = (466, 150);
place = (466, 150);
type = Stem;
},
{
horizontal = 1;
place = (715, -20);
target = down;
type = TopGhost;
},
{
place = (49, 180);
place = (49, 180);
type = Stem;
},
{
place = (460, 178);
place = (460, 178);
type = Stem;
}
);
layerId = m01;
shapes = (
{
closed = 1;
nodes = (
(49,0,l),
(229,0,l),
(229,139,l),
(396,139,ls),
(543,139,o),
(638,237,o),
(638,373,cs),
(638,446,o),
(612,506,o),
(566,549,cs),
(522,592,o),
(458,615,o),
(371,616,cs),
(229,616,l),
(229,715,l),
(49,715,l)
);
},
{
closed = 1;
nodes = (
(229,279,l),
(229,466,l),
(360,466,ls),
(423,466,o),
(460,432,o),
(460,374,cs),
(460,317,o),
(424,279,o),
(360,279,cs)
);
}
);
width = 650;
}
);
note = Thorn;
unicode = 222;
},
{
glyphname = thorn;
kernRight = thorn;
layers = (
{
hints = (
{
horizontal = 1;
place = (-169, 21);
target = up;
type = BottomGhost;
},
{
horizontal = 1;
place = (-16, 126);
place = (-16, 126);
type = Stem;
},
{
horizontal = 1;
place = (400, 127);
place = (400, 127);
type = Stem;
},
{
horizontal = 1;
place = (716, -20);
target = down;
type = TopGhost;
},
{
place = (39, 163);
place = (39, 163);
type = Stem;
},
{
place = (407, 165);
place = (407, 165);
type = Stem;
}
);
layerId = m01;
shapes = (
{
closed = 1;
nodes = (
(39,-169,l),
(202,-169,l),
(202,53,l),
(204,53,l),
(236,9,o),
(283,-16,o),
(349,-16,cs),
(483,-16,o),
(572,90,o),
(572,256,cs),
(572,410,o),
(489,527,o),
(353,527,cs),
(283,527,o),
(237,498,o),
(205,454,c),
(202,454,l),
(202,716,l),
(39,716,l)
);
},
{
closed = 1;
nodes = (
(237,110,o),
(197,168,o),
(197,252,cs),
(197,335,o),
(233,400,o),
(304,400,cs),
(374,400,o),
(407,340,o),
(407,252,cs),
(407,163,o),
(369,110,o),
(307,110,cs)
);
}
);
width = 588;
}
);
note = thorn;
unicode = 254;
},
{
glyphname = Zcaron;
kernLeft = Zcaron;
kernRight = Zcaron;
layers = (
{
hints = (
{
horizontal = 1;
place = (0, 151);
place = (0, 151);
type = Stem;
},
{
horizontal = 1;
place = (565, 150);
place = (565, 150);
type = Stem;
},
{
horizontal = 1;
place = (750, 125);
place = (750, 125);
type = Stem;
},
{
place = (26, 595);
place = (26, 595);
type = Stem;
}
);
layerId = m01;
shapes = (
{
closed = 1;
nodes = (
(254,750,l),
(411,750,l),
(517,875,l),
(377,875,l),
(332,821,l),
(330,821,l),
(285,875,l),
(148,875,l)
);
},
{
closed = 1;
nodes = (
(26,0,l),
(621,0,l),
(621,151,l),
(329,151,ls),
(307,151,o),
(250,149,o),
(250,149,c),
(250,152,l),
(250,152,o),
(291,197,o),
(308,216,cs),
(608,576,l),
(608,715,l),
(51,715,l),
(51,565,l),
(315,565,ls),
(331,565,o),
(383,567,o),
(383,567,c),
(383,564,l),
(383,564,o),
(347,525,o),
(335,511,cs),
(26,141,l)
);
}
);
width = 648;
}
);
note = Zcaron;
unicode = 381;
},
{
glyphname = zcaron;
kernLeft = zcaron;
kernRight = zcaron;
layers = (
{
hints = (
{
horizontal = 1;
place = (0, 126);
place = (0, 126);
type = Stem;
},
{
horizontal = 1;
place = (387, 125);
place = (387, 125);
type = Stem;
},
{
horizontal = 1;
place = (571, 138);
place = (571, 138);
type = Stem;
},
{
place = (24, 459);
place = (24, 459);
type = Stem;
}
);
layerId = m01;
shapes = (
{
closed = 1;
nodes = (
(191,571,l),
(348,571,l),
(454,709,l),
(314,709,l),
(269,643,l),
(267,643,l),
(222,709,l),
(85,709,l)
);
},
{
closed = 1;
nodes = (
(24,0,l),
(483,0,l),
(483,126,l),
(298,126,ls),
(275,126,o),
(222,125,o),
(222,125,c),
(222,128,l),
(222,128,o),
(259,166,o),
(274,181,cs),
(468,392,l),
(468,512,l),
(48,512,l),
(48,387,l),
(208,387,ls),
(224,387,o),
(271,388,o),
(271,388,c),
(271,385,l),
(271,385,o),
(240,353,o),
(227,340,cs),
(24,121,l)
);
}
);
width = 505;
}
);
note = zcaron;
unicode = 382;
},
{
glyphname = onehalf;
layers = (
{
hints = (
{
horizontal = 1;
place = (0, 91);
place = (0, 91);
type = Stem;
},
{
horizontal = 1;
place = (315, 90);
place = (315, 90);
type = Stem;
},
{
horizontal = 1;
place = (552, 167);
place = (552, 167);
type = Stem;
},
{
place = (114, 121);
place = (114, 121);
type = Stem;
},
{
place = (485, 110);
place = (485, 110);
type = Stem;
},
{
place = (699, 115);
place = (699, 115);
type = Stem;
},
{
horizontal = 1;
place = (552, 81);
place = (552, 81);
type = Stem;
},
{
horizontal = 1;
place = (715, -20);
target = down;
type = TopGhost;
}
);
layerId = m01;
shapes = (
{
closed = 1;
nodes = (
(815,0,l),
(815,91,l),
(641,91,l),
(641,92,l),
(666,118,o),
(719,137,o),
(760,171,cs),
(792,197,o),
(814,227,o),
(814,279,cs),
(814,347,o),
(758,405,o),
(656,405,cs),
(555,405,o),
(485,350,o),
(485,246,c),
(595,246,l),
(595,290,o),
(618,315,o),
(653,315,cs),
(685,315,o),
(699,298,o),
(699,273,cs),
(699,251,o),
(687,237,o),
(666,222,cs),
(633,198,o),
(591,179,o),
(553,146,cs),
(510,112,o),
(480,68,o),
(479,0,c)
);
},
{
closed = 1;
nodes = (
(114,318,l),
(235,318,l),
(235,719,l),
(139,719,l),
(128,664,o),
(85,636,o),
(23,633,c),
(23,552,l),
(114,552,l)
);
},
{
closed = 1;
nodes = (
(70,0,l),
(171,0,l),
(716,715,l),
(614,715,l)
);
}
);
width = 851;
}
);
note = onehalf;
unicode = 189;
},
{
glyphname = onequarter;
layers = (
{
hints = (
{
horizontal = 1;
place = (0, 166);
place = (0, 166);
type = Stem;
},
{
horizontal = 1;
place = (552, 167);
place = (552, 167);
type = Stem;
},
{
place = (114, 121);
place = (114, 121);
type = Stem;
},
{
place = (615, 117);
place = (615, 117);
type = Stem;
},
{
horizontal = 1;
place = (83, 83);
place = (83, 83);
type = Stem;
},
{
place = (424, 87);
place = (424, 87);
type = Stem;
},
{
horizontal = 1;
place = (552, 81);
place = (552, 81);
type = Stem;
},
{
horizontal = 1;
place = (715, -20);
target = down;
type = TopGhost;
}
);
layerId = m01;
shapes = (
{
closed = 1;
nodes = (
(615,402,l),
(424,178,l),
(424,83,l),
(615,83,l),
(615,0,l),
(732,0,l),
(732,83,l),
(790,83,l),
(790,166,l),
(732,166,l),
(732,402,l)
);
},
{
closed = 1;
nodes = (
(615,288,l),
(615,166,l),
(511,166,l),
(511,167,l),
(614,288,l)
);
},
{
closed = 1;
nodes = (
(114,318,l),
(235,318,l),
(235,719,l),
(139,719,l),
(128,664,o),
(85,636,o),
(23,633,c),
(23,552,l),
(114,552,l)
);
},
{
closed = 1;
nodes = (
(76,0,l),
(177,0,l),
(722,715,l),
(620,715,l)
);
}
);
width = 816;
}
);
note = onequarter;
unicode = 188;
},
{
glyphname = onesuperior;
layers = (
{
hints = (
{
horizontal = 1;
place = (522, 167);
place = (522, 167);
type = Stem;
},
{
place = (116, 121);
place = (116, 121);
type = Stem;
},
{
horizontal = 1;
place = (522, 81);
place = (522, 81);
type = Stem;
}
);
layerId = m01;
shapes = (
{
closed = 1;
nodes = (
(116,288,l),
(237,288,l),
(237,689,l),
(141,689,l),
(130,634,o),
(87,606,o),
(25,603,c),
(25,522,l),
(116,522,l)
);
}
);
width = 279;
}
);
note = onesuperior;
unicode = 185;
},
{
glyphname = threequarters;
layers = (
{
hints = (
{
horizontal = 1;
place = (0, 166);
place = (0, 166);
type = Stem;
},
{
horizontal = 1;
place = (309, 84);
place = (309, 84);
type = Stem;
},
{
horizontal = 1;
place = (485, 76);
place = (485, 76);
type = Stem;
},
{
horizontal = 1;
place = (641, 82);
place = (641, 82);
type = Stem;
},
{
place = (253, 119);
place = (253, 119);
type = Stem;
},
{
place = (683, 117);
place = (683, 117);
type = Stem;
},
{
place = (245, 115);
place = (245, 115);
type = Stem;
},
{
horizontal = 1;
place = (591, 132);
place = (591, 132);
type = Stem;
},
{
horizontal = 1;
place = (83, 83);
place = (83, 83);
type = Stem;
},
{
place = (492, 87);
place = (492, 87);
type = Stem;
},
{
horizontal = 1;
place = (715, -20);
target = down;
type = TopGhost;
}
);
layerId = m01;
shapes = (
{
closed = 1;
nodes = (
(297,309,o),
(372,347,o),
(372,434,cs),
(372,486,o),
(342,516,o),
(302,531,c),
(302,532,l),
(335,547,o),
(360,571,o),
(360,609,cs),
(360,681,o),
(296,723,o),
(204,723,cs),
(99,723,o),
(39,666,o),
(36,591,c),
(146,591,l),
(148,618,o),
(162,641,o),
(199,641,cs),
(229,641,o),
(245,625,o),
(245,602,cs),
(245,574,o),
(224,561,o),
(187,561,cs),
(167,561,l),
(167,485,l),
(190,485,ls),
(230,485,o),
(253,472,o),
(253,439,cs),
(253,412,o),
(235,393,o),
(199,393,cs),
(155,393,o),
(139,418,o),
(137,453,c),
(24,453,l),
(25,368,o),
(83,309,o),
(204,309,cs)
);
},
{
closed = 1;
nodes = (
(683,402,l),
(492,178,l),
(492,83,l),
(683,83,l),
(683,0,l),
(800,0,l),
(800,83,l),
(858,83,l),
(858,166,l),
(800,166,l),
(800,402,l)
);
},
{
closed = 1;
nodes = (
(683,288,l),
(683,166,l),
(579,166,l),
(579,167,l),
(682,288,l)
);
},
{
closed = 1;
nodes = (
(153,0,l),
(254,0,l),
(799,715,l),
(697,715,l)
);
}
);
width = 883;
}
);
note = threequarters;
unicode = 190;
},
{
glyphname = threesuperior;
layers = (
{
hints = (
{
horizontal = 1;
place = (279, 84);
place = (279, 84);
type = Stem;
},
{
horizontal = 1;
place = (455, 76);
place = (455, 76);
type = Stem;
},
{
horizontal = 1;
place = (611, 82);
place = (611, 82);
type = Stem;
},
{
place = (251, 121);
place = (251, 121);
type = Stem;
},
{
place = (243, 117);
place = (243, 117);
type = Stem;
},
{
horizontal = 1;
place = (561, 132);
place = (561, 132);
type = Stem;
}
);
layerId = m01;
shapes = (
{
closed = 1;
nodes = (
(296,279,o),
(372,317,o),
(372,404,cs),
(372,456,o),
(342,486,o),
(302,501,c),
(302,502,l),
(335,517,o),
(360,541,o),
(360,579,cs),
(360,651,o),
(294,693,o),
(202,693,cs),
(97,693,o),
(38,636,o),
(35,561,c),
(145,561,l),
(147,588,o),
(160,611,o),
(198,611,cs),
(228,611,o),
(243,595,o),
(243,572,cs),
(243,544,o),
(222,531,o),
(185,531,cs),
(165,531,l),
(165,455,l),
(189,455,ls),
(228,455,o),
(251,442,o),
(251,410,cs),
(251,382,o),
(234,363,o),
(198,363,cs),
(153,363,o),
(138,388,o),
(136,423,c),
(23,423,l),
(24,338,o),
(84,279,o),
(204,279,cs)
);
}
);
width = 402;
}
);
note = threesuperior;
unicode = 179;
},
{
glyphname = twosuperior;
layers = (
{
hints = (
{
horizontal = 1;
place = (288, 91);
place = (288, 91);
type = Stem;
},
{
horizontal = 1;
place = (603, 90);
place = (603, 90);
type = Stem;
},
{
place = (33, 110);
place = (33, 110);
type = Stem;
},
{
place = (245, 117);
place = (245, 117);
type = Stem;
},
{
horizontal = 1;
place = (534, 159);
place = (534, 159);
type = Stem;
}
);
layerId = m01;
shapes = (
{
closed = 1;
nodes = (
(363,288,l),
(363,379,l),
(191,379,l),
(191,380,l),
(215,406,o),
(268,424,o),
(309,458,cs),
(342,483,o),
(362,513,o),
(362,565,cs),
(362,634,o),
(306,693,o),
(204,693,cs),
(103,693,o),
(33,638,o),
(33,534,c),
(143,534,l),
(143,578,o),
(165,603,o),
(200,603,cs),
(232,603,o),
(245,586,o),
(245,561,cs),
(245,541,o),
(235,528,o),
(218,514,cs),
(185,489,o),
(143,469,o),
(101,434,cs),
(58,400,o),
(28,356,o),
(27,288,c)
);
}
);
width = 398;
}
);
note = twosuperior;
unicode = 178;
},
{
glyphname = brokenbar;
layers = (
{
hints = (
{
horizontal = 1;
place = (-138, 892);
place = (-138, 892);
type = Stem;
},
{
place = (58, 99);
place = (58, 99);
type = Stem;
}
);
layerId = m01;
shapes = (
{
closed = 1;
nodes = (
(58,-138,l),
(157,-138,l),
(157,245,l),
(58,245,l)
);
},
{
closed = 1;
nodes = (
(58,384,l),
(157,384,l),
(157,754,l),
(58,754,l)
);
}
);
width = 214;
}
);
note = brokenbar;
unicode = 166;
},
{
glyphname = minus;
kernLeft = minus;
kernRight = minus;
layers = (
{
hints = (
{
horizontal = 1;
place = (264, 131);
place = (264, 131);
type = Stem;
},
{
place = (40, 486);
place = (40, 486);
type = Stem;
}
);
layerId = m01;
shapes = (
{
closed = 1;
nodes = (
(40,264,l),
(526,264,l),
(526,395,l),
(40,395,l)
);
}
);
width = 566;
}
);
note = minus;
unicode = 8722;
},
{
glyphname = multiply;
layers = (
{
hints = (
{
horizontal = 1;
place = (82, 487);
place = (82, 487);
type = Stem;
},
{
place = (39, 482);
place = (39, 482);
type = Stem;
}
);
layerId = m01;
shapes = (
{
closed = 1;
nodes = (
(132,82,l),
(281,235,l),
(429,83,l),
(521,172,l),
(370,326,l),
(521,481,l),
(429,569,l),
(280,418,l),
(133,569,l),
(40,481,l),
(191,326,l),
(39,171,l)
);
}
);
width = 566;
}
);
note = multiply;
unicode = 215;
},
{
glyphname = exclam;
layers = (
{
hints = (
{
horizontal = 1;
place = (0, 168);
place = (0, 168);
type = Stem;
},
{
horizontal = 1;
place = (715, -20);
target = down;
type = TopGhost;
},
{
place = (47, 170);
place = (47, 170);
type = Stem;
}
);
layerId = m01;
shapes = (
{
closed = 1;
nodes = (
(90,234,l),
(174,234,l),
(216,546,l),
(216,715,l),
(48,715,l),
(48,546,l)
);
},
{
closed = 1;
nodes = (
(47,0,l),
(217,0,l),
(217,168,l),
(47,168,l)
);
}
);
width = 264;
}
);
note = exclam;
unicode = 33;
},
{
glyphname = quotedbl;
kernLeft = quotedbl;
kernRight = quotedbl;
layers = (
{
hints = (
{
horizontal = 1;
place = (446, 269);
place = (446, 269);
type = Stem;
},
{
place = (41, 141);
place = (41, 141);
type = Stem;
},
{
place = (243, 141);
place = (243, 141);
type = Stem;
}
);
layerId = m01;
shapes = (
{
closed = 1;
nodes = (
(41,446,l),
(182,446,l),
(182,715,l),
(41,715,l)
);
},
{
closed = 1;
nodes = (
(243,446,l),
(384,446,l),
(384,715,l),
(243,715,l)
);
}
);
width = 425;
}
);
note = quotedbl;
unicode = 34;
},
{
glyphname = numbersign;
layers = (
{
hints = (
{
horizontal = 1;
place = (0, 21);
target = up;
type = BottomGhost;
},
{
horizontal = 1;
place = (173, 126);
place = (173, 126);
type = Stem;
},
{
horizontal = 1;
place = (399, 126);
place = (399, 126);
type = Stem;
},
{
horizontal = 1;
place = (686, -20);
target = down;
type = TopGhost;
},
{
place = (24, 556);
place = (24, 556);
type = Stem;
}
);
layerId = m01;
shapes = (
{
closed = 1;
nodes = (
(89,0,l),
(193,0,l),
(221,173,l),
(324,173,l),
(296,0,l),
(400,0,l),
(428,173,l),
(520,173,l),
(541,299,l),
(449,299,l),
(465,399,l),
(558,399,l),
(580,525,l),
(486,525,l),
(513,686,l),
(409,686,l),
(382,525,l),
(279,525,l),
(306,686,l),
(202,686,l),
(175,525,l),
(83,525,l),
(61,399,l),
(154,399,l),
(138,299,l),
(46,299,l),
(24,173,l),
(117,173,l)
);
},
{
closed = 1;
nodes = (
(242,299,l),
(258,399,l),
(361,399,l),
(345,299,l)
);
}
);
width = 600;
}
);
note = numbersign;
unicode = 35;
},
{
glyphname = dollar;
layers = (
{
hints = (
{
horizontal = 1;
place = (-14, 21);
target = up;
type = BottomGhost;
},
{
horizontal = 1;
place = (699, -20);
target = down;
type = TopGhost;
},
{
place = (281, 61);
place = (281, 61);
type = Stem;
},
{
place = (426, 167);
place = (426, 167);
type = Stem;
},
{
horizontal = 1;
place = (-13, 21);
target = up;
type = BottomGhost;
},
{
horizontal = 1;
place = (698, -20);
target = down;
type = TopGhost;
},
{
place = (421, 157);
place = (421, 157);
type = Stem;
},
{
place = (35, 164);
place = (35, 164);
type = Stem;
},
{
place = (16, 166);
place = (16, 166);
type = Stem;
},
{
horizontal = 1;
place = (571, 128);
place = (571, 128);
type = Stem;
}
);
layerId = m01;
shapes = (
{
closed = 1;
nodes = (
(281,-103,l),
(342,-103,l),
(342,-14,l),
(485,-7,o),
(593,68,o),
(593,203,cs),
(593,340,o),
(494,388,o),
(342,423,c),
(342,569,l),
(387,560,o),
(414,534,o),
(421,485,c),
(578,485,l),
(571,618,o),
(482,688,o),
(342,698,c),
(342,760,l),
(281,760,l),
(281,699,l),
(141,693,o),
(35,626,o),
(35,497,cs),
(35,348,o),
(145,316,o),
(281,281,c),
(281,119,l),
(221,128,o),
(189,160,o),
(182,221,c),
(16,221,l),
(19,79,o),
(116,-3,o),
(281,-13,c)
);
},
{
closed = 1;
nodes = (
(281,439,l),
(224,455,o),
(199,470,o),
(199,507,cs),
(199,541,o),
(228,566,o),
(281,571,c)
);
},
{
closed = 1;
nodes = (
(342,263,l),
(397,247,o),
(426,231,o),
(426,190,cs),
(426,147,o),
(388,125,o),
(342,119,c)
);
}
);
width = 623;
}
);
note = dollar;
unicode = 36;
},
{
glyphname = percent;
kernLeft = percent;
layers = (
{
hints = (
{
horizontal = 1;
place = (-17, 87);
place = (-17, 87);
type = Stem;
},
{
horizontal = 1;
place = (299, 85);
place = (299, 85);
type = Stem;
},
{
horizontal = 1;
place = (615, 85);
place = (615, 85);
type = Stem;
},
{
place = (20, 123);
place = (20, 123);
type = Stem;
},
{
place = (263, 123);
place = (263, 123);
type = Stem;
},
{
place = (482, 124);
place = (482, 124);
type = Stem;
},
{
place = (726, 123);
place = (726, 123);
type = Stem;
},
{
horizontal = 1;
place = (0, 21);
target = up;
type = BottomGhost;
},
{
horizontal = 1;
place = (686, -20);
target = down;
type = TopGhost;
}
);
layerId = m01;
shapes = (
{
closed = 1;
nodes = (
(161,386,o),
(143,433,o),
(143,499,cs),
(143,566,o),
(161,615,o),
(203,615,cs),
(245,615,o),
(263,566,o),
(263,499,cs),
(263,432,o),
(245,386,o),
(203,386,cs)
);
},
{
closed = 1;
nodes = (
(309,299,o),
(386,378,o),
(386,499,cs),
(386,621,o),
(311,700,o),
(203,700,cs),
(97,700,o),
(20,621,o),
(20,499,cs),
(20,378,o),
(98,299,o),
(203,299,cs)
);
},
{
closed = 1;
nodes = (
(203,0,l),
(296,0,l),
(666,686,l),
(572,686,l)
);
},
{
closed = 1;
nodes = (
(623,70,o),
(606,117,o),
(606,184,cs),
(606,251,o),
(623,299,o),
(666,299,cs),
(707,299,o),
(726,250,o),
(726,184,cs),
(726,117,o),
(708,70,o),
(666,70,cs)
);
},
{
closed = 1;
nodes = (
(772,-17,o),
(849,62,o),
(849,184,cs),
(849,306,o),
(774,384,o),
(665,384,cs),
(560,384,o),
(482,305,o),
(482,184,cs),
(482,62,o),
(560,-17,o),
(665,-17,cs)
);
}
);
width = 868;
}
);
note = percent;
unicode = 37;
},
{
glyphname = ampersand;
kernLeft = ampersand;
kernRight = ampersand;
layers = (
{
hints = (
{
horizontal = 1;
place = (-12, 131);
place = (-12, 131);
type = Stem;
},
{
horizontal = 1;
place = (601, 118);
place = (601, 118);
type = Stem;
},
{
place = (22, 169);
place = (22, 169);
type = Stem;
},
{
place = (383, 145);
place = (383, 145);
type = Stem;
},
{
horizontal = 1;
place = (0, 21);
target = up;
type = BottomGhost;
},
{
horizontal = 1;
place = (0, 154);
place = (0, 154);
type = Stem;
},
{
place = (125, 151);
place = (125, 151);
type = Stem;
}
);
layerId = m01;
shapes = (
{
closed = 1;
nodes = (
(344,-12,o),
(407,10,o),
(461,45,c),
(496,0,l),
(695,0,l),
(572,154,l),
(616,217,o),
(643,289,o),
(650,358,c),
(509,358,l),
(504,328,o),
(494,296,o),
(482,268,c),
(396,376,l),
(469,411,o),
(528,458,o),
(528,547,cs),
(528,653,o),
(443,719,o),
(326,719,cs),
(202,719,o),
(125,644,o),
(125,545,cs),
(125,490,o),
(146,448,o),
(180,407,c),
(92,366,o),
(22,307,o),
(22,198,cs),
(22,79,o),
(110,-12,o),
(276,-12,cs)
);
},
{
closed = 1;
nodes = (
(230,119,o),
(191,152,o),
(191,202,cs),
(191,243,o),
(209,277,o),
(259,307,c),
(380,150,l),
(351,130,o),
(318,119,o),
(283,119,cs)
);
},
{
closed = 1;
nodes = (
(298,485,o),
(276,514,o),
(276,546,cs),
(276,578,o),
(297,601,o),
(330,601,cs),
(361,601,o),
(383,577,o),
(383,546,cs),
(383,513,o),
(367,484,o),
(326,460,c)
);
}
);
width = 697;
}
);
note = ampersand;
unicode = 38;
},
{
glyphname = quotesingle;
kernLeft = quotedbl;
kernRight = quotedbl;
layers = (
{
hints = (
{
horizontal = 1;
place = (446, 269);
place = (446, 269);
type = Stem;
},
{
place = (41, 141);
place = (41, 141);
type = Stem;
}
);
layerId = m01;
shapes = (
{
closed = 1;
nodes = (
(41,446,l),
(182,446,l),
(182,715,l),
(41,715,l)
);
}
);
width = 223;
}
);
note = quotesingle;
unicode = 39;
},
{
glyphname = parenleft;
kernRight = parenleft;
layers = (
{
hints = (
{
horizontal = 1;
place = (-138, 892);
place = (-138, 892);
type = Stem;
},
{
place = (57, 161);
place = (57, 161);
type = Stem;
}
);
layerId = m01;
shapes = (
{
closed = 1;
nodes = (
(324,-138,l),
(270,-28,o),
(218,114,o),
(218,295,cs),
(218,492,o),
(264,638,o),
(324,754,c),
(186,754,l),
(116,650,o),
(57,486,o),
(57,295,cs),
(57,115,o),
(118,-33,o),
(187,-138,c)
);
}
);
width = 341;
}
);
note = parenleft;
unicode = 40;
},
{
glyphname = parenright;
kernLeft = parenright;
layers = (
{
hints = (
{
horizontal = 1;
place = (-138, 892);
place = (-138, 892);
type = Stem;
},
{
place = (123, 161);
place = (123, 161);
type = Stem;
}
);
layerId = m01;
shapes = (
{
closed = 1;
nodes = (
(154,-138,l),
(225,-31,o),
(284,131,o),
(284,318,cs),
(284,502,o),
(222,653,o),
(155,754,c),
(17,754,l),
(73,646,o),
(123,506,o),
(123,318,cs),
(123,128,o),
(75,-19,o),
(17,-138,c)
);
}
);
width = 341;
}
);
note = parenright;
unicode = 41;
},
{
glyphname = asterisk;
kernLeft = asterisk;
kernRight = asterisk;
layers = (
{
hints = (
{
horizontal = 1;
place = (715, -20);
target = down;
type = TopGhost;
},
{
place = (174, 94);
place = (174, 94);
type = Stem;
}
);
layerId = m01;
shapes = (
{
closed = 1;
nodes = (
(148,353,l),
(222,457,l),
(296,353,l),
(368,407,l),
(294,505,l),
(411,544,l),
(379,627,l),
(268,588,l),
(268,715,l),
(174,715,l),
(174,588,l),
(63,627,l),
(31,544,l),
(148,505,l),
(74,407,l)
);
}
);
width = 441;
}
);
note = asterisk;
unicode = 42;
},
{
glyphname = plus;
kernLeft = minus;
kernRight = minus;
layers = (
{
hints = (
{
horizontal = 1;
place = (264, 131);
place = (264, 131);
type = Stem;
},
{
place = (213, 140);
place = (213, 140);
type = Stem;
}
);
layerId = m01;
shapes = (
{
closed = 1;
nodes = (
(213,79,l),
(353,79,l),
(353,264,l),
(526,264,l),
(526,395,l),
(353,395,l),
(353,579,l),
(213,579,l),
(213,395,l),
(40,395,l),
(40,264,l),
(213,264,l)
);
}
);
width = 566;
}
);
note = plus;
unicode = 43;
},
{
glyphname = comma;
kernLeft = comma;
kernRight = comma;
layers = (
{
hints = (
{
horizontal = 1;
place = (0, 168);
place = (0, 168);
type = Stem;
},
{
place = (32, 171);
place = (32, 171);
type = Stem;
}
);
layerId = m01;
shapes = (
{
closed = 1;
nodes = (
(34,-179,l),
(81,-176,o),
(125,-157,o),
(156,-124,cs),
(186,-92,o),
(203,-50,o),
(203,13,cs),
(203,168,l),
(32,168,l),
(32,0,l),
(112,0,l),
(112,-57,o),
(82,-97,o),
(34,-110,c)
);
}
);
width = 235;
}
);
note = comma;
unicode = 44;
},
{
glyphname = hyphen;
kernLeft = hyphen;
kernRight = hyphen;
layers = (
{
hints = (
{
horizontal = 1;
place = (181, 140);
place = (181, 140);
type = Stem;
},
{
place = (32, 272);
place = (32, 272);
type = Stem;
}
);
layerId = m01;
shapes = (
{
closed = 1;
nodes = (
(32,181,l),
(304,181,l),
(304,321,l),
(32,321,l)
);
}
);
width = 335;
}
);
note = hyphen;
unicode = 45;
},
{
glyphname = period;
kernLeft = comma;
kernRight = comma;
layers = (
{
hints = (
{
horizontal = 1;
place = (0, 168);
place = (0, 168);
type = Stem;
},
{
place = (32, 171);
place = (32, 171);
type = Stem;
}
);
layerId = m01;
shapes = (
{
closed = 1;
nodes = (
(32,0,l),
(203,0,l),
(203,168,l),
(32,168,l)
);
}
);
width = 235;
}
);
note = period;
unicode = 46;
},
{
glyphname = slash;
kernLeft = slash;
kernRight = slash;
layers = (
{
hints = (
{
horizontal = 1;
place = (0, 21);
target = up;
type = BottomGhost;
},
{
horizontal = 1;
place = (715, -20);
target = down;
type = TopGhost;
},
{
place = (12, 407);
place = (12, 407);
type = Stem;
}
);
layerId = m01;
shapes = (
{
closed = 1;
nodes = (
(12,0,l),
(152,0,l),
(419,715,l),
(279,715,l)
);
}
);
width = 437;
}
);
note = slash;
unicode = 47;
},
{
glyphname = zero;
kernLeft = zero;
kernRight = zero;
layers = (
{
hints = (
{
horizontal = 1;
place = (-16, 132);
place = (-16, 132);
type = Stem;
},
{
horizontal = 1;
place = (569, 131);
place = (569, 131);
type = Stem;
},
{
place = (24, 173);
place = (24, 173);
type = Stem;
},
{
place = (456, 174);
place = (456, 174);
type = Stem;
}
);
layerId = m01;
shapes = (
{
closed = 1;
nodes = (
(235,116,o),
(197,208,o),
(197,342,cs),
(197,476,o),
(235,569,o),
(327,569,cs),
(419,569,o),
(456,475,o),
(456,342,cs),
(456,207,o),
(420,116,o),
(327,116,cs)
);
},
{
closed = 1;
nodes = (
(508,-16,o),
(630,124,o),
(630,342,cs),
(630,560,o),
(511,700,o),
(327,700,cs),
(147,700,o),
(24,560,o),
(24,342,cs),
(24,124,o),
(148,-16,o),
(326,-16,cs)
);
}
);
width = 653;
}
);
note = zero;
unicode = 48;
},
{
glyphname = one;
kernLeft = one;
layers = (
{
hints = (
{
horizontal = 1;
place = (0, 21);
target = up;
type = BottomGhost;
},
{
horizontal = 1;
place = (438, 114);
place = (438, 114);
type = Stem;
},
{
horizontal = 1;
place = (691, -20);
target = down;
type = TopGhost;
},
{
place = (173, 169);
place = (173, 169);
type = Stem;
}
);
layerId = m01;
shapes = (
{
closed = 1;
nodes = (
(173,0,l),
(342,0,l),
(342,691,l),
(208,691,l),
(191,598,o),
(117,555,o),
(26,552,c),
(26,438,l),
(173,438,l)
);
}
);
width = 406;
}
);
note = one;
unicode = 49;
},
{
glyphname = two;
kernLeft = two;
kernRight = two;
layers = (
{
hints = (
{
horizontal = 1;
place = (0, 139);
place = (0, 139);
type = Stem;
},
{
horizontal = 1;
place = (563, 136);
place = (563, 136);
type = Stem;
},
{
place = (32, 158);
place = (32, 158);
type = Stem;
},
{
place = (384, 169);
place = (384, 169);
type = Stem;
}
);
layerId = m01;
shapes = (
{
closed = 1;
nodes = (
(554,0,l),
(554,139,l),
(256,139,l),
(256,140,l),
(304,191,o),
(378,233,o),
(439,283,cs),
(500,330,o),
(553,385,o),
(553,480,cs),
(553,601,o),
(464,699,o),
(299,699,cs),
(192,699,o),
(118,661,o),
(79,605,cs),
(46,560,o),
(32,511,o),
(32,431,c),
(190,431,l),
(191,478,o),
(201,509,o),
(221,532,cs),
(238,553,o),
(263,563,o),
(295,563,cs),
(353,563,o),
(384,527,o),
(384,474,cs),
(384,440,o),
(367,414,o),
(339,389,cs),
(285,341,o),
(205,291,o),
(143,238,cs),
(75,181,o),
(24,115,o),
(22,0,c)
);
}
);
width = 581;
}
);
note = two;
unicode = 50;
},
{
glyphname = three;
kernLeft = three;
kernRight = three;
layers = (
{
hints = (
{
horizontal = 1;
place = (-16, 129);
place = (-16, 129);
type = Stem;
},
{
horizontal = 1;
place = (298, 117);
place = (298, 117);
type = Stem;
},
{
horizontal = 1;
place = (573, 126);
place = (573, 126);
type = Stem;
},
{
place = (406, 171);
place = (406, 171);
type = Stem;
},
{
place = (391, 166);
place = (391, 166);
type = Stem;
}
);
layerId = m01;
shapes = (
{
closed = 1;
nodes = (
(450,-16,o),
(577,52,o),
(577,199,cs),
(577,291,o),
(528,344,o),
(453,367,c),
(453,369,l),
(514,393,o),
(557,436,o),
(557,506,cs),
(557,627,o),
(454,699,o),
(303,699,cs),
(133,699,o),
(38,604,o),
(35,468,c),
(192,468,l),
(196,527,o),
(228,573,o),
(301,573,cs),
(358,573,o),
(391,542,o),
(391,495,cs),
(391,443,o),
(349,415,o),
(285,415,cs),
(248,415,l),
(248,298,l),
(289,298,ls),
(364,298,o),
(406,268,o),
(406,208,cs),
(406,151,o),
(368,113,o),
(299,113,cs),
(213,113,o),
(177,164,o),
(173,237,c),
(14,237,l),
(14,158,o),
(40,94,o),
(90,50,cs),
(138,7,o),
(209,-16,o),
(306,-16,cs)
);
}
);
width = 599;
}
);
note = three;
unicode = 51;
},
{
glyphname = four;
kernLeft = four;
kernRight = four;
layers = (
{
hints = (
{
horizontal = 1;
place = (0, 21);
target = up;
type = BottomGhost;
},
{
horizontal = 1;
place = (152, 128);
place = (152, 128);
type = Stem;
},
{
horizontal = 1;
place = (692, -20);
target = down;
type = TopGhost;
},
{
place = (21, 127);
place = (21, 127);
type = Stem;
},
{
place = (340, 164);
place = (340, 164);
type = Stem;
},
{
horizontal = 1;
place = (515, 177);
place = (515, 177);
type = Stem;
}
);
layerId = m01;
shapes = (
{
closed = 1;
nodes = (
(340,0,l),
(504,0,l),
(504,152,l),
(603,152,l),
(603,280,l),
(504,280,l),
(504,692,l),
(338,692,l),
(21,307,l),
(21,152,l),
(340,152,l)
);
},
{
closed = 1;
nodes = (
(148,280,l),
(148,282,l),
(338,515,l),
(340,515,l),
(340,280,l)
);
}
);
width = 620;
}
);
note = four;
unicode = 52;
},
{
glyphname = five;
kernLeft = five;
kernRight = five;
layers = (
{
hints = (
{
horizontal = 1;
place = (-16, 134);
place = (-16, 134);
type = Stem;
},
{
horizontal = 1;
place = (348, 121);
place = (348, 121);
type = Stem;
},
{
horizontal = 1;
place = (550, 135);
place = (550, 135);
type = Stem;
},
{
place = (410, 170);
place = (410, 170);
type = Stem;
},
{
horizontal = 1;
place = (306, 122);
place = (306, 122);
type = Stem;
}
);
layerId = m01;
shapes = (
{
closed = 1;
nodes = (
(467,-16,o),
(580,82,o),
(580,234,cs),
(580,379,o),
(475,469,o),
(344,469,cs),
(282,469,o),
(236,451,o),
(211,428,c),
(209,428,l),
(233,550,l),
(537,550,l),
(537,685,l),
(112,685,l),
(42,306,l),
(200,306,l),
(218,329,o),
(254,348,o),
(298,348,cs),
(364,348,o),
(410,305,o),
(410,235,cs),
(410,166,o),
(367,118,o),
(299,118,cs),
(238,118,o),
(189,147,o),
(178,205,c),
(13,205,l),
(29,59,o),
(146,-16,o),
(303,-16,cs)
);
}
);
width = 603;
}
);
note = five;
unicode = 53;
},
{
glyphname = six;
kernLeft = six;
kernRight = six;
layers = (
{
hints = (
{
horizontal = 1;
place = (-16, 126);
place = (-16, 126);
type = Stem;
},
{
horizontal = 1;
place = (347, 124);
place = (347, 124);
type = Stem;
},
{
horizontal = 1;
place = (579, 120);
place = (579, 120);
type = Stem;
},
{
place = (25, 176);
place = (25, 176);
type = Stem;
},
{
place = (438, 160);
place = (438, 160);
type = Stem;
}
);
layerId = m01;
shapes = (
{
closed = 1;
nodes = (
(483,-16,o),
(598,82,o),
(598,228,cs),
(598,375,o),
(483,471,o),
(351,471,cs),
(277,471,o),
(231,445,o),
(194,406,c),
(192,406,l),
(197,516,o),
(243,579,o),
(327,579,cs),
(383,579,o),
(407,550,o),
(417,516,c),
(578,516,l),
(557,627,o),
(467,699,o),
(325,699,cs),
(227,699,o),
(157,667,o),
(108,611,cs),
(49,544,o),
(24,449,o),
(25,337,cs),
(26,133,o),
(125,-16,o),
(326,-16,cs)
);
},
{
closed = 1;
nodes = (
(250,110,o),
(201,159,o),
(201,227,cs),
(201,296,o),
(247,347,o),
(320,347,cs),
(389,347,o),
(438,295,o),
(438,227,cs),
(438,160,o),
(389,110,o),
(320,110,cs)
);
}
);
width = 618;
}
);
note = six;
unicode = 54;
},
{
glyphname = seven;
kernLeft = seven;
kernRight = seven;
layers = (
{
hints = (
{
horizontal = 1;
place = (0, 21);
target = up;
type = BottomGhost;
},
{
horizontal = 1;
place = (542, 143);
place = (542, 143);
type = Stem;
},
{
place = (112, 176);
place = (112, 176);
type = Stem;
}
);
layerId = m01;
shapes = (
{
closed = 1;
nodes = (
(288,0,l),
(295,235,o),
(404,434,o),
(524,555,c),
(524,685,l),
(17,685,l),
(17,542,l),
(347,542,l),
(347,540,l),
(250,441,o),
(121,249,o),
(112,0,c)
);
}
);
width = 545;
}
);
note = seven;
unicode = 55;
},
{
glyphname = eight;
kernLeft = eight;
kernRight = eight;
layers = (
{
hints = (
{
horizontal = 1;
place = (-16, 125);
place = (-16, 125);
type = Stem;
},
{
horizontal = 1;
place = (309, 107);
place = (309, 107);
type = Stem;
},
{
horizontal = 1;
place = (583, 116);
place = (583, 116);
type = Stem;
},
{
place = (19, 167);
place = (19, 167);
type = Stem;
},
{
place = (423, 168);
place = (423, 168);
type = Stem;
},
{
place = (47, 156);
place = (47, 156);
type = Stem;
},
{
place = (406, 156);
place = (406, 156);
type = Stem;
}
);
layerId = m01;
shapes = (
{
closed = 1;
nodes = (
(475,-16,o),
(591,66,o),
(591,200,cs),
(591,279,o),
(548,342,o),
(472,371,c),
(472,374,l),
(528,404,o),
(562,451,o),
(562,511,cs),
(562,627,o),
(464,699,o),
(305,699,cs),
(147,699,o),
(47,622,o),
(47,508,cs),
(47,445,o),
(78,399,o),
(138,370,c),
(138,367,l),
(64,335,o),
(19,274,o),
(19,196,cs),
(19,66,o),
(136,-16,o),
(306,-16,cs)
);
},
{
closed = 1;
nodes = (
(234,109,o),
(186,147,o),
(186,207,cs),
(186,268,o),
(235,309,o),
(306,309,cs),
(378,309,o),
(423,268,o),
(423,207,cs),
(423,148,o),
(375,109,o),
(305,109,cs)
);
},
{
closed = 1;
nodes = (
(241,416,o),
(203,451,o),
(203,500,cs),
(203,549,o),
(241,583,o),
(304,583,cs),
(367,583,o),
(406,549,o),
(406,500,cs),
(406,451,o),
(367,416,o),
(304,416,cs)
);
}
);
width = 609;
}
);
note = eight;
unicode = 56;
},
{
glyphname = nine;
kernLeft = nine;
kernRight = nine;
layers = (
{
hints = (
{
horizontal = 1;
place = (-16, 121);
place = (-16, 121);
type = Stem;
},
{
horizontal = 1;
place = (213, 124);
place = (213, 124);
type = Stem;
},
{
horizontal = 1;
place = (574, 125);
place = (574, 125);
type = Stem;
},
{
place = (21, 160);
place = (21, 160);
type = Stem;
},
{
place = (423, 170);
place = (423, 170);
type = Stem;
}
);
layerId = m01;
shapes = (
{
closed = 1;
nodes = (
(402,-16,o),
(473,18,o),
(522,81,cs),
(571,145,o),
(593,241,o),
(593,347,cs),
(593,472,o),
(564,563,o),
(503,622,cs),
(455,671,o),
(382,699,o),
(297,699,cs),
(137,699,o),
(21,601,o),
(21,455,cs),
(21,308,o),
(133,213,o),
(271,213,cs),
(342,213,o),
(389,242,o),
(424,280,c),
(426,280,l),
(424,219,o),
(411,173,o),
(387,144,cs),
(366,117,o),
(336,105,o),
(298,105,cs),
(241,105,o),
(212,136,o),
(202,170,c),
(42,170,l),
(61,60,o),
(154,-16,o),
(302,-16,cs)
);
},
{
closed = 1;
nodes = (
(227,337,o),
(181,388,o),
(181,456,cs),
(181,523,o),
(230,574,o),
(301,574,cs),
(372,574,o),
(423,524,o),
(423,455,cs),
(423,386,o),
(371,337,o),
(301,337,cs)
);
}
);
width = 617;
}
);
note = nine;
unicode = 57;
},
{
glyphname = colon;
kernLeft = colon;
kernRight = colon;
layers = (
{
hints = (
{
horizontal = 1;
place = (0, 168);
place = (0, 168);
type = Stem;
},
{
horizontal = 1;
place = (310, 168);
place = (310, 168);
type = Stem;
},
{
place = (35, 171);
place = (35, 171);
type = Stem;
}
);
layerId = m01;
shapes = (
{
closed = 1;
nodes = (
(35,0,l),
(206,0,l),
(206,168,l),
(35,168,l)
);
},
{
closed = 1;
nodes = (
(35,310,l),
(206,310,l),
(206,478,l),
(35,478,l)
);
}
);
width = 241;
}
);
note = colon;
unicode = 58;
},
{
glyphname = semicolon;
kernLeft = colon;
kernRight = colon;
layers = (
{
hints = (
{
horizontal = 1;
place = (0, 168);
place = (0, 168);
type = Stem;
},
{
horizontal = 1;
place = (310, 168);
place = (310, 168);
type = Stem;
},
{
place = (35, 171);
place = (35, 171);
type = Stem;
}
);
layerId = m01;
shapes = (
{
closed = 1;
nodes = (
(37,-179,l),
(84,-176,o),
(128,-157,o),
(159,-124,cs),
(189,-92,o),
(206,-50,o),
(206,13,cs),
(206,168,l),
(35,168,l),
(35,0,l),
(115,0,l),
(115,-57,o),
(85,-97,o),
(37,-110,c)
);
},
{
closed = 1;
nodes = (
(35,310,l),
(206,310,l),
(206,478,l),
(35,478,l)
);
}
);
width = 241;
}
);
note = semicolon;
unicode = 59;
},
{
glyphname = less;
layers = (
{
hints = (
{
horizontal = 1;
place = (62, 494);
place = (62, 494);
type = Stem;
},
{
place = (43, 412);
place = (43, 412);
type = Stem;
},
{
place = (43, 134);
place = (43, 134);
type = Stem;
}
);
layerId = m01;
shapes = (
{
closed = 1;
nodes = (
(455,62,l),
(455,211,l),
(272,277,ls),
(235,290,o),
(177,306,o),
(177,306,c),
(177,308,l),
(177,308,o),
(236,328,o),
(272,342,cs),
(455,413,l),
(455,556,l),
(43,383,l),
(43,235,l)
);
}
);
width = 502;
}
);
note = less;
unicode = 60;
},
{
glyphname = equal;
layers = (
{
hints = (
{
horizontal = 1;
place = (140, 127);
place = (140, 127);
type = Stem;
},
{
horizontal = 1;
place = (352, 127);
place = (352, 127);
type = Stem;
},
{
place = (51, 468);
place = (51, 468);
type = Stem;
}
);
layerId = m01;
shapes = (
{
closed = 1;
nodes = (
(51,140,l),
(519,140,l),
(519,267,l),
(51,267,l)
);
},
{
closed = 1;
nodes = (
(51,352,l),
(519,352,l),
(519,479,l),
(51,479,l)
);
}
);
width = 563;
}
);
note = equal;
unicode = 61;
},
{
glyphname = greater;
layers = (
{
hints = (
{
horizontal = 1;
place = (62, 494);
place = (62, 494);
type = Stem;
},
{
place = (47, 412);
place = (47, 412);
type = Stem;
},
{
place = (325, 134);
place = (325, 134);
type = Stem;
}
);
layerId = m01;
shapes = (
{
closed = 1;
nodes = (
(47,62,l),
(459,235,l),
(459,383,l),
(47,556,l),
(47,408,l),
(230,342,ls),
(267,329,o),
(325,312,o),
(325,312,c),
(325,310,l),
(325,310,o),
(266,291,o),
(230,277,cs),
(47,206,l)
);
}
);
width = 502;
}
);
note = greater;
unicode = 62;
},
{
glyphname = question;
kernLeft = question;
layers = (
{
hints = (
{
horizontal = 1;
place = (0, 168);
place = (0, 168);
type = Stem;
},
{
horizontal = 1;
place = (593, 135);
place = (593, 135);
type = Stem;
},
{
place = (175, 171);
place = (175, 171);
type = Stem;
},
{
place = (191, 144);
place = (191, 144);
type = Stem;
},
{
place = (14, 161);
place = (14, 161);
type = Stem;
},
{
place = (361, 171);
place = (361, 171);
type = Stem;
}
);
layerId = m01;
shapes = (
{
closed = 1;
nodes = (
(335,234,l),
(335,266,o),
(340,284,o),
(354,302,cs),
(370,321,o),
(396,335,o),
(438,362,cs),
(482,391,o),
(532,430,o),
(532,524,cs),
(532,645,o),
(432,728,o),
(283,728,cs),
(116,728,o),
(17,631,o),
(14,490,c),
(175,490,l),
(175,554,o),
(216,593,o),
(276,593,cs),
(324,593,o),
(361,565,o),
(361,518,cs),
(361,457,o),
(304,442,o),
(260,401,cs),
(212,361,o),
(191,336,o),
(191,234,c)
);
},
{
closed = 1;
nodes = (
(175,0,l),
(346,0,l),
(346,168,l),
(175,168,l)
);
}
);
width = 553;
}
);
note = question;
unicode = 63;
},
{
glyphname = at;
kernLeft = at;
kernRight = at;
layers = (
{
hints = (
{
horizontal = 1;
place = (-109, 85);
place = (-109, 85);
type = Stem;
},
{
horizontal = 1;
place = (78, 86);
place = (78, 86);
type = Stem;
},
{
horizontal = 1;
place = (412, 106);
place = (412, 106);
type = Stem;
},
{
horizontal = 1;
place = (628, 86);
place = (628, 86);
type = Stem;
},
{
place = (35, 101);
place = (35, 101);
type = Stem;
},
{
place = (230, 145);
place = (230, 145);
type = Stem;
},
{
place = (525, 125);
place = (525, 125);
type = Stem;
},
{
place = (782, 97);
place = (782, 97);
type = Stem;
},
{
horizontal = 1;
place = (81, 108);
place = (81, 108);
type = Stem;
}
);
layerId = m01;
shapes = (
{
closed = 1;
nodes = (
(522,-109,o),
(594,-96,o),
(658,-66,c),
(626,13,l),
(573,-9,o),
(511,-24,o),
(448,-24,cs),
(246,-24,o),
(136,106,o),
(136,284,cs),
(136,502,o),
(289,628,o),
(472,628,cs),
(654,628,o),
(782,533,o),
(782,337,cs),
(782,208,o),
(731,164,o),
(689,164,cs),
(655,164,o),
(644,189,o),
(650,236,cs),
(682,507,l),
(545,507,l),
(538,446,l),
(536,446,l),
(517,491,o),
(482,518,o),
(425,518,cs),
(304,518,o),
(230,417,o),
(230,277,cs),
(230,157,o),
(293,81,o),
(394,81,cs),
(453,81,o),
(498,110,o),
(527,159,c),
(529,159,l),
(551,104,o),
(604,78,o),
(676,78,cs),
(795,78,o),
(879,172,o),
(879,339,cs),
(879,581,o),
(691,714,o),
(473,714,cs),
(250,714,o),
(35,561,o),
(35,283,cs),
(35,45,o),
(210,-109,o),
(447,-109,cs)
);
},
{
closed = 1;
nodes = (
(394,189,o),
(375,229,o),
(375,281,cs),
(375,354,o),
(407,412,o),
(460,412,cs),
(502,412,o),
(525,372,o),
(525,320,cs),
(525,243,o),
(490,189,o),
(437,189,cs)
);
}
);
width = 909;
}
);
note = at;
unicode = 64;
},
{
glyphname = A;
kernLeft = A;
kernRight = A;
layers = (
{
hints = (
{
horizontal = 1;
place = (0, 21);
target = up;
type = BottomGhost;
},
{
horizontal = 1;
place = (129, 127);
place = (129, 127);
type = Stem;
},
{
horizontal = 1;
place = (715, -20);
target = down;
type = TopGhost;
},
{
place = (-1, 697);
place = (-1, 697);
type = Stem;
}
);
layerId = m01;
shapes = (
{
closed = 1;
nodes = (
(-1,0,l),
(177,0,l),
(218,129,l),
(468,129,l),
(510,0,l),
(696,0,l),
(438,715,l),
(256,715,l)
);
},
{
closed = 1;
nodes = (
(259,256,l),
(314,429,ls),
(326,466,o),
(343,530,o),
(343,530,c),
(345,530,l),
(345,530,o),
(361,466,o),
(373,429,cs),
(427,256,l)
);
}
);
width = 697;
}
);
note = A;
unicode = 65;
},
{
glyphname = B;
layers = (
{
hints = (
{
horizontal = 1;
place = (0, 142);
place = (0, 142);
type = Stem;
},
{
horizontal = 1;
place = (312, 120);
place = (312, 120);
type = Stem;
},
{
horizontal = 1;
place = (575, 140);
place = (575, 140);
type = Stem;
},
{
place = (49, 175);
place = (49, 175);
type = Stem;
},
{
place = (476, 175);
place = (476, 175);
type = Stem;
},
{
place = (454, 169);
place = (454, 169);
type = Stem;
}
);
layerId = m01;
shapes = (
{
closed = 1;
nodes = (
(49,0,l),
(402,0,ls),
(477,0,o),
(536,18,o),
(578,51,cs),
(625,87,o),
(651,139,o),
(651,211,cs),
(651,296,o),
(601,362,o),
(523,386,c),
(523,389,l),
(586,413,o),
(623,458,o),
(623,529,cs),
(623,586,o),
(602,632,o),
(561,666,cs),
(523,697,o),
(468,715,o),
(394,715,cs),
(49,715,l)
);
},
{
closed = 1;
nodes = (
(224,142,l),
(224,312,l),
(380,312,ls),
(434,312,o),
(476,283,o),
(476,226,cs),
(476,175,o),
(440,142,o),
(382,142,cs)
);
},
{
closed = 1;
nodes = (
(224,432,l),
(224,575,l),
(369,575,ls),
(421,575,o),
(454,549,o),
(454,504,cs),
(454,457,o),
(419,432,o),
(368,432,cs)
);
}
);
width = 671;
}
);
note = B;
unicode = 66;
},
{
glyphname = C;
kernLeft = C;
kernRight = C;
layers = (
{
hints = (
{
horizontal = 1;
place = (-16, 145);
place = (-16, 145);
type = Stem;
},
{
horizontal = 1;
place = (582, 147);
place = (582, 147);
type = Stem;
},
{
place = (20, 180);
place = (20, 180);
type = Stem;
}
);
layerId = m01;
shapes = (
{
closed = 1;
nodes = (
(474,-16,o),
(547,12,o),
(602,65,cs),
(651,112,o),
(683,177,o),
(688,248,c),
(511,248,l),
(503,179,o),
(451,129,o),
(372,129,cs),
(266,129,o),
(200,224,o),
(200,355,cs),
(200,485,o),
(255,582,o),
(371,582,cs),
(447,582,o),
(497,533,o),
(506,469,c),
(683,469,l),
(674,549,o),
(638,619,o),
(576,666,cs),
(525,705,o),
(455,729,o),
(372,729,cs),
(159,729,o),
(20,568,o),
(20,355,cs),
(20,141,o),
(163,-16,o),
(373,-16,cs)
);
}
);
width = 702;
}
);
note = C;
unicode = 67;
},
{
glyphname = D;
kernRight = Eth;
layers = (
{
hints = (
{
horizontal = 1;
place = (0, 149);
place = (0, 149);
type = Stem;
},
{
horizontal = 1;
place = (567, 148);
place = (567, 148);
type = Stem;
},
{
place = (49, 177);
place = (49, 177);
type = Stem;
},
{
place = (506, 179);
place = (506, 179);
type = Stem;
}
);
layerId = m01;
shapes = (
{
closed = 1;
nodes = (
(226,149,l),
(226,567,l),
(332,567,ls),
(443,567,o),
(506,483,o),
(506,353,cs),
(506,222,o),
(446,149,o),
(330,149,cs)
);
},
{
closed = 1;
nodes = (
(49,0,l),
(343,0,ls),
(433,0,o),
(505,23,o),
(561,65,cs),
(641,126,o),
(685,227,o),
(685,353,cs),
(685,572,o),
(552,715,o),
(354,715,cs),
(49,715,l)
);
}
);
width = 705;
}
);
note = D;
unicode = 68;
},
{
glyphname = E;
kernRight = E;
layers = (
{
hints = (
{
horizontal = 1;
place = (0, 150);
place = (0, 150);
type = Stem;
},
{
horizontal = 1;
place = (303, 138);
place = (303, 138);
type = Stem;
},
{
horizontal = 1;
place = (569, 146);
place = (569, 146);
type = Stem;
},
{
place = (49, 177);
place = (49, 177);
type = Stem;
}
);
layerId = m01;
shapes = (
{
closed = 1;
nodes = (
(49,0,l),
(597,0,l),
(597,150,l),
(226,150,l),
(226,303,l),
(539,303,l),
(539,441,l),
(226,441,l),
(226,569,l),
(591,569,l),
(591,715,l),
(49,715,l)
);
}
);
width = 628;
}
);
note = E;
unicode = 69;
},
{
glyphname = F;
kernRight = F;
layers = (
{
hints = (
{
horizontal = 1;
place = (0, 21);
target = up;
type = BottomGhost;
},
{
horizontal = 1;
place = (278, 143);
place = (278, 143);
type = Stem;
},
{
horizontal = 1;
place = (566, 149);
place = (566, 149);
type = Stem;
},
{
place = (49, 177);
place = (49, 177);
type = Stem;
}
);
layerId = m01;
shapes = (
{
closed = 1;
nodes = (
(49,0,l),
(226,0,l),
(226,278,l),
(523,278,l),
(523,421,l),
(226,421,l),
(226,566,l),
(581,566,l),
(581,715,l),
(49,715,l)
);
}
);
width = 602;
}
);
note = F;
unicode = 70;
},
{
glyphname = G;
kernLeft = C;
kernRight = G;
layers = (
{
hints = (
{
horizontal = 1;
place = (-16, 143);
place = (-16, 143);
type = Stem;
},
{
horizontal = 1;
place = (254, 130);
place = (254, 130);
type = Stem;
},
{
horizontal = 1;
place = (583, 146);
place = (583, 146);
type = Stem;
},
{
place = (21, 180);
place = (21, 180);
type = Stem;
},
{
place = (571, 129);
place = (571, 129);
type = Stem;
},
{
horizontal = 1;
place = (0, 21);
target = up;
type = BottomGhost;
}
);
layerId = m01;
shapes = (
{
closed = 1;
nodes = (
(447,-16,o),
(517,13,o),
(564,86,c),
(566,86,l),
(576,0,l),
(700,0,l),
(700,384,l),
(402,384,l),
(402,254,l),
(536,254,l),
(536,252,ls),
(529,189,o),
(474,127,o),
(381,127,cs),
(269,127,o),
(201,224,o),
(201,355,cs),
(201,485,o),
(260,583,o),
(378,583,cs),
(456,583,o),
(504,539,o),
(517,481,c),
(689,481,l),
(666,631,o),
(556,729,o),
(372,729,cs),
(269,729,o),
(186,694,o),
(127,634,cs),
(59,566,o),
(21,467,o),
(21,355,cs),
(21,246,o),
(55,152,o),
(117,84,cs),
(176,20,o),
(259,-16,o),
(361,-16,cs)
);
}
);
width = 737;
}
);
note = G;
unicode = 71;
},
{
glyphname = H;
kernRight = H;
layers = (
{
hints = (
{
horizontal = 1;
place = (0, 21);
target = up;
type = BottomGhost;
},
{
horizontal = 1;
place = (298, 146);
place = (298, 146);
type = Stem;
},
{
horizontal = 1;
place = (715, -20);
target = down;
type = TopGhost;
},
{
place = (49, 177);
place = (49, 177);
type = Stem;
},
{
place = (477, 177);
place = (477, 177);
type = Stem;
}
);
layerId = m01;
shapes = (
{
closed = 1;
nodes = (
(49,0,l),
(226,0,l),
(226,298,l),
(477,298,l),
(477,0,l),
(654,0,l),
(654,715,l),
(477,715,l),
(477,444,l),
(226,444,l),
(226,715,l),
(49,715,l)
);
}
);
width = 703;
}
);
note = H;
unicode = 72;
},
{
glyphname = I;
kernRight = H;
layers = (
{
hints = (
{
horizontal = 1;
place = (0, 21);
target = up;
type = BottomGhost;
},
{
horizontal = 1;
place = (715, -20);
target = down;
type = TopGhost;
},
{
place = (50, 177);
place = (50, 177);
type = Stem;
}
);
layerId = m01;
shapes = (
{
closed = 1;
nodes = (
(50,0,l),
(227,0,l),
(227,715,l),
(50,715,l)
);
}
);
width = 276;
}
);
note = I;
unicode = 73;
},
{
glyphname = J;
kernLeft = J;
kernRight = J;
layers = (
{
hints = (
{
horizontal = 1;
place = (-13, 146);
place = (-13, 146);
type = Stem;
},
{
horizontal = 1;
place = (715, -20);
target = down;
type = TopGhost;
},
{
place = (13, 161);
place = (13, 161);
type = Stem;
},
{
place = (326, 177);
place = (326, 177);
type = Stem;
}
);
layerId = m01;
shapes = (
{
closed = 1;
nodes = (
(347,-13,o),
(412,14,o),
(452,58,cs),
(487,97,o),
(503,149,o),
(503,213,cs),
(503,715,l),
(326,715,l),
(326,217,ls),
(326,165,o),
(304,133,o),
(252,133,cs),
(203,133,o),
(174,158,o),
(174,219,cs),
(174,278,l),
(13,278,l),
(13,215,ls),
(13,79,o),
(94,-13,o),
(263,-13,cs)
);
}
);
width = 545;
}
);
note = J;
unicode = 74;
},
{
glyphname = K;
kernRight = K;
layers = (
{
hints = (
{
horizontal = 1;
place = (0, 21);
target = up;
type = BottomGhost;
},
{
horizontal = 1;
place = (715, -20);
target = down;
type = TopGhost;
},
{
place = (49, 177);
place = (49, 177);
type = Stem;
}
);
layerId = m01;
shapes = (
{
closed = 1;
nodes = (
(49,0,l),
(226,0,l),
(226,246,l),
(286,309,l),
(492,0,l),
(698,0,l),
(408,428,l),
(682,715,l),
(472,715,l),
(226,456,l),
(226,715,l),
(49,715,l)
);
}
);
width = 697;
}
);
note = K;
unicode = 75;
},
{
glyphname = L;
kernRight = L;
layers = (
{
hints = (
{
horizontal = 1;
place = (0, 150);
place = (0, 150);
type = Stem;
},
{
horizontal = 1;
place = (715, -20);
target = down;
type = TopGhost;
},
{
place = (49, 177);
place = (49, 177);
type = Stem;
}
);
layerId = m01;
shapes = (
{
closed = 1;
nodes = (
(49,0,l),
(547,0,l),
(547,150,l),
(226,150,l),
(226,715,l),
(49,715,l)
);
}
);
width = 565;
}
);
note = L;
unicode = 76;
},
{
glyphname = M;
kernRight = H;
layers = (
{
hints = (
{
horizontal = 1;
place = (0, 21);
target = up;
type = BottomGhost;
},
{
horizontal = 1;
place = (715, -20);
target = down;
type = TopGhost;
},
{
place = (49, 159);
place = (49, 159);
type = Stem;
},
{
place = (623, 162);
place = (623, 162);
type = Stem;
}
);
layerId = m01;
shapes = (
{
closed = 1;
nodes = (
(49,0,l),
(208,0,l),
(208,359,ls),
(208,388,o),
(205,503,o),
(205,503,c),
(207,503,l),
(207,503,o),
(232,395,o),
(240,369,cs),
(342,0,l),
(488,0,l),
(591,370,ls),
(599,396,o),
(624,503,o),
(624,503,c),
(626,503,l),
(626,503,o),
(623,389,o),
(623,360,cs),
(623,0,l),
(785,0,l),
(785,715,l),
(545,715,l),
(457,402,ls),
(445,357,o),
(417,239,o),
(417,239,c),
(415,239,l),
(415,239,o),
(387,357,o),
(374,402,cs),
(287,715,l),
(49,715,l)
);
}
);
width = 834;
}
);
note = M;
unicode = 77;
},
{
glyphname = N;
kernRight = H;
layers = (
{
hints = (
{
horizontal = 1;
place = (0, 21);
target = up;
type = BottomGhost;
},
{
horizontal = 1;
place = (715, -20);
target = down;
type = TopGhost;
},
{
place = (49, 173);
place = (49, 173);
type = Stem;
},
{
place = (488, 173);
place = (488, 173);
type = Stem;
}
);
layerId = m01;
shapes = (
{
closed = 1;
nodes = (
(49,0,l),
(222,0,l),
(222,333,ls),
(222,358,o),
(220,450,o),
(220,450,c),
(222,450,l),
(222,450,o),
(261,373,o),
(273,354,cs),
(483,0,l),
(661,0,l),
(661,715,l),
(488,715,l),
(488,376,ls),
(488,351,o),
(490,265,o),
(490,265,c),
(488,265,l),
(488,265,o),
(450,336,o),
(439,356,cs),
(227,715,l),
(49,715,l)
);
}
);
width = 710;
}
);
note = N;
unicode = 78;
},
{
glyphname = O;
kernLeft = C;
kernRight = O;
layers = (
{
hints = (
{
horizontal = 1;
place = (-17, 144);
place = (-17, 144);
type = Stem;
},
{
horizontal = 1;
place = (586, 143);
place = (586, 143);
type = Stem;
},
{
place = (20, 180);
place = (20, 180);
type = Stem;
},
{
place = (547, 180);
place = (547, 180);
type = Stem;
}
);
layerId = m01;
shapes = (
{
closed = 1;
nodes = (
(259,127,o),
(200,226,o),
(200,356,cs),
(200,486,o),
(259,586,o),
(374,586,cs),
(490,586,o),
(547,486,o),
(547,356,cs),
(547,226,o),
(490,127,o),
(374,127,cs)
);
},
{
closed = 1;
nodes = (
(590,-17,o),
(727,142,o),
(727,356,cs),
(727,570,o),
(590,729,o),
(373,729,cs),
(157,729,o),
(20,570,o),
(20,356,cs),
(20,142,o),
(157,-17,o),
(373,-17,cs)
);
}
);
width = 747;
}
);
note = O;
unicode = 79;
},
{
glyphname = P;
kernRight = P;
layers = (
{
hints = (
{
horizontal = 1;
place = (0, 21);
target = up;
type = BottomGhost;
},
{
horizontal = 1;
place = (239, 140);
place = (239, 140);
type = Stem;
},
{
horizontal = 1;
place = (566, 149);
place = (566, 149);
type = Stem;
},
{
place = (49, 180);
place = (49, 180);
type = Stem;
},
{
place = (460, 178);
place = (460, 178);
type = Stem;
}
);
layerId = m01;
shapes = (
{
closed = 1;
nodes = (
(49,0,l),
(229,0,l),
(229,239,l),
(396,239,ls),
(543,239,o),
(638,336,o),
(638,473,cs),
(638,545,o),
(612,606,o),
(566,649,cs),
(522,691,o),
(458,715,o),
(371,715,cs),
(49,715,l)
);
},
{
closed = 1;
nodes = (
(229,379,l),
(229,566,l),
(360,566,ls),
(423,566,o),
(460,531,o),
(460,474,cs),
(460,417,o),
(424,379,o),
(360,379,cs)
);
}
);
width = 652;
}
);
note = P;
unicode = 80;
},
{
glyphname = Q;
kernLeft = C;
kernRight = Q;
layers = (
{
hints = (
{
horizontal = 1;
place = (-17, 144);
place = (-17, 144);
type = Stem;
},
{
horizontal = 1;
place = (586, 143);
place = (586, 143);
type = Stem;
},
{
place = (20, 180);
place = (20, 180);
type = Stem;
},
{
place = (545, 180);
place = (545, 180);
type = Stem;
}
);
layerId = m01;
shapes = (
{
closed = 1;
nodes = (
(258,127,o),
(200,226,o),
(200,356,cs),
(200,486,o),
(258,586,o),
(373,586,cs),
(489,586,o),
(545,486,o),
(545,356,cs),
(545,306,o),
(537,261,o),
(520,224,c),
(454,287,l),
(372,202,l),
(437,139,l),
(418,131,o),
(397,127,o),
(373,127,cs)
);
},
{
closed = 1;
nodes = (
(642,-58,l),
(724,29,l),
(643,105,l),
(696,170,o),
(725,257,o),
(725,356,cs),
(725,570,o),
(589,729,o),
(372,729,cs),
(156,729,o),
(20,570,o),
(20,356,cs),
(20,142,o),
(156,-17,o),
(372,-17,cs),
(441,-17,o),
(501,-1,o),
(552,28,c)
);
}
);
width = 745;
}
);
note = Q;
unicode = 81;
},
{
glyphname = R;
kernRight = R;
layers = (
{
hints = (
{
horizontal = 1;
place = (0, 9);
place = (0, 9);
type = Stem;
},
{
horizontal = 1;
place = (268, 131);
place = (268, 131);
type = Stem;
},
{
horizontal = 1;
place = (575, 140);
place = (575, 140);
type = Stem;
},
{
place = (49, 177);
place = (49, 177);
type = Stem;
},
{
place = (465, 176);
place = (465, 176);
type = Stem;
}
);
layerId = m01;
shapes = (
{
closed = 1;
nodes = (
(49,0,l),
(226,0,l),
(226,268,l),
(333,268,ls),
(409,268,o),
(443,232,o),
(452,166,cs),
(463,95,o),
(460,11,o),
(479,0,c),
(651,0,l),
(651,9,l),
(626,18,o),
(636,108,o),
(621,202,cs),
(611,273,o),
(579,312,o),
(517,333,c),
(517,336,l),
(600,365,o),
(641,426,o),
(641,509,cs),
(641,642,o),
(533,715,o),
(391,715,cs),
(49,715,l)
);
},
{
closed = 1;
nodes = (
(226,399,l),
(226,575,l),
(363,575,ls),
(431,575,o),
(465,538,o),
(465,486,cs),
(465,432,o),
(429,399,o),
(359,399,cs)
);
}
);
width = 671;
}
);
note = R;
unicode = 82;
},
{
glyphname = S;
kernLeft = Scaron;
kernRight = Scaron;
layers = (
{
hints = (
{
horizontal = 1;
place = (-17, 140);
place = (-17, 140);
type = Stem;
},
{
horizontal = 1;
place = (594, 134);
place = (594, 134);
type = Stem;
},
{
place = (37, 175);
place = (37, 175);
type = Stem;
},
{
place = (448, 179);
place = (448, 179);
type = Stem;
}
);
layerId = m01;
shapes = (
{
closed = 1;
nodes = (
(499,-17,o),
(627,66,o),
(627,216,cs),
(627,369,o),
(507,410,o),
(374,441,cs),
(267,465,o),
(212,477,o),
(212,527,cs),
(212,567,o),
(253,594,o),
(315,594,cs),
(381,594,o),
(423,563,o),
(430,508,c),
(603,508,l),
(596,658,o),
(476,728,o),
(321,728,cs),
(161,728,o),
(37,661,o),
(37,508,cs),
(37,358,o),
(168,320,o),
(292,291,cs),
(390,267,o),
(448,255,o),
(448,198,cs),
(448,144,o),
(391,123,o),
(333,123,cs),
(248,123,o),
(201,153,o),
(193,225,c),
(15,225,l),
(19,67,o),
(144,-17,o),
(334,-17,cs)
);
}
);
width = 650;
}
);
note = S;
unicode = 83;
},
{
glyphname = T;
kernLeft = T;
kernRight = T;
layers = (
{
hints = (
{
horizontal = 1;
place = (0, 21);
target = up;
type = BottomGhost;
},
{
horizontal = 1;
place = (565, 150);
place = (565, 150);
type = Stem;
},
{
place = (225, 177);
place = (225, 177);
type = Stem;
}
);
layerId = m01;
shapes = (
{
closed = 1;
nodes = (
(225,0,l),
(402,0,l),
(402,565,l),
(612,565,l),
(612,715,l),
(17,715,l),
(17,565,l),
(225,565,l)
);
}
);
width = 629;
}
);
note = T;
unicode = 84;
},
{
glyphname = U;
kernLeft = U;
kernRight = U;
layers = (
{
hints = (
{
horizontal = 1;
place = (-13, 142);
place = (-13, 142);
type = Stem;
},
{
horizontal = 1;
place = (715, -20);
target = down;
type = TopGhost;
},
{
place = (44, 177);
place = (44, 177);
type = Stem;
},
{
place = (465, 177);
place = (465, 177);
type = Stem;
}
);
layerId = m01;
shapes = (
{
closed = 1;
nodes = (
(543,-13,o),
(642,87,o),
(642,252,cs),
(642,715,l),
(465,715,l),
(465,249,ls),
(465,179,o),
(426,129,o),
(344,129,cs),
(257,129,o),
(221,176,o),
(221,246,cs),
(221,715,l),
(44,715,l),
(44,252,ls),
(44,85,o),
(144,-13,o),
(344,-13,cs)
);
}
);
width = 686;
}
);
note = U;
unicode = 85;
},
{
glyphname = V;
kernLeft = V;
kernRight = V;
layers = (
{
hints = (
{
horizontal = 1;
place = (0, 21);
target = up;
type = BottomGhost;
},
{
horizontal = 1;
place = (715, -20);
target = down;
type = TopGhost;
},
{
place = (-2, 654);
place = (-2, 654);
type = Stem;
}
);
layerId = m01;
shapes = (
{
closed = 1;
nodes = (
(234,0,l),
(417,0,l),
(652,715,l),
(473,715,l),
(362,340,ls),
(347,287,o),
(329,214,o),
(329,214,c),
(327,214,l),
(327,214,o),
(310,286,o),
(294,340,cs),
(182,715,l),
(-2,715,l)
);
}
);
width = 651;
}
);
note = V;
unicode = 86;
},
{
glyphname = W;
kernLeft = W;
kernRight = W;
layers = (
{
hints = (
{
horizontal = 1;
place = (0, 21);
target = up;
type = BottomGhost;
},
{
horizontal = 1;
place = (715, -20);
target = down;
type = TopGhost;
},
{
place = (0, 940);
place = (0, 940);
type = Stem;
}
);
layerId = m01;
shapes = (
{
closed = 1;
nodes = (
(196,0,l),
(370,0,l),
(445,343,ls),
(457,400,o),
(469,476,o),
(469,476,c),
(471,476,l),
(471,476,o),
(483,400,o),
(496,343,cs),
(571,0,l),
(744,0,l),
(940,715,l),
(762,715,l),
(691,417,ls),
(675,346,o),
(655,238,o),
(655,238,c),
(653,238,l),
(653,238,o),
(635,337,o),
(619,410,cs),
(552,715,l),
(388,715,l),
(321,408,ls),
(305,336,o),
(286,238,o),
(286,238,c),
(284,238,l),
(284,238,o),
(267,346,o),
(251,415,cs),
(179,715,l),
(0,715,l)
);
}
);
width = 940;
}
);
note = W;
unicode = 87;
},
{
glyphname = X;
kernLeft = X;
kernRight = X;
layers = (
{
hints = (
{
horizontal = 1;
place = (0, 21);
target = up;
type = BottomGhost;
},
{
horizontal = 1;
place = (715, -20);
target = down;
type = TopGhost;
},
{
place = (3, 685);
place = (3, 685);
type = Stem;
}
);
layerId = m01;
shapes = (
{
closed = 1;
nodes = (
(3,0,l),
(204,0,l),
(343,242,l),
(345,242,l),
(479,0,l),
(688,0,l),
(451,377,l),
(663,715,l),
(471,715,l),
(348,507,l),
(346,507,l),
(225,715,l),
(23,715,l),
(240,375,l)
);
}
);
width = 691;
}
);
note = X;
unicode = 88;
},
{
glyphname = Y;
kernLeft = Yacute;
kernRight = Yacute;
layers = (
{
hints = (
{
horizontal = 1;
place = (0, 21);
target = up;
type = BottomGhost;
},
{
horizontal = 1;
place = (715, -20);
target = down;
type = TopGhost;
},
{
place = (243, 177);
place = (243, 177);
type = Stem;
}
);
layerId = m01;
shapes = (
{
closed = 1;
nodes = (
(243,0,l),
(420,0,l),
(420,264,l),
(662,715,l),
(475,715,l),
(384,530,ls),
(360,481,o),
(335,421,o),
(335,421,c),
(333,421,l),
(333,421,o),
(310,481,o),
(286,530,cs),
(194,715,l),
(1,715,l),
(243,264,l)
);
}
);
width = 663;
}
);
note = Y;
unicode = 89;
},
{
glyphname = Z;
kernLeft = Zcaron;
kernRight = Zcaron;
layers = (
{
hints = (
{
horizontal = 1;
place = (0, 151);
place = (0, 151);
type = Stem;
},
{
horizontal = 1;
place = (565, 150);
place = (565, 150);
type = Stem;
},
{
place = (26, 595);
place = (26, 595);
type = Stem;
}
);
layerId = m01;
shapes = (
{
closed = 1;
nodes = (
(26,0,l),
(621,0,l),
(621,151,l),
(329,151,ls),
(307,151,o),
(250,149,o),
(250,149,c),
(250,152,l),
(250,152,o),
(291,197,o),
(308,216,cs),
(608,576,l),
(608,715,l),
(51,715,l),
(51,565,l),
(315,565,ls),
(331,565,o),
(383,567,o),
(383,567,c),
(383,564,l),
(383,564,o),
(347,525,o),
(335,511,cs),
(26,141,l)
);
}
);
width = 648;
}
);
note = Z;
unicode = 90;
},
{
glyphname = bracketleft;
kernRight = bracketleft;
layers = (
{
hints = (
{
horizontal = 1;
place = (-138, 125);
place = (-138, 125);
type = Stem;
},
{
horizontal = 1;
place = (629, 125);
place = (629, 125);
type = Stem;
},
{
place = (58, 154);
place = (58, 154);
type = Stem;
}
);
layerId = m01;
shapes = (
{
closed = 1;
nodes = (
(58,-138,l),
(365,-138,l),
(365,-13,l),
(212,-13,l),
(212,629,l),
(365,629,l),
(365,754,l),
(58,754,l)
);
}
);
width = 398;
}
);
note = bracketleft;
unicode = 91;
},
{
glyphname = backslash;
kernLeft = backslash;
kernRight = backslash;
layers = (
{
hints = (
{
horizontal = 1;
place = (0, 21);
target = up;
type = BottomGhost;
},
{
horizontal = 1;
place = (715, -20);
target = down;
type = TopGhost;
},
{
place = (12, 407);
place = (12, 407);
type = Stem;
}
);
layerId = m01;
shapes = (
{
closed = 1;
nodes = (
(279,0,l),
(419,0,l),
(152,715,l),
(12,715,l)
);
}
);
width = 437;
}
);
note = backslash;
unicode = 92;
},
{
glyphname = bracketright;
kernLeft = bracketright;
layers = (
{
hints = (
{
horizontal = 1;
place = (-138, 125);
place = (-138, 125);
type = Stem;
},
{
horizontal = 1;
place = (629, 125);
place = (629, 125);
type = Stem;
},
{
place = (187, 154);
place = (187, 154);
type = Stem;
}
);
layerId = m01;
shapes = (
{
closed = 1;
nodes = (
(34,-138,l),
(341,-138,l),
(341,754,l),
(34,754,l),
(34,629,l),
(187,629,l),
(187,-13,l),
(34,-13,l)
);
}
);
width = 398;
}
);
note = bracketright;
unicode = 93;
},
{
glyphname = asciicircum;
kernLeft = asciicircum;
kernRight = asciicircum;
layers = (
{
hints = (
{
horizontal = 1;
place = (425, 290);
place = (425, 290);
type = Stem;
},
{
place = (6, 454);
place = (6, 454);
type = Stem;
},
{
horizontal = 1;
place = (575, 140);
place = (575, 140);
type = Stem;
}
);
layerId = m01;
shapes = (
{
closed = 1;
nodes = (
(6,425,l),
(147,425,l),
(232,575,l),
(233,575,l),
(315,425,l),
(460,425,l),
(293,715,l),
(173,715,l)
);
}
);
width = 466;
}
);
note = asciicircum;
unicode = 94;
},
{
glyphname = underscore;
layers = (
{
hints = (
{
horizontal = 1;
place = (-169, 101);
place = (-169, 101);
type = Stem;
},
{
place = (-3, 436);
place = (-3, 436);
type = Stem;
}
);
layerId = m01;
shapes = (
{
closed = 1;
nodes = (
(-3,-169,l),
(433,-169,l),
(433,-68,l),
(-3,-68,l)
);
}
);
width = 430;
}
);
note = underscore;
unicode = 95;
},
{
glyphname = grave;
layers = (
{
hints = (
{
horizontal = 1;
place = (572, 148);
place = (572, 148);
type = Stem;
},
{
place = (84, 245);
place = (84, 245);
type = Stem;
}
);
layerId = m01;
shapes = (
{
closed = 1;
nodes = (
(205,572,l),
(329,572,l),
(272,720,l),
(84,720,l)
);
}
);
width = 500;
}
);
note = grave;
unicode = 96;
},
{
glyphname = a;
kernLeft = a;
kernRight = a;
layers = (
{
hints = (
{
horizontal = 1;
place = (-13, 20);
place = (-13, 20);
type = Stem;
},
{
horizontal = 1;
place = (416, 110);
place = (416, 110);
type = Stem;
},
{
place = (15, 157);
place = (15, 157);
type = Stem;
},
{
place = (345, 156);
place = (345, 156);
type = Stem;
},
{
horizontal = 1;
place = (0, 7);
place = (0, 7);
type = Stem;
},
{
horizontal = 1;
place = (350, 176);
place = (350, 176);
type = Stem;
},
{
horizontal = 1;
place = (-13, 104);
place = (-13, 104);
type = Stem;
}
);
layerId = m01;
shapes = (
{
closed = 1;
nodes = (
(267,-13,o),
(312,14,o),
(342,57,c),
(344,57,l),
(348,31,o),
(353,11,o),
(361,0,c),
(519,0,l),
(519,7,l),
(505,16,o),
(501,39,o),
(501,80,cs),
(501,338,ls),
(501,402,o),
(480,452,o),
(436,484,cs),
(399,512,o),
(347,526,o),
(270,526,cs),
(115,526,o),
(42,445,o),
(38,350,c),
(188,350,l),
(193,393,o),
(219,416,o),
(271,416,cs),
(320,416,o),
(341,394,o),
(341,361,cs),
(341,326,o),
(307,316,o),
(211,304,cs),
(105,290,o),
(15,256,o),
(15,143,cs),
(15,42,o),
(88,-13,o),
(190,-13,cs)
);
},
{
closed = 1;
nodes = (
(202,91,o),
(172,107,o),
(172,148,cs),
(172,187,o),
(198,203,o),
(261,217,cs),
(294,225,o),
(324,233,o),
(345,244,c),
(345,183,ls),
(345,128,o),
(303,91,o),
(242,91,cs)
);
}
);
width = 541;
}
);
note = a;
unicode = 97;
},
{
glyphname = b;
kernLeft = b;
kernRight = thorn;
layers = (
{
hints = (
{
horizontal = 1;
place = (-16, 129);
place = (-16, 129);
type = Stem;
},
{
horizontal = 1;
place = (403, 124);
place = (403, 124);
type = Stem;
},
{
horizontal = 1;
place = (715, -20);
target = down;
type = TopGhost;
},
{
place = (39, 163);
place = (39, 163);
type = Stem;
},
{
place = (405, 165);
place = (405, 165);
type = Stem;
},
{
horizontal = 1;
place = (0, 113);
place = (0, 113);
type = Stem;
}
);
layerId = m01;
shapes = (
{
closed = 1;
nodes = (
(484,-16,o),
(570,86,o),
(570,256,cs),
(570,410,o),
(484,527,o),
(351,527,cs),
(281,527,o),
(237,498,o),
(205,454,c),
(202,454,l),
(202,715,l),
(39,715,l),
(39,0,l),
(195,0,l),
(195,65,l),
(197,65,l),
(229,12,o),
(284,-16,o),
(352,-16,cs)
);
},
{
closed = 1;
nodes = (
(239,113,o),
(197,171,o),
(197,256,cs),
(197,340,o),
(232,403,o),
(304,403,cs),
(370,403,o),
(405,345,o),
(405,257,cs),
(405,168,o),
(370,113,o),
(306,113,cs)
);
}
);
width = 586;
}
);
note = b;
unicode = 98;
},
{
glyphname = c;
kernLeft = c;
kernRight = c;
layers = (
{
hints = (
{
horizontal = 1;
place = (-16, 122);
place = (-16, 122);
type = Stem;
},
{
horizontal = 1;
place = (406, 120);
place = (406, 120);
type = Stem;
},
{
place = (16, 165);
place = (16, 165);
type = Stem;
}
);
layerId = m01;
shapes = (
{
closed = 1;
nodes = (
(433,-16,o),
(527,76,o),
(531,194,c),
(375,194,l),
(368,136,o),
(337,106,o),
(286,106,cs),
(216,106,o),
(181,164,o),
(181,255,cs),
(181,348,o),
(216,406,o),
(286,406,cs),
(332,406,o),
(360,376,o),
(370,330,c),
(527,330,l),
(512,445,o),
(423,526,o),
(284,526,cs),
(122,526,o),
(16,409,o),
(16,255,cs),
(16,101,o),
(123,-16,o),
(288,-16,cs)
);
}
);
width = 544;
}
);
note = c;
unicode = 99;
},
{
glyphname = d;
kernLeft = d;
kernRight = d;
layers = (
{
hints = (
{
horizontal = 1;
place = (-16, 129);
place = (-16, 129);
type = Stem;
},
{
horizontal = 1;
place = (404, 123);
place = (404, 123);
type = Stem;
},
{
horizontal = 1;
place = (715, -20);
target = down;
type = TopGhost;
},
{
place = (16, 165);
place = (16, 165);
type = Stem;
},
{
place = (386, 163);
place = (386, 163);
type = Stem;
},
{
horizontal = 1;
place = (0, 113);
place = (0, 113);
type = Stem;
}
);
layerId = m01;
shapes = (
{
closed = 1;
nodes = (
(307,-16,o),
(360,16,o),
(391,69,c),
(393,69,l),
(393,0,l),
(549,0,l),
(549,715,l),
(386,715,l),
(386,454,l),
(383,454,l),
(353,497,o),
(312,527,o),
(240,527,cs),
(108,527,o),
(16,416,o),
(16,256,cs),
(16,85,o),
(109,-16,o),
(240,-16,cs)
);
},
{
closed = 1;
nodes = (
(219,113,o),
(181,169,o),
(181,258,cs),
(181,344,o),
(219,404,o),
(284,404,cs),
(355,404,o),
(390,342,o),
(390,256,cs),
(390,172,o),
(350,113,o),
(282,113,cs)
);
}
);
width = 588;
}
);
note = d;
unicode = 100;
},
{
glyphname = e;
kernLeft = c;
kernRight = e;
layers = (
{
hints = (
{
horizontal = 1;
place = (-15, 117);
place = (-15, 117);
type = Stem;
},
{
horizontal = 1;
place = (214, 97);
place = (214, 97);
type = Stem;
},
{
horizontal = 1;
place = (411, 116);
place = (411, 116);
type = Stem;
},
{
place = (16, 528);
place = (16, 528);
type = Stem;
}
);
layerId = m01;
shapes = (
{
closed = 1;
nodes = (
(354,-15,o),
(406,2,o),
(449,32,cs),
(494,63,o),
(524,107,o),
(535,153,c),
(376,153,l),
(362,121,o),
(334,102,o),
(291,102,cs),
(224,102,o),
(186,145,o),
(176,214,c),
(544,214,l),
(545,318,o),
(515,407,o),
(454,463,cs),
(410,503,o),
(352,527,o),
(279,527,cs),
(123,527,o),
(16,410,o),
(16,257,cs),
(16,102,o),
(120,-15,o),
(289,-15,cs)
);
},
{
closed = 1;
nodes = (
(177,311,l),
(188,372,o),
(220,411,o),
(282,411,cs),
(335,411,o),
(373,372,o),
(379,311,c)
);
}
);
width = 560;
}
);
note = e;
unicode = 101;
},
{
glyphname = f;
kernLeft = f;
kernRight = f;
layers = (
{
hints = (
{
horizontal = 1;
place = (0, 21);
target = up;
type = BottomGhost;
},
{
horizontal = 1;
place = (408, 104);
place = (408, 104);
type = Stem;
},
{
horizontal = 1;
place = (597, 118);
place = (597, 118);
type = Stem;
},
{
place = (77, 163);
place = (77, 163);
type = Stem;
},
{
horizontal = 1;
place = (597, 115);
place = (597, 115);
type = Stem;
}
);
layerId = m01;
shapes = (
{
closed = 1;
nodes = (
(77,0,l),
(240,0,l),
(240,408,l),
(336,408,l),
(336,512,l),
(240,512,l),
(240,537,ls),
(240,594,o),
(274,599,o),
(336,597,c),
(336,712,l),
(248,721,o),
(163,711,o),
(119,668,cs),
(92,641,o),
(77,602,o),
(77,549,cs),
(77,512,l),
(11,512,l),
(11,408,l),
(77,408,l)
);
}
);
width = 349;
}
);
note = f;
unicode = 102;
},
{
glyphname = g;
kernLeft = g;
kernRight = g;
layers = (
{
hints = (
{
horizontal = 1;
place = (-177, 115);
place = (-177, 115);
type = Stem;
},
{
horizontal = 1;
place = (28, 121);
place = (28, 121);
type = Stem;
},
{
horizontal = 1;
place = (404, 123);
place = (404, 123);
type = Stem;
},
{
place = (16, 159);
place = (16, 159);
type = Stem;
},
{
place = (373, 160);
place = (373, 160);
type = Stem;
},
{
horizontal = 1;
place = (404, 108);
place = (404, 108);
type = Stem;
},
{
horizontal = 1;
place = (-177, 165);
place = (-177, 165);
type = Stem;
}
);
layerId = m01;
shapes = (
{
closed = 1;
nodes = (
(353,-177,o),
(420,-160,o),
(465,-120,cs),
(506,-83,o),
(533,-27,o),
(533,50,cs),
(533,512,l),
(377,512,l),
(377,457,l),
(375,457,l),
(345,500,o),
(299,527,o),
(231,527,cs),
(104,527,o),
(16,421,o),
(16,271,cs),
(16,114,o),
(123,28,o),
(238,28,cs),
(300,28,o),
(339,53,o),
(369,87,c),
(373,87,l),
(373,36,ls),
(373,-26,o),
(344,-62,o),
(275,-62,cs),
(221,-62,o),
(194,-39,o),
(185,-12,c),
(27,-12,l),
(43,-119,o),
(136,-177,o),
(277,-177,cs)
);
},
{
closed = 1;
nodes = (
(215,149,o),
(175,199,o),
(175,276,cs),
(175,354,o),
(215,404,o),
(276,404,cs),
(344,404,o),
(380,346,o),
(380,277,cs),
(380,205,o),
(347,149,o),
(276,149,cs)
);
}
);
width = 572;
}
);
note = g;
unicode = 103;
},
{
glyphname = h;
kernLeft = b;
kernRight = h;
layers = (
{
hints = (
{
horizontal = 1;
place = (0, 21);
target = up;
type = BottomGhost;
},
{
horizontal = 1;
place = (391, 136);
place = (391, 136);
type = Stem;
},
{
horizontal = 1;
place = (715, -20);
target = down;
type = TopGhost;
},
{
place = (39, 163);
place = (39, 163);
type = Stem;
},
{
place = (372, 163);
place = (372, 163);
type = Stem;
}
);
layerId = m01;
shapes = (
{
closed = 1;
nodes = (
(39,0,l),
(202,0,l),
(202,283,ls),
(202,346,o),
(238,391,o),
(292,391,cs),
(345,391,o),
(372,354,o),
(372,300,cs),
(372,0,l),
(535,0,l),
(535,333,ls),
(535,447,o),
(469,527,o),
(357,527,cs),
(286,527,o),
(242,498,o),
(205,449,c),
(202,449,l),
(202,715,l),
(39,715,l)
);
}
);
width = 570;
}
);
note = h;
unicode = 104;
},
{
glyphname = i;
kernLeft = b;
kernRight = d;
layers = (
{
hints = (
{
horizontal = 1;
place = (0, 21);
target = up;
type = BottomGhost;
},
{
horizontal = 1;
place = (512, -20);
target = down;
type = TopGhost;
},
{
horizontal = 1;
place = (583, 132);
place = (583, 132);
type = Stem;
},
{
place = (39, 163);
place = (39, 163);
type = Stem;
}
);
layerId = m01;
shapes = (
{
closed = 1;
nodes = (
(39,0,l),
(202,0,l),
(202,512,l),
(39,512,l)
);
},
{
closed = 1;
nodes = (
(39,583,l),
(202,583,l),
(202,715,l),
(39,715,l)
);
}
);
width = 241;
}
);
note = i;
unicode = 105;
},
{
glyphname = j;
kernLeft = j;
kernRight = j;
layers = (
{
hints = (
{
horizontal = 1;
place = (-172, 121);
place = (-172, 121);
type = Stem;
},
{
horizontal = 1;
place = (512, -20);
target = down;
type = TopGhost;
},
{
horizontal = 1;
place = (583, 132);
place = (583, 132);
type = Stem;
},
{
place = (39, 163);
place = (39, 163);
type = Stem;
}
);
layerId = m01;
shapes = (
{
closed = 1;
nodes = (
(94,-172,o),
(134,-161,o),
(163,-132,cs),
(187,-107,o),
(202,-72,o),
(202,-4,cs),
(202,512,l),
(39,512,l),
(39,4,ls),
(39,-51,o),
(10,-51,o),
(-47,-51,c),
(-47,-164,l),
(-22,-169,o),
(17,-172,o),
(45,-172,cs)
);
},
{
closed = 1;
nodes = (
(39,583,l),
(202,583,l),
(202,715,l),
(39,715,l)
);
}
);
width = 241;
}
);
note = j;
unicode = 106;
},
{
glyphname = k;
kernLeft = b;
kernRight = k;
layers = (
{
hints = (
{
horizontal = 1;
place = (0, 21);
target = up;
type = BottomGhost;
},
{
horizontal = 1;
place = (512, -20);
target = down;
type = TopGhost;
},
{
horizontal = 1;
place = (715, -20);
target = down;
type = TopGhost;
},
{
place = (39, 161);
place = (39, 161);
type = Stem;
}
);
layerId = m01;
shapes = (
{
closed = 1;
nodes = (
(39,0,l),
(200,0,l),
(200,157,l),
(249,209,l),
(372,0,l),
(561,0,l),
(360,320,l),
(540,512,l),
(352,512,l),
(200,339,l),
(200,715,l),
(39,715,l)
);
}
);
width = 560;
}
);
note = k;
unicode = 107;
},
{
glyphname = l;
kernLeft = b;
kernRight = d;
layers = (
{
hints = (
{
horizontal = 1;
place = (0, 21);
target = up;
type = BottomGhost;
},
{
horizontal = 1;
place = (715, -20);
target = down;
type = TopGhost;
},
{
place = (40, 165);
place = (40, 165);
type = Stem;
}
);
layerId = m01;
shapes = (
{
closed = 1;
nodes = (
(40,0,l),
(205,0,l),
(205,715,l),
(40,715,l)
);
}
);
width = 245;
}
);
note = l;
unicode = 108;
},
{
glyphname = m;
kernLeft = m;
kernRight = h;
layers = (
{
hints = (
{
horizontal = 1;
place = (0, 21);
target = up;
type = BottomGhost;
},
{
horizontal = 1;
place = (391, 136);
place = (391, 136);
type = Stem;
},
{
place = (39, 163);
place = (39, 163);
type = Stem;
},
{
place = (355, 163);
place = (355, 163);
type = Stem;
},
{
place = (671, 163);
place = (671, 163);
type = Stem;
},
{
horizontal = 1;
place = (391, 121);
place = (391, 121);
type = Stem;
}
);
layerId = m01;
shapes = (
{
closed = 1;
nodes = (
(39,0,l),
(202,0,l),
(202,287,ls),
(202,348,o),
(232,391,o),
(283,391,cs),
(332,391,o),
(355,359,o),
(355,304,cs),
(355,0,l),
(518,0,l),
(518,287,ls),
(518,348,o),
(547,391,o),
(599,391,cs),
(648,391,o),
(671,359,o),
(671,304,cs),
(671,0,l),
(834,0,l),
(834,333,ls),
(834,448,o),
(776,527,o),
(660,527,cs),
(594,527,o),
(539,499,o),
(499,437,c),
(497,437,l),
(471,492,o),
(420,527,o),
(353,527,cs),
(279,527,o),
(230,492,o),
(198,439,c),
(195,439,l),
(195,512,l),
(39,512,l)
);
}
);
width = 869;
}
);
note = m;
unicode = 109;
},
{
glyphname = n;
kernLeft = m;
kernRight = h;
layers = (
{
hints = (
{
horizontal = 1;
place = (0, 21);
target = up;
type = BottomGhost;
},
{
horizontal = 1;
place = (391, 136);
place = (391, 136);
type = Stem;
},
{
place = (39, 163);
place = (39, 163);
type = Stem;
},
{
place = (372, 163);
place = (372, 163);
type = Stem;
},
{
horizontal = 1;
place = (391, 121);
place = (391, 121);
type = Stem;
}
);
layerId = m01;
shapes = (
{
closed = 1;
nodes = (
(39,0,l),
(202,0,l),
(202,283,ls),
(202,346,o),
(238,391,o),
(292,391,cs),
(345,391,o),
(372,354,o),
(372,300,cs),
(372,0,l),
(535,0,l),
(535,333,ls),
(535,447,o),
(469,527,o),
(357,527,cs),
(286,527,o),
(237,497,o),
(199,442,c),
(196,442,l),
(196,512,l),
(39,512,l)
);
}
);
width = 570;
}
);
note = n;
unicode = 110;
},
{
glyphname = o;
kernLeft = c;
kernRight = o;
layers = (
{
hints = (
{
horizontal = 1;
place = (-16, 116);
place = (-16, 116);
type = Stem;
},
{
horizontal = 1;
place = (411, 115);
place = (411, 115);
type = Stem;
},
{
place = (16, 165);
place = (16, 165);
type = Stem;
},
{
place = (398, 165);
place = (398, 165);
type = Stem;
}
);
layerId = m01;
shapes = (
{
closed = 1;
nodes = (
(218,100,o),
(181,162,o),
(181,255,cs),
(181,348,o),
(218,411,o),
(289,411,cs),
(360,411,o),
(398,348,o),
(398,255,cs),
(398,162,o),
(360,100,o),
(289,100,cs)
);
},
{
closed = 1;
nodes = (
(455,-16,o),
(563,101,o),
(563,255,cs),
(563,409,o),
(455,526,o),
(290,526,cs),
(126,526,o),
(16,409,o),
(16,255,cs),
(16,101,o),
(126,-16,o),
(290,-16,cs)
);
}
);
width = 579;
}
);
note = o;
unicode = 111;
},
{
glyphname = p;
kernLeft = p;
kernRight = thorn;
layers = (
{
hints = (
{
horizontal = 1;
place = (-169, 21);
target = up;
type = BottomGhost;
},
{
horizontal = 1;
place = (-16, 126);
place = (-16, 126);
type = Stem;
},
{
horizontal = 1;
place = (396, 131);
place = (396, 131);
type = Stem;
},
{
place = (39, 163);
place = (39, 163);
type = Stem;
},
{
place = (407, 165);
place = (407, 165);
type = Stem;
},
{
horizontal = 1;
place = (396, 116);
place = (396, 116);
type = Stem;
}
);
layerId = m01;
shapes = (
{
closed = 1;
nodes = (
(39,-169,l),
(202,-169,l),
(202,53,l),
(204,53,l),
(236,10,o),
(283,-16,o),
(349,-16,cs),
(483,-16,o),
(572,90,o),
(572,256,cs),
(572,410,o),
(489,527,o),
(353,527,cs),
(283,527,o),
(233,496,o),
(198,450,c),
(195,450,l),
(195,512,l),
(39,512,l)
);
},
{
closed = 1;
nodes = (
(237,110,o),
(197,167,o),
(197,250,cs),
(197,333,o),
(233,396,o),
(304,396,cs),
(374,396,o),
(407,338,o),
(407,250,cs),
(407,163,o),
(369,110,o),
(307,110,cs)
);
}
);
width = 588;
}
);
note = p;
unicode = 112;
},
{
glyphname = q;
kernLeft = d;
kernRight = q;
layers = (
{
hints = (
{
horizontal = 1;
place = (-169, 21);
target = up;
type = BottomGhost;
},
{
horizontal = 1;
place = (-16, 129);
place = (-16, 129);
type = Stem;
},
{
horizontal = 1;
place = (399, 128);
place = (399, 128);
type = Stem;
},
{
place = (20, 165);
place = (20, 165);
type = Stem;
},
{
place = (387, 162);
place = (387, 162);
type = Stem;
},
{
horizontal = 1;
place = (399, 113);
place = (399, 113);
type = Stem;
}
);
layerId = m01;
shapes = (
{
closed = 1;
nodes = (
(387,-169,l),
(549,-169,l),
(549,512,l),
(394,512,l),
(394,447,l),
(391,447,l),
(358,499,o),
(311,527,o),
(245,527,cs),
(102,527,o),
(20,410,o),
(20,256,cs),
(20,90,o),
(113,-16,o),
(242,-16,cs),
(308,-16,o),
(355,12,o),
(384,54,c),
(387,54,l)
);
},
{
closed = 1;
nodes = (
(222,113,o),
(185,164,o),
(185,252,cs),
(185,339,o),
(216,399,o),
(286,399,cs),
(356,399,o),
(392,335,o),
(392,252,cs),
(392,168,o),
(351,113,o),
(286,113,cs)
);
}
);
width = 588;
}
);
note = q;
unicode = 113;
},
{
glyphname = r;
kernLeft = m;
kernRight = r;
layers = (
{
hints = (
{
horizontal = 1;
place = (0, 21);
target = up;
type = BottomGhost;
},
{
horizontal = 1;
place = (520, -20);
target = down;
type = TopGhost;
},
{
place = (39, 163);
place = (39, 163);
type = Stem;
},
{
horizontal = 1;
place = (516, -20);
target = down;
type = TopGhost;
},
{
horizontal = 1;
place = (512, -20);
target = down;
type = TopGhost;
}
);
layerId = m01;
shapes = (
{
closed = 1;
nodes = (
(39,0,l),
(202,0,l),
(202,230,ls),
(202,341,o),
(266,390,o),
(366,376,c),
(370,376,l),
(370,516,l),
(363,519,o),
(353,520,o),
(338,520,cs),
(276,520,o),
(234,493,o),
(198,432,c),
(195,432,l),
(195,512,l),
(39,512,l)
);
}
);
width = 383;
}
);
note = r;
unicode = 114;
},
{
glyphname = s;
kernLeft = scaron;
kernRight = scaron;
layers = (
{
hints = (
{
horizontal = 1;
place = (-16, 106);
place = (-16, 106);
type = Stem;
},
{
horizontal = 1;
place = (423, 104);
place = (423, 104);
type = Stem;
},
{
place = (22, 149);
place = (22, 149);
type = Stem;
},
{
place = (336, 154);
place = (336, 154);
type = Stem;
},
{
horizontal = 1;
place = (363, 164);
place = (363, 164);
type = Stem;
}
);
layerId = m01;
shapes = (
{
closed = 1;
nodes = (
(391,-16,o),
(490,42,o),
(490,154,cs),
(490,285,o),
(384,308,o),
(294,323,cs),
(229,335,o),
(171,340,o),
(171,376,cs),
(171,408,o),
(202,423,o),
(242,423,cs),
(287,423,o),
(318,409,o),
(324,363,c),
(474,363,l),
(466,464,o),
(388,527,o),
(243,527,cs),
(122,527,o),
(22,471,o),
(22,363,cs),
(22,243,o),
(117,219,o),
(206,204,cs),
(274,192,o),
(336,187,o),
(336,141,cs),
(336,108,o),
(305,90,o),
(256,90,cs),
(202,90,o),
(168,115,o),
(162,166,c),
(8,166,l),
(13,53,o),
(107,-16,o),
(257,-16,cs)
);
}
);
width = 504;
}
);
note = s;
unicode = 115;
},
{
glyphname = t;
kernLeft = t;
kernRight = t;
layers = (
{
hints = (
{
horizontal = 1;
place = (-6, 126);
place = (-6, 126);
type = Stem;
},
{
horizontal = 1;
place = (410, 102);
place = (410, 102);
type = Stem;
},
{
place = (79, 159);
place = (79, 159);
type = Stem;
}
);
layerId = m01;
shapes = (
{
closed = 1;
nodes = (
(286,-6,o),
(317,-2,o),
(331,2,c),
(331,121,l),
(325,121,o),
(309,120,o),
(295,120,cs),
(260,120,o),
(238,130,o),
(238,170,cs),
(238,410,l),
(331,410,l),
(331,512,l),
(238,512,l),
(238,674,l),
(79,674,l),
(79,512,l),
(11,512,l),
(11,410,l),
(79,410,l),
(79,135,ls),
(79,25,o),
(147,-6,o),
(242,-6,cs)
);
}
);
width = 351;
}
);
note = t;
unicode = 116;
},
{
glyphname = u;
kernLeft = u;
kernRight = u;
layers = (
{
hints = (
{
horizontal = 1;
place = (-15, 138);
place = (-15, 138);
type = Stem;
},
{
horizontal = 1;
place = (512, -20);
target = down;
type = TopGhost;
},
{
place = (35, 162);
place = (35, 162);
type = Stem;
},
{
place = (364, 163);
place = (364, 163);
type = Stem;
},
{
horizontal = 1;
place = (0, 123);
place = (0, 123);
type = Stem;
}
);
layerId = m01;
shapes = (
{
closed = 1;
nodes = (
(286,-15,o),
(331,13,o),
(368,63,c),
(371,63,l),
(371,0,l),
(527,0,l),
(527,512,l),
(364,512,l),
(364,226,ls),
(364,165,o),
(330,123,o),
(274,123,cs),
(222,123,o),
(197,154,o),
(197,210,cs),
(197,512,l),
(35,512,l),
(35,176,ls),
(35,62,o),
(97,-15,o),
(215,-15,cs)
);
}
);
width = 566;
}
);
note = u;
unicode = 117;
},
{
glyphname = v;
kernLeft = v;
kernRight = v;
layers = (
{
hints = (
{
horizontal = 1;
place = (0, 21);
target = up;
type = BottomGhost;
},
{
horizontal = 1;
place = (512, -20);
target = down;
type = TopGhost;
},
{
place = (-3, 530);
place = (-3, 530);
type = Stem;
}
);
layerId = m01;
shapes = (
{
closed = 1;
nodes = (
(174,0,l),
(350,0,l),
(527,512,l),
(364,512,l),
(293,281,ls),
(278,230,o),
(265,178,o),
(265,178,c),
(263,178,l),
(263,178,o),
(250,230,o),
(235,281,cs),
(165,512,l),
(-3,512,l)
);
}
);
width = 524;
}
);
note = v;
unicode = 118;
},
{
glyphname = w;
kernLeft = w;
kernRight = w;
layers = (
{
hints = (
{
horizontal = 1;
place = (0, 21);
target = up;
type = BottomGhost;
},
{
horizontal = 1;
place = (512, -20);
target = down;
type = TopGhost;
},
{
place = (-2, 786);
place = (-2, 786);
type = Stem;
}
);
layerId = m01;
shapes = (
{
closed = 1;
nodes = (
(155,0,l),
(306,0,l),
(367,232,ls),
(378,272,o),
(390,324,o),
(390,324,c),
(392,324,l),
(392,324,o),
(403,272,o),
(414,232,cs),
(474,0,l),
(627,0,l),
(784,512,l),
(623,512,l),
(566,300,ls),
(555,259,o),
(542,200,o),
(542,200,c),
(540,200,l),
(540,200,o),
(527,259,o),
(516,303,cs),
(460,512,l),
(322,512,l),
(268,303,ls),
(257,260,o),
(245,201,o),
(245,201,c),
(243,201,l),
(243,201,o),
(231,259,o),
(220,300,cs),
(164,512,l),
(-2,512,l)
);
}
);
width = 783;
}
);
note = w;
unicode = 119;
},
{
glyphname = x;
kernLeft = x;
kernRight = x;
layers = (
{
hints = (
{
horizontal = 1;
place = (0, 21);
target = up;
type = BottomGhost;
},
{
horizontal = 1;
place = (512, -20);
target = down;
type = TopGhost;
},
{
place = (7, 546);
place = (7, 546);
type = Stem;
}
);
layerId = m01;
shapes = (
{
closed = 1;
nodes = (
(7,0,l),
(185,0,l),
(278,153,l),
(280,153,l),
(364,0,l),
(553,0,l),
(379,271,l),
(531,512,l),
(360,512,l),
(288,380,l),
(286,380,l),
(210,512,l),
(24,512,l),
(185,269,l)
);
}
);
width = 560;
}
);
note = x;
unicode = 120;
},
{
glyphname = y;
kernLeft = yacute;
kernRight = yacute;
layers = (
{
hints = (
{
horizontal = 1;
place = (-169, 127);
place = (-169, 127);
type = Stem;
},
{
horizontal = 1;
place = (512, -20);
target = down;
type = TopGhost;
},
{
place = (-3, 535);
place = (-3, 535);
type = Stem;
}
);
layerId = m01;
shapes = (
{
closed = 1;
nodes = (
(56,-169,l),
(162,-169,ls),
(265,-169,o),
(314,-127,o),
(355,-7,cs),
(532,512,l),
(369,512,l),
(302,294,ls),
(286,244,o),
(272,176,o),
(272,176,c),
(270,176,l),
(270,176,o),
(254,244,o),
(238,294,cs),
(169,512,l),
(-3,512,l),
(148,118,ls),
(169,64,o),
(179,34,o),
(179,12,cs),
(179,-23,o),
(160,-42,o),
(112,-42,cs),
(56,-42,l)
);
}
);
width = 529;
}
);
note = y;
unicode = 121;
},
{
glyphname = z;
kernLeft = zcaron;
kernRight = zcaron;
layers = (
{
hints = (
{
horizontal = 1;
place = (0, 126);
place = (0, 126);
type = Stem;
},
{
horizontal = 1;
place = (387, 125);
place = (387, 125);
type = Stem;
},
{
place = (24, 459);
place = (24, 459);
type = Stem;
}
);
layerId = m01;
shapes = (
{
closed = 1;
nodes = (
(24,0,l),
(483,0,l),
(483,126,l),
(298,126,ls),
(275,126,o),
(222,125,o),
(222,125,c),
(222,128,l),
(222,128,o),
(259,166,o),
(274,181,cs),
(468,392,l),
(468,512,l),
(48,512,l),
(48,387,l),
(208,387,ls),
(224,387,o),
(271,388,o),
(271,388,c),
(271,385,l),
(271,385,o),
(240,353,o),
(227,340,cs),
(24,121,l)
);
}
);
width = 505;
}
);
note = z;
unicode = 122;
},
{
glyphname = braceleft;
kernRight = bracketleft;
layers = (
{
hints = (
{
horizontal = 1;
place = (-138, 125);
place = (-138, 125);
type = Stem;
},
{
horizontal = 1;
place = (249, 120);
place = (249, 120);
type = Stem;
},
{
horizontal = 1;
place = (629, 125);
place = (629, 125);
type = Stem;
},
{
place = (109, 154);
place = (109, 154);
type = Stem;
},
{
place = (25, 173);
place = (25, 173);
type = Stem;
}
);
layerId = m01;
shapes = (
{
closed = 1;
nodes = (
(365,-138,l),
(365,-13,l),
(347,-13,ls),
(289,-13,o),
(263,-1,o),
(263,55,cs),
(263,201,ls),
(263,266,o),
(241,291,o),
(198,308,c),
(198,311,l),
(241,328,o),
(263,353,o),
(263,419,cs),
(263,562,ls),
(263,619,o),
(289,629,o),
(347,629,cs),
(365,629,l),
(365,754,l),
(340,754,ls),
(184,754,o),
(109,714,o),
(109,562,cs),
(109,444,ls),
(109,396,o),
(87,372,o),
(25,369,c),
(25,249,l),
(87,247,o),
(109,223,o),
(109,174,cs),
(109,56,ls),
(109,-97,o),
(184,-138,o),
(340,-138,cs)
);
}
);
width = 398;
}
);
note = braceleft;
unicode = 123;
},
{
glyphname = bar;
layers = (
{
hints = (
{
horizontal = 1;
place = (-138, 892);
place = (-138, 892);
type = Stem;
},
{
place = (58, 99);
place = (58, 99);
type = Stem;
}
);
layerId = m01;
shapes = (
{
closed = 1;
nodes = (
(58,-138,l),
(157,-138,l),
(157,754,l),
(58,754,l)
);
}
);
width = 214;
}
);
note = bar;
unicode = 124;
},
{
glyphname = braceright;
kernLeft = bracketright;
layers = (
{
hints = (
{
horizontal = 1;
place = (-138, 125);
place = (-138, 125);
type = Stem;
},
{
horizontal = 1;
place = (249, 120);
place = (249, 120);
type = Stem;
},
{
horizontal = 1;
place = (629, 125);
place = (629, 125);
type = Stem;
},
{
place = (136, 154);
place = (136, 154);
type = Stem;
},
{
place = (201, 172);
place = (201, 172);
type = Stem;
}
);
layerId = m01;
shapes = (
{
closed = 1;
nodes = (
(34,-138,l),
(59,-138,ls),
(214,-138,o),
(290,-97,o),
(290,55,cs),
(290,174,ls),
(290,223,o),
(312,246,o),
(373,249,c),
(373,369,l),
(312,372,o),
(290,395,o),
(290,444,cs),
(290,561,ls),
(290,713,o),
(214,754,o),
(59,754,cs),
(34,754,l),
(34,629,l),
(52,629,ls),
(109,629,o),
(136,617,o),
(136,561,cs),
(136,418,ls),
(136,352,o),
(157,328,o),
(201,310,c),
(201,307,l),
(157,290,o),
(136,265,o),
(136,200,cs),
(136,54,ls),
(136,-3,o),
(109,-13,o),
(52,-13,cs),
(34,-13,l)
);
}
);
width = 398;
}
);
note = braceright;
unicode = 125;
},
{
glyphname = asciitilde;
layers = (
{
hints = (
{
horizontal = 1;
place = (244, 170);
place = (244, 170);
type = Stem;
},
{
place = (24, 102);
place = (24, 102);
type = Stem;
},
{
place = (324, 102);
place = (324, 102);
type = Stem;
}
);
layerId = m01;
shapes = (
{
closed = 1;
nodes = (
(126,239,l),
(129,269,o),
(141,284,o),
(163,284,cs),
(181,284,o),
(198,276,o),
(226,263,cs),
(250,253,o),
(275,244,o),
(308,244,cs),
(386,244,o),
(426,308,o),
(426,414,c),
(324,414,l),
(322,386,o),
(313,372,o),
(288,372,cs),
(270,372,o),
(255,380,o),
(229,393,cs),
(205,404,o),
(181,414,o),
(149,414,cs),
(80,414,o),
(24,360,o),
(24,239,c)
);
}
);
width = 443;
}
);
note = asciitilde;
unicode = 126;
},
{
glyphname = Adieresis;
kernLeft = A;
kernRight = A;
layers = (
{
hints = (
{
horizontal = 1;
place = (0, 21);
target = up;
type = BottomGhost;
},
{
horizontal = 1;
place = (129, 127);
place = (129, 127);
type = Stem;
},
{
horizontal = 1;
place = (715, -20);
target = down;
type = TopGhost;
},
{
horizontal = 1;
place = (753, 128);
place = (753, 128);
type = Stem;
},
{
place = (163, 153);
place = (163, 153);
type = Stem;
},
{
place = (378, 153);
place = (378, 153);
type = Stem;
}
);
layerId = m01;
shapes = (
{
closed = 1;
nodes = (
(-1,0,l),
(177,0,l),
(218,129,l),
(468,129,l),
(510,0,l),
(696,0,l),
(438,715,l),
(256,715,l)
);
},
{
closed = 1;
nodes = (
(259,256,l),
(314,429,ls),
(326,466,o),
(343,530,o),
(343,530,c),
(345,530,l),
(345,530,o),
(361,466,o),
(373,429,cs),
(427,256,l)
);
},
{
closed = 1;
nodes = (
(163,753,l),
(316,753,l),
(316,881,l),
(163,881,l)
);
},
{
closed = 1;
nodes = (
(378,753,l),
(531,753,l),
(531,881,l),
(378,881,l)
);
}
);
width = 697;
}
);
note = Adieresis;
unicode = 196;
},
{
glyphname = Aring;
kernLeft = A;
kernRight = A;
layers = (
{
hints = (
{
horizontal = 1;
place = (0, 21);
target = up;
type = BottomGhost;
},
{
horizontal = 1;
place = (129, 127);
place = (129, 127);
type = Stem;
},
{
horizontal = 1;
place = (715, -20);
target = down;
type = TopGhost;
},
{
horizontal = 1;
place = (880, 55);
place = (880, 55);
type = Stem;
},
{
place = (245, 61);
place = (245, 61);
type = Stem;
},
{
place = (389, 60);
place = (389, 60);
type = Stem;
},
{
horizontal = 1;
place = (739, 55);
place = (739, 55);
type = Stem;
}
);
layerId = m01;
shapes = (
{
closed = 1;
nodes = (
(-1,0,l),
(177,0,l),
(218,129,l),
(468,129,l),
(510,0,l),
(696,0,l),
(438,715,l),
(256,715,l)
);
},
{
closed = 1;
nodes = (
(259,256,l),
(314,429,ls),
(326,466,o),
(343,530,o),
(343,530,c),
(345,530,l),
(345,530,o),
(361,466,o),
(373,429,cs),
(427,256,l)
);
},
{
closed = 1;
nodes = (
(323,794,o),
(306,814,o),
(306,837,cs),
(306,860,o),
(323,880,o),
(347,880,cs),
(372,880,o),
(389,860,o),
(389,837,cs),
(389,814,o),
(372,794,o),
(347,794,cs)
);
},
{
closed = 1;
nodes = (
(403,739,o),
(449,781,o),
(449,837,cs),
(449,892,o),
(403,935,o),
(347,935,cs),
(292,935,o),
(245,892,o),
(245,837,cs),
(245,781,o),
(292,739,o),
(347,739,cs)
);
}
);
width = 697;
}
);
note = Aring;
unicode = 197;
},
{
glyphname = Ccedilla;
kernLeft = C;
kernRight = C;
layers = (
{
hints = (
{
horizontal = 1;
place = (-193, 49);
place = (-193, 49);
type = Stem;
},
{
horizontal = 1;
place = (-88, 39);
place = (-88, 39);
type = Stem;
},
{
horizontal = 1;
place = (-14, 21);
target = up;
type = BottomGhost;
},
{
horizontal = 1;
place = (582, 147);
place = (582, 147);
type = Stem;
},
{
place = (20, 180);
place = (20, 180);
type = Stem;
},
{
place = (371, 94);
place = (371, 94);
type = Stem;
},
{
horizontal = 1;
place = (-14, 143);
place = (-14, 143);
type = Stem;
}
);
layerId = m01;
shapes = (
{
closed = 1;
nodes = (
(411,-193,o),
(465,-164,o),
(465,-116,cs),
(465,-64,o),
(416,-43,o),
(359,-49,c),
(359,-47,l),
(396,-15,l),
(485,-11,o),
(551,16,o),
(602,65,cs),
(651,112,o),
(683,177,o),
(688,248,c),
(511,248,l),
(503,179,o),
(451,129,o),
(372,129,cs),
(266,129,o),
(200,224,o),
(200,355,cs),
(200,485,o),
(255,582,o),
(371,582,cs),
(447,582,o),
(497,533,o),
(506,469,c),
(683,469,l),
(674,549,o),
(638,619,o),
(576,666,cs),
(525,705,o),
(455,729,o),
(372,729,cs),
(159,729,o),
(20,568,o),
(20,355,cs),
(20,153,o),
(147,2,o),
(337,-14,c),
(281,-71,l),
(298,-95,l),
(309,-91,o),
(320,-88,o),
(333,-88,cs),
(354,-88,o),
(371,-96,o),
(371,-115,cs),
(371,-136,o),
(345,-144,o),
(317,-144,cs),
(293,-144,o),
(267,-138,o),
(248,-129,c),
(228,-164,l),
(256,-181,o),
(293,-193,o),
(340,-193,cs)
);
}
);
width = 702;
}
);
note = Ccedilla;
unicode = 199;
},
{
glyphname = Eacute;
kernRight = E;
layers = (
{
hints = (
{
horizontal = 1;
place = (0, 150);
place = (0, 150);
type = Stem;
},
{
horizontal = 1;
place = (303, 138);
place = (303, 138);
type = Stem;
},
{
horizontal = 1;
place = (569, 146);
place = (569, 146);
type = Stem;
},
{
horizontal = 1;
place = (750, 130);
place = (750, 130);
type = Stem;
},
{
place = (49, 177);
place = (49, 177);
type = Stem;
}
);
layerId = m01;
shapes = (
{
closed = 1;
nodes = (
(263,750,l),
(387,750,l),
(493,880,l),
(306,880,l)
);
},
{
closed = 1;
nodes = (
(49,0,l),
(597,0,l),
(597,150,l),
(226,150,l),
(226,303,l),
(539,303,l),
(539,441,l),
(226,441,l),
(226,569,l),
(591,569,l),
(591,715,l),
(49,715,l)
);
}
);
width = 628;
}
);
note = Eacute;
unicode = 201;
},
{
glyphname = Ntilde;
kernRight = H;
layers = (
{
hints = (
{
horizontal = 1;
place = (0, 21);
target = up;
type = BottomGhost;
},
{
horizontal = 1;
place = (715, -20);
target = down;
type = TopGhost;
},
{
place = (49, 173);
place = (49, 173);
type = Stem;
},
{
place = (296, 132);
place = (296, 132);
type = Stem;
},
{
place = (488, 173);
place = (488, 173);
type = Stem;
}
);
layerId = m01;
shapes = (
{
closed = 1;
nodes = (
(49,0,l),
(222,0,l),
(222,333,ls),
(222,358,o),
(220,450,o),
(220,450,c),
(222,450,l),
(222,450,o),
(261,373,o),
(273,354,cs),
(483,0,l),
(661,0,l),
(661,715,l),
(488,715,l),
(488,376,ls),
(488,351,o),
(490,265,o),
(490,265,c),
(488,265,l),
(488,265,o),
(450,336,o),
(439,356,cs),
(227,715,l),
(49,715,l)
);
},
{
closed = 1;
nodes = (
(326,750,o),
(383,770,o),
(392,799,c),
(394,799,o),
(397,800,o),
(400,803,c),
(428,808,o),
(435,842,o),
(423,886,c),
(400,886,o),
(341,869,o),
(331,837,c),
(326,834,l),
(303,830,o),
(288,801,o),
(300,750,c)
);
},
{
closed = 1;
nodes = (
(349,809,o),
(348,810,o),
(348,811,c),
(352,809,o),
(355,808,o),
(350,808,c)
);
},
{
closed = 1;
nodes = (
(375,828,o),
(376,827,o),
(377,826,c),
(373,828,o),
(371,829,o),
(375,829,c)
);
}
);
width = 710;
}
);
note = Ntilde;
unicode = 209;
},
{
glyphname = Odieresis;
kernLeft = C;
kernRight = O;
layers = (
{
hints = (
{
horizontal = 1;
place = (-17, 144);
place = (-17, 144);
type = Stem;
},
{
horizontal = 1;
place = (586, 143);
place = (586, 143);
type = Stem;
},
{
horizontal = 1;
place = (753, 128);
place = (753, 128);
type = Stem;
},
{
place = (189, 153);
place = (189, 153);
type = Stem;
},
{
place = (404, 153);
place = (404, 153);
type = Stem;
},
{
place = (20, 180);
place = (20, 180);
type = Stem;
},
{
place = (547, 180);
place = (547, 180);
type = Stem;
}
);
layerId = m01;
shapes = (
{
closed = 1;
nodes = (
(189,753,l),
(342,753,l),
(342,881,l),
(189,881,l)
);
},
{
closed = 1;
nodes = (
(404,753,l),
(557,753,l),
(557,881,l),
(404,881,l)
);
},
{
closed = 1;
nodes = (
(259,127,o),
(200,226,o),
(200,356,cs),
(200,486,o),
(259,586,o),
(374,586,cs),
(490,586,o),
(547,486,o),
(547,356,cs),
(547,226,o),
(490,127,o),
(374,127,cs)
);
},
{
closed = 1;
nodes = (
(590,-17,o),
(727,142,o),
(727,356,cs),
(727,570,o),
(590,729,o),
(373,729,cs),
(157,729,o),
(20,570,o),
(20,356,cs),
(20,142,o),
(157,-17,o),
(373,-17,cs)
);
}
);
width = 747;
}
);
note = Odieresis;
unicode = 214;
},
{
glyphname = Udieresis;
kernLeft = U;
kernRight = U;
layers = (
{
hints = (
{
horizontal = 1;
place = (-13, 142);
place = (-13, 142);
type = Stem;
},
{
horizontal = 1;
place = (715, -20);
target = down;
type = TopGhost;
},
{
horizontal = 1;
place = (753, 128);
place = (753, 128);
type = Stem;
},
{
place = (44, 177);
place = (44, 177);
type = Stem;
},
{
place = (465, 177);
place = (465, 177);
type = Stem;
},
{
place = (158, 153);
place = (158, 153);
type = Stem;
},
{
place = (373, 153);
place = (373, 153);
type = Stem;
}
);
layerId = m01;
shapes = (
{
closed = 1;
nodes = (
(158,753,l),
(311,753,l),
(311,881,l),
(158,881,l)
);
},
{
closed = 1;
nodes = (
(373,753,l),
(526,753,l),
(526,881,l),
(373,881,l)
);
},
{
closed = 1;
nodes = (
(543,-13,o),
(642,87,o),
(642,252,cs),
(642,715,l),
(465,715,l),
(465,249,ls),
(465,179,o),
(426,129,o),
(344,129,cs),
(257,129,o),
(221,176,o),
(221,246,cs),
(221,715,l),
(44,715,l),
(44,252,ls),
(44,85,o),
(144,-13,o),
(344,-13,cs)
);
}
);
width = 686;
}
);
note = Udieresis;
unicode = 220;
},
{
glyphname = aacute;
kernLeft = a;
kernRight = a;
layers = (
{
hints = (
{
horizontal = 1;
place = (-13, 20);
place = (-13, 20);
type = Stem;
},
{
horizontal = 1;
place = (416, 110);
place = (416, 110);
type = Stem;
},
{
horizontal = 1;
place = (572, 148);
place = (572, 148);
type = Stem;
},
{
place = (15, 157);
place = (15, 157);
type = Stem;
},
{
place = (345, 156);
place = (345, 156);
type = Stem;
},
{
horizontal = 1;
place = (0, 7);
place = (0, 7);
type = Stem;
},
{
horizontal = 1;
place = (350, 176);
place = (350, 176);
type = Stem;
},
{
horizontal = 1;
place = (-13, 104);
place = (-13, 104);
type = Stem;
}
);
layerId = m01;
shapes = (
{
closed = 1;
nodes = (
(267,-13,o),
(312,14,o),
(342,57,c),
(344,57,l),
(348,31,o),
(353,11,o),
(361,0,c),
(519,0,l),
(519,7,l),
(505,16,o),
(501,39,o),
(501,80,cs),
(501,338,ls),
(501,402,o),
(480,452,o),
(436,484,cs),
(399,512,o),
(347,526,o),
(270,526,cs),
(115,526,o),
(42,445,o),
(38,350,c),
(188,350,l),
(193,393,o),
(219,416,o),
(271,416,cs),
(320,416,o),
(341,394,o),
(341,361,cs),
(341,326,o),
(307,316,o),
(211,304,cs),
(105,290,o),
(15,256,o),
(15,143,cs),
(15,42,o),
(88,-13,o),
(190,-13,cs)
);
},
{
closed = 1;
nodes = (
(202,91,o),
(172,107,o),
(172,148,cs),
(172,187,o),
(198,203,o),
(261,217,cs),
(294,225,o),
(324,233,o),
(345,244,c),
(345,183,ls),
(345,128,o),
(303,91,o),
(242,91,cs)
);
},
{
closed = 1;
nodes = (
(209,572,l),
(333,572,l),
(454,720,l),
(266,720,l)
);
}
);
width = 541;
}
);
note = aacute;
unicode = 225;
},
{
glyphname = agrave;
kernLeft = a;
kernRight = a;
layers = (
{
hints = (
{
horizontal = 1;
place = (-13, 20);
place = (-13, 20);
type = Stem;
},
{
horizontal = 1;
place = (416, 110);
place = (416, 110);
type = Stem;
},
{
horizontal = 1;
place = (572, 148);
place = (572, 148);
type = Stem;
},
{
place = (15, 157);
place = (15, 157);
type = Stem;
},
{
place = (345, 156);
place = (345, 156);
type = Stem;
},
{
horizontal = 1;
place = (0, 7);
place = (0, 7);
type = Stem;
},
{
horizontal = 1;
place = (350, 176);
place = (350, 176);
type = Stem;
},
{
horizontal = 1;
place = (-13, 104);
place = (-13, 104);
type = Stem;
}
);
layerId = m01;
shapes = (
{
closed = 1;
nodes = (
(267,-13,o),
(312,14,o),
(342,57,c),
(344,57,l),
(348,31,o),
(353,11,o),
(361,0,c),
(519,0,l),
(519,7,l),
(505,16,o),
(501,39,o),
(501,80,cs),
(501,338,ls),
(501,402,o),
(480,452,o),
(436,484,cs),
(399,512,o),
(347,526,o),
(270,526,cs),
(115,526,o),
(42,445,o),
(38,350,c),
(188,350,l),
(193,393,o),
(219,416,o),
(271,416,cs),
(320,416,o),
(341,394,o),
(341,361,cs),
(341,326,o),
(307,316,o),
(211,304,cs),
(105,290,o),
(15,256,o),
(15,143,cs),
(15,42,o),
(88,-13,o),
(190,-13,cs)
);
},
{
closed = 1;
nodes = (
(202,91,o),
(172,107,o),
(172,148,cs),
(172,187,o),
(198,203,o),
(261,217,cs),
(294,225,o),
(324,233,o),
(345,244,c),
(345,183,ls),
(345,128,o),
(303,91,o),
(242,91,cs)
);
},
{
closed = 1;
nodes = (
(223,572,l),
(347,572,l),
(290,720,l),
(102,720,l)
);
}
);
width = 541;
}
);
note = agrave;
unicode = 224;
},
{
glyphname = acircumflex;
kernLeft = a;
kernRight = a;
layers = (
{
hints = (
{
horizontal = 1;
place = (-13, 20);
place = (-13, 20);
type = Stem;
},
{
horizontal = 1;
place = (416, 110);
place = (416, 110);
type = Stem;
},
{
horizontal = 1;
place = (574, 137);
place = (574, 137);
type = Stem;
},
{
place = (15, 157);
place = (15, 157);
type = Stem;
},
{
place = (345, 156);
place = (345, 156);
type = Stem;
},
{
horizontal = 1;
place = (0, 7);
place = (0, 7);
type = Stem;
},
{
horizontal = 1;
place = (350, 176);
place = (350, 176);
type = Stem;
},
{
horizontal = 1;
place = (-13, 104);
place = (-13, 104);
type = Stem;
}
);
layerId = m01;
shapes = (
{
closed = 1;
nodes = (
(267,-13,o),
(312,14,o),
(342,57,c),
(344,57,l),
(348,31,o),
(353,11,o),
(361,0,c),
(519,0,l),
(519,7,l),
(505,16,o),
(501,39,o),
(501,80,cs),
(501,338,ls),
(501,402,o),
(480,452,o),
(436,484,cs),
(399,512,o),
(347,526,o),
(270,526,cs),
(115,526,o),
(42,445,o),
(38,350,c),
(188,350,l),
(193,393,o),
(219,416,o),
(271,416,cs),
(320,416,o),
(341,394,o),
(341,361,cs),
(341,326,o),
(307,316,o),
(211,304,cs),
(105,290,o),
(15,256,o),
(15,143,cs),
(15,42,o),
(88,-13,o),
(190,-13,cs)
);
},
{
closed = 1;
nodes = (
(202,91,o),
(172,107,o),
(172,148,cs),
(172,187,o),
(198,203,o),
(261,217,cs),
(294,225,o),
(324,233,o),
(345,244,c),
(345,183,ls),
(345,128,o),
(303,91,o),
(242,91,cs)
);
},
{
closed = 1;
nodes = (
(90,574,l),
(230,574,l),
(276,640,l),
(278,640,l),
(323,574,l),
(460,574,l),
(353,711,l),
(197,711,l)
);
}
);
width = 541;
}
);
note = acircumflex;
unicode = 226;
},
{
glyphname = adieresis;
kernLeft = a;
kernRight = a;
layers = (
{
hints = (
{
horizontal = 1;
place = (-13, 20);
place = (-13, 20);
type = Stem;
},
{
horizontal = 1;
place = (416, 110);
place = (416, 110);
type = Stem;
},
{
horizontal = 1;
place = (577, 128);
place = (577, 128);
type = Stem;
},
{
place = (15, 157);
place = (15, 157);
type = Stem;
},
{
place = (345, 156);
place = (345, 156);
type = Stem;
},
{
horizontal = 1;
place = (0, 7);
place = (0, 7);
type = Stem;
},
{
place = (86, 153);
place = (86, 153);
type = Stem;
},
{
horizontal = 1;
place = (350, 176);
place = (350, 176);
type = Stem;
},
{
horizontal = 1;
place = (-13, 104);
place = (-13, 104);
type = Stem;
},
{
place = (311, 153);
place = (311, 153);
type = Stem;
}
);
layerId = m01;
shapes = (
{
closed = 1;
nodes = (
(267,-13,o),
(312,14,o),
(342,57,c),
(344,57,l),
(348,31,o),
(353,11,o),
(361,0,c),
(519,0,l),
(519,7,l),
(505,16,o),
(501,39,o),
(501,80,cs),
(501,338,ls),
(501,402,o),
(480,452,o),
(436,484,cs),
(399,512,o),
(347,526,o),
(270,526,cs),
(115,526,o),
(42,445,o),
(38,350,c),
(188,350,l),
(193,393,o),
(219,416,o),
(271,416,cs),
(320,416,o),
(341,394,o),
(341,361,cs),
(341,326,o),
(307,316,o),
(211,304,cs),
(105,290,o),
(15,256,o),
(15,143,cs),
(15,42,o),
(88,-13,o),
(190,-13,cs)
);
},
{
closed = 1;
nodes = (
(202,91,o),
(172,107,o),
(172,148,cs),
(172,187,o),
(198,203,o),
(261,217,cs),
(294,225,o),
(324,233,o),
(345,244,c),
(345,183,ls),
(345,128,o),
(303,91,o),
(242,91,cs)
);
},
{
closed = 1;
nodes = (
(86,577,l),
(239,577,l),
(239,705,l),
(86,705,l)
);
},
{
closed = 1;
nodes = (
(311,577,l),
(464,577,l),
(464,705,l),
(311,705,l)
);
}
);
width = 541;
}
);
note = adieresis;
unicode = 228;
},
{
glyphname = atilde;
kernLeft = a;
kernRight = a;
layers = (
{
hints = (
{
horizontal = 1;
place = (-13, 20);
place = (-13, 20);
type = Stem;
},
{
horizontal = 1;
place = (416, 110);
place = (416, 110);
type = Stem;
},
{
horizontal = 1;
place = (572, 132);
place = (572, 132);
type = Stem;
},
{
place = (15, 157);
place = (15, 157);
type = Stem;
},
{
place = (345, 156);
place = (345, 156);
type = Stem;
},
{
horizontal = 1;
place = (0, 7);
place = (0, 7);
type = Stem;
},
{
horizontal = 1;
place = (350, 176);
place = (350, 176);
type = Stem;
},
{
horizontal = 1;
place = (-13, 104);
place = (-13, 104);
type = Stem;
},
{
place = (109, 84);
place = (109, 84);
type = Stem;
},
{
horizontal = 1;
place = (607, 99);
place = (607, 99);
type = Stem;
},
{
place = (357, 84);
place = (357, 84);
type = Stem;
}
);
layerId = m01;
shapes = (
{
closed = 1;
nodes = (
(267,-13,o),
(312,14,o),
(342,57,c),
(344,57,l),
(348,31,o),
(353,11,o),
(361,0,c),
(519,0,l),
(519,7,l),
(505,16,o),
(501,39,o),
(501,80,cs),
(501,338,ls),
(501,402,o),
(480,452,o),
(436,484,cs),
(399,512,o),
(347,526,o),
(270,526,cs),
(115,526,o),
(42,445,o),
(38,350,c),
(188,350,l),
(193,393,o),
(219,416,o),
(271,416,cs),
(320,416,o),
(341,394,o),
(341,361,cs),
(341,326,o),
(307,316,o),
(211,304,cs),
(105,290,o),
(15,256,o),
(15,143,cs),
(15,42,o),
(88,-13,o),
(190,-13,cs)
);
},
{
closed = 1;
nodes = (
(202,91,o),
(172,107,o),
(172,148,cs),
(172,187,o),
(198,203,o),
(261,217,cs),
(294,225,o),
(324,233,o),
(345,244,c),
(345,183,ls),
(345,128,o),
(303,91,o),
(242,91,cs)
);
},
{
closed = 1;
nodes = (
(193,571,l),
(196,594,o),
(207,607,o),
(223,607,cs),
(239,607,o),
(251,599,o),
(275,588,cs),
(294,580,o),
(315,572,o),
(341,572,cs),
(406,572,o),
(441,626,o),
(441,704,c),
(357,704,l),
(354,683,o),
(348,669,o),
(327,669,cs),
(312,669,o),
(300,676,o),
(278,687,cs),
(260,697,o),
(237,706,o),
(212,706,cs),
(155,706,o),
(109,661,o),
(109,571,c)
);
}
);
width = 541;
}
);
note = atilde;
unicode = 227;
},
{
glyphname = aring;
kernLeft = a;
kernRight = a;
layers = (
{
hints = (
{
horizontal = 1;
place = (-13, 20);
place = (-13, 20);
type = Stem;
},
{
horizontal = 1;
place = (416, 110);
place = (416, 110);
type = Stem;
},
{
horizontal = 1;
place = (558, 56);
place = (558, 56);
type = Stem;
},
{
horizontal = 1;
place = (699, 56);
place = (699, 56);
type = Stem;
},
{
place = (15, 157);
place = (15, 157);
type = Stem;
},
{
place = (345, 156);
place = (345, 156);
type = Stem;
},
{
horizontal = 1;
place = (0, 7);
place = (0, 7);
type = Stem;
},
{
place = (173, 61);
place = (173, 61);
type = Stem;
},
{
horizontal = 1;
place = (350, 176);
place = (350, 176);
type = Stem;
},
{
horizontal = 1;
place = (-13, 104);
place = (-13, 104);
type = Stem;
},
{
place = (317, 60);
place = (317, 60);
type = Stem;
}
);
layerId = m01;
shapes = (
{
closed = 1;
nodes = (
(267,-13,o),
(312,14,o),
(342,57,c),
(344,57,l),
(348,31,o),
(353,11,o),
(361,0,c),
(519,0,l),
(519,7,l),
(505,16,o),
(501,39,o),
(501,80,cs),
(501,338,ls),
(501,402,o),
(480,452,o),
(436,484,cs),
(399,512,o),
(347,526,o),
(270,526,cs),
(115,526,o),
(42,445,o),
(38,350,c),
(188,350,l),
(193,393,o),
(219,416,o),
(271,416,cs),
(320,416,o),
(341,394,o),
(341,361,cs),
(341,326,o),
(307,316,o),
(211,304,cs),
(105,290,o),
(15,256,o),
(15,143,cs),
(15,42,o),
(88,-13,o),
(190,-13,cs)
);
},
{
closed = 1;
nodes = (
(202,91,o),
(172,107,o),
(172,148,cs),
(172,187,o),
(198,203,o),
(261,217,cs),
(294,225,o),
(324,233,o),
(345,244,c),
(345,183,ls),
(345,128,o),
(303,91,o),
(242,91,cs)
);
},
{
closed = 1;
nodes = (
(251,614,o),
(234,633,o),
(234,656,cs),
(234,679,o),
(251,699,o),
(275,699,cs),
(300,699,o),
(317,679,o),
(317,656,cs),
(317,633,o),
(300,614,o),
(275,614,cs)
);
},
{
closed = 1;
nodes = (
(331,558,o),
(377,601,o),
(377,656,cs),
(377,711,o),
(331,755,o),
(275,755,cs),
(220,755,o),
(173,711,o),
(173,656,cs),
(173,601,o),
(220,558,o),
(275,558,cs)
);
}
);
width = 541;
}
);
note = aring;
unicode = 229;
},
{
glyphname = ccedilla;
kernLeft = c;
kernRight = c;
layers = (
{
hints = (
{
horizontal = 1;
place = (-193, 49);
place = (-193, 49);
type = Stem;
},
{
horizontal = 1;
place = (-88, 39);
place = (-88, 39);
type = Stem;
},
{
horizontal = 1;
place = (-14, 21);
target = up;
type = BottomGhost;
},
{
horizontal = 1;
place = (406, 120);
place = (406, 120);
type = Stem;
},
{
place = (16, 165);
place = (16, 165);
type = Stem;
},
{
place = (288, 94);
place = (288, 94);
type = Stem;
}
);
layerId = m01;
shapes = (
{
closed = 1;
nodes = (
(328,-193,o),
(382,-164,o),
(382,-116,cs),
(382,-64,o),
(333,-43,o),
(276,-49,c),
(276,-47,l),
(314,-15,l),
(444,-4,o),
(527,83,o),
(531,194,c),
(375,194,l),
(368,136,o),
(337,106,o),
(286,106,cs),
(216,106,o),
(181,164,o),
(181,255,cs),
(181,348,o),
(216,406,o),
(286,406,cs),
(332,406,o),
(360,376,o),
(370,330,c),
(527,330,l),
(512,445,o),
(423,526,o),
(284,526,cs),
(122,526,o),
(16,409,o),
(16,255,cs),
(16,111,o),
(109,0,o),
(255,-14,c),
(198,-71,l),
(215,-95,l),
(226,-91,o),
(237,-88,o),
(250,-88,cs),
(271,-88,o),
(288,-96,o),
(288,-115,cs),
(288,-136,o),
(262,-144,o),
(234,-144,cs),
(210,-144,o),
(184,-138,o),
(165,-129,c),
(145,-164,l),
(173,-181,o),
(210,-193,o),
(257,-193,cs)
);
}
);
width = 544;
}
);
note = ccedilla;
unicode = 231;
},
{
glyphname = eacute;
kernLeft = c;
kernRight = e;
layers = (
{
hints = (
{
horizontal = 1;
place = (-15, 117);
place = (-15, 117);
type = Stem;
},
{
horizontal = 1;
place = (214, 97);
place = (214, 97);
type = Stem;
},
{
horizontal = 1;
place = (411, 116);
place = (411, 116);
type = Stem;
},
{
horizontal = 1;
place = (572, 148);
place = (572, 148);
type = Stem;
},
{
place = (16, 528);
place = (16, 528);
type = Stem;
}
);
layerId = m01;
shapes = (
{
closed = 1;
nodes = (
(214,572,l),
(338,572,l),
(459,720,l),
(271,720,l)
);
},
{
closed = 1;
nodes = (
(354,-15,o),
(406,2,o),
(449,32,cs),
(494,63,o),
(524,107,o),
(535,153,c),
(376,153,l),
(362,121,o),
(334,102,o),
(291,102,cs),
(224,102,o),
(186,145,o),
(176,214,c),
(544,214,l),
(545,318,o),
(515,407,o),
(454,463,cs),
(410,503,o),
(352,527,o),
(279,527,cs),
(123,527,o),
(16,410,o),
(16,257,cs),
(16,102,o),
(120,-15,o),
(289,-15,cs)
);
},
{
closed = 1;
nodes = (
(177,311,l),
(188,372,o),
(220,411,o),
(282,411,cs),
(335,411,o),
(373,372,o),
(379,311,c)
);
}
);
width = 560;
}
);
note = eacute;
unicode = 233;
},
{
glyphname = egrave;
kernLeft = c;
kernRight = e;
layers = (
{
hints = (
{
horizontal = 1;
place = (-15, 117);
place = (-15, 117);
type = Stem;
},
{
horizontal = 1;
place = (214, 97);
place = (214, 97);
type = Stem;
},
{
horizontal = 1;
place = (411, 116);
place = (411, 116);
type = Stem;
},
{
horizontal = 1;
place = (572, 148);
place = (572, 148);
type = Stem;
},
{
place = (16, 528);
place = (16, 528);
type = Stem;
}
);
layerId = m01;
shapes = (
{
closed = 1;
nodes = (
(354,-15,o),
(406,2,o),
(449,32,cs),
(494,63,o),
(524,107,o),
(535,153,c),
(376,153,l),
(362,121,o),
(334,102,o),
(291,102,cs),
(224,102,o),
(186,145,o),
(176,214,c),
(544,214,l),
(545,318,o),
(515,407,o),
(454,463,cs),
(410,503,o),
(352,527,o),
(279,527,cs),
(123,527,o),
(16,410,o),
(16,257,cs),
(16,102,o),
(120,-15,o),
(289,-15,cs)
);
},
{
closed = 1;
nodes = (
(177,311,l),
(188,372,o),
(220,411,o),
(282,411,cs),
(335,411,o),
(373,372,o),
(379,311,c)
);
},
{
closed = 1;
nodes = (
(228,572,l),
(352,572,l),
(295,720,l),
(107,720,l)
);
}
);
width = 560;
}
);
note = egrave;
unicode = 232;
},
{
glyphname = ecircumflex;
kernLeft = c;
kernRight = e;
layers = (
{
hints = (
{
horizontal = 1;
place = (-15, 117);
place = (-15, 117);
type = Stem;
},
{
horizontal = 1;
place = (214, 97);
place = (214, 97);
type = Stem;
},
{
horizontal = 1;
place = (411, 116);
place = (411, 116);
type = Stem;
},
{
horizontal = 1;
place = (574, 137);
place = (574, 137);
type = Stem;
},
{
place = (16, 528);
place = (16, 528);
type = Stem;
}
);
layerId = m01;
shapes = (
{
closed = 1;
nodes = (
(95,574,l),
(235,574,l),
(281,640,l),
(283,640,l),
(328,574,l),
(465,574,l),
(358,711,l),
(202,711,l)
);
},
{
closed = 1;
nodes = (
(354,-15,o),
(406,2,o),
(449,32,cs),
(494,63,o),
(524,107,o),
(535,153,c),
(376,153,l),
(362,121,o),
(334,102,o),
(291,102,cs),
(224,102,o),
(186,145,o),
(176,214,c),
(544,214,l),
(545,318,o),
(515,407,o),
(454,463,cs),
(410,503,o),
(352,527,o),
(279,527,cs),
(123,527,o),
(16,410,o),
(16,257,cs),
(16,102,o),
(120,-15,o),
(289,-15,cs)
);
},
{
closed = 1;
nodes = (
(177,311,l),
(188,372,o),
(220,411,o),
(282,411,cs),
(335,411,o),
(373,372,o),
(379,311,c)
);
}
);
width = 560;
}
);
note = ecircumflex;
unicode = 234;
},
{
glyphname = edieresis;
kernLeft = c;
kernRight = e;
layers = (
{
hints = (
{
horizontal = 1;
place = (-15, 117);
place = (-15, 117);
type = Stem;
},
{
horizontal = 1;
place = (214, 97);
place = (214, 97);
type = Stem;
},
{
horizontal = 1;
place = (411, 116);
place = (411, 116);
type = Stem;
},
{
horizontal = 1;
place = (577, 128);
place = (577, 128);
type = Stem;
},
{
place = (91, 153);
place = (91, 153);
type = Stem;
},
{
place = (316, 153);
place = (316, 153);
type = Stem;
}
);
layerId = m01;
shapes = (
{
closed = 1;
nodes = (
(91,577,l),
(244,577,l),
(244,705,l),
(91,705,l)
);
},
{
closed = 1;
nodes = (
(316,577,l),
(469,577,l),
(469,705,l),
(316,705,l)
);
},
{
closed = 1;
nodes = (
(354,-15,o),
(406,2,o),
(449,32,cs),
(494,63,o),
(524,107,o),
(535,153,c),
(376,153,l),
(362,121,o),
(334,102,o),
(291,102,cs),
(224,102,o),
(186,145,o),
(176,214,c),
(544,214,l),
(545,318,o),
(515,407,o),
(454,463,cs),
(410,503,o),
(352,527,o),
(279,527,cs),
(123,527,o),
(16,410,o),
(16,257,cs),
(16,102,o),
(120,-15,o),
(289,-15,cs)
);
},
{
closed = 1;
nodes = (
(177,311,l),
(188,372,o),
(220,411,o),
(282,411,cs),
(335,411,o),
(373,372,o),
(379,311,c)
);
}
);
width = 560;
}
);
note = edieresis;
unicode = 235;
},
{
glyphname = iacute;
kernLeft = b;
kernRight = d;
layers = (
{
hints = (
{
horizontal = 1;
place = (0, 21);
target = up;
type = BottomGhost;
},
{
horizontal = 1;
place = (512, -20);
target = down;
type = TopGhost;
},
{
horizontal = 1;
place = (572, 148);
place = (572, 148);
type = Stem;
},
{
place = (39, 163);
place = (39, 163);
type = Stem;
}
);
layerId = m01;
shapes = (
{
closed = 1;
nodes = (
(55,572,l),
(179,572,l),
(300,720,l),
(112,720,l)
);
},
{
closed = 1;
nodes = (
(39,0,l),
(202,0,l),
(202,512,l),
(39,512,l)
);
}
);
width = 241;
}
);
note = iacute;
unicode = 237;
},
{
glyphname = igrave;
kernLeft = b;
kernRight = d;
layers = (
{
hints = (
{
horizontal = 1;
place = (0, 21);
target = up;
type = BottomGhost;
},
{
horizontal = 1;
place = (512, -20);
target = down;
type = TopGhost;
},
{
horizontal = 1;
place = (572, 148);
place = (572, 148);
type = Stem;
},
{
place = (39, 163);
place = (39, 163);
type = Stem;
}
);
layerId = m01;
shapes = (
{
closed = 1;
nodes = (
(39,0,l),
(202,0,l),
(202,512,l),
(39,512,l)
);
},
{
closed = 1;
nodes = (
(69,572,l),
(193,572,l),
(136,720,l),
(-52,720,l)
);
}
);
width = 241;
}
);
note = igrave;
unicode = 236;
},
{
glyphname = icircumflex;
kernLeft = b;
kernRight = d;
layers = (
{
hints = (
{
horizontal = 1;
place = (0, 21);
target = up;
type = BottomGhost;
},
{
horizontal = 1;
place = (512, -20);
target = down;
type = TopGhost;
},
{
horizontal = 1;
place = (574, 137);
place = (574, 137);
type = Stem;
},
{
place = (39, 163);
place = (39, 163);
type = Stem;
}
);
layerId = m01;
shapes = (
{
closed = 1;
nodes = (
(39,0,l),
(202,0,l),
(202,512,l),
(39,512,l)
);
},
{
closed = 1;
nodes = (
(-42,574,l),
(90,574,l),
(121,636,l),
(123,636,l),
(153,574,l),
(282,574,l),
(203,711,l),
(39,711,l)
);
}
);
width = 241;
}
);
note = icircumflex;
unicode = 238;
},
{
glyphname = idieresis;
kernLeft = b;
kernRight = d;
layers = (
{
hints = (
{
horizontal = 1;
place = (0, 21);
target = up;
type = BottomGhost;
},
{
horizontal = 1;
place = (512, -20);
target = down;
type = TopGhost;
},
{
horizontal = 1;
place = (577, 128);
place = (577, 128);
type = Stem;
},
{
place = (-29, 124);
place = (-29, 124);
type = Stem;
},
{
place = (39, 163);
place = (39, 163);
type = Stem;
},
{
place = (147, 123);
place = (147, 123);
type = Stem;
}
);
layerId = m01;
shapes = (
{
closed = 1;
nodes = (
(-29,577,l),
(95,577,l),
(95,705,l),
(-29,705,l)
);
},
{
closed = 1;
nodes = (
(147,577,l),
(270,577,l),
(270,705,l),
(147,705,l)
);
},
{
closed = 1;
nodes = (
(39,512,l),
(39,0,l),
(202,0,l),
(202,512,l)
);
}
);
width = 241;
}
);
note = idieresis;
unicode = 239;
},
{
glyphname = ntilde;
kernLeft = m;
kernRight = h;
layers = (
{
hints = (
{
horizontal = 1;
place = (0, 21);
target = up;
type = BottomGhost;
},
{
horizontal = 1;
place = (391, 136);
place = (391, 136);
type = Stem;
},
{
horizontal = 1;
place = (572, 132);
place = (572, 132);
type = Stem;
},
{
place = (39, 163);
place = (39, 163);
type = Stem;
},
{
place = (372, 163);
place = (372, 163);
type = Stem;
},
{
horizontal = 1;
place = (391, 121);
place = (391, 121);
type = Stem;
},
{
place = (124, 72);
place = (124, 72);
type = Stem;
},
{
horizontal = 1;
place = (607, 99);
place = (607, 99);
type = Stem;
}
);
layerId = m01;
shapes = (
{
closed = 1;
nodes = (
(39,0,l),
(202,0,l),
(202,283,ls),
(202,346,o),
(238,391,o),
(292,391,cs),
(345,391,o),
(372,354,o),
(372,300,cs),
(372,0,l),
(535,0,l),
(535,333,ls),
(535,447,o),
(469,527,o),
(357,527,cs),
(286,527,o),
(237,497,o),
(199,442,c),
(196,442,l),
(196,512,l),
(39,512,l)
);
},
{
closed = 1;
nodes = (
(208,571,l),
(211,594,o),
(222,607,o),
(238,607,cs),
(254,607,o),
(266,599,o),
(290,588,cs),
(309,580,o),
(330,572,o),
(356,572,cs),
(421,572,o),
(456,626,o),
(456,704,c),
(372,704,l),
(369,683,o),
(363,669,o),
(342,669,cs),
(327,669,o),
(315,676,o),
(293,687,cs),
(275,697,o),
(252,706,o),
(227,706,cs),
(170,706,o),
(124,661,o),
(124,571,c)
);
}
);
width = 570;
}
);
note = ntilde;
unicode = 241;
},
{
glyphname = oacute;
kernLeft = c;
kernRight = o;
layers = (
{
hints = (
{
horizontal = 1;
place = (-16, 116);
place = (-16, 116);
type = Stem;
},
{
horizontal = 1;
place = (411, 115);
place = (411, 115);
type = Stem;
},
{
horizontal = 1;
place = (572, 148);
place = (572, 148);
type = Stem;
},
{
place = (16, 165);
place = (16, 165);
type = Stem;
},
{
place = (398, 165);
place = (398, 165);
type = Stem;
}
);
layerId = m01;
shapes = (
{
closed = 1;
nodes = (
(224,572,l),
(348,572,l),
(469,720,l),
(281,720,l)
);
},
{
closed = 1;
nodes = (
(218,100,o),
(181,162,o),
(181,255,cs),
(181,348,o),
(218,411,o),
(289,411,cs),
(360,411,o),
(398,348,o),
(398,255,cs),
(398,162,o),
(360,100,o),
(289,100,cs)
);
},
{
closed = 1;
nodes = (
(455,-16,o),
(563,101,o),
(563,255,cs),
(563,409,o),
(455,526,o),
(290,526,cs),
(126,526,o),
(16,409,o),
(16,255,cs),
(16,101,o),
(126,-16,o),
(290,-16,cs)
);
}
);
width = 579;
}
);
note = oacute;
unicode = 243;
},
{
glyphname = ograve;
kernLeft = c;
kernRight = o;
layers = (
{
hints = (
{
horizontal = 1;
place = (-16, 116);
place = (-16, 116);
type = Stem;
},
{
horizontal = 1;
place = (411, 115);
place = (411, 115);
type = Stem;
},
{
horizontal = 1;
place = (572, 148);
place = (572, 148);
type = Stem;
},
{
place = (16, 165);
place = (16, 165);
type = Stem;
},
{
place = (398, 165);
place = (398, 165);
type = Stem;
}
);
layerId = m01;
shapes = (
{
closed = 1;
nodes = (
(218,100,o),
(181,162,o),
(181,255,cs),
(181,348,o),
(218,411,o),
(289,411,cs),
(360,411,o),
(398,348,o),
(398,255,cs),
(398,162,o),
(360,100,o),
(289,100,cs)
);
},
{
closed = 1;
nodes = (
(455,-16,o),
(563,101,o),
(563,255,cs),
(563,409,o),
(455,526,o),
(290,526,cs),
(126,526,o),
(16,409,o),
(16,255,cs),
(16,101,o),
(126,-16,o),
(290,-16,cs)
);
},
{
closed = 1;
nodes = (
(238,572,l),
(362,572,l),
(305,720,l),
(117,720,l)
);
}
);
width = 579;
}
);
note = ograve;
unicode = 242;
},
{
glyphname = ocircumflex;
kernLeft = c;
kernRight = o;
layers = (
{
hints = (
{
horizontal = 1;
place = (-16, 116);
place = (-16, 116);
type = Stem;
},
{
horizontal = 1;
place = (411, 115);
place = (411, 115);
type = Stem;
},
{
horizontal = 1;
place = (574, 137);
place = (574, 137);
type = Stem;
},
{
place = (16, 165);
place = (16, 165);
type = Stem;
},
{
place = (398, 165);
place = (398, 165);
type = Stem;
}
);
layerId = m01;
shapes = (
{
closed = 1;
nodes = (
(105,574,l),
(245,574,l),
(291,640,l),
(293,640,l),
(338,574,l),
(475,574,l),
(368,711,l),
(212,711,l)
);
},
{
closed = 1;
nodes = (
(218,100,o),
(181,162,o),
(181,255,cs),
(181,348,o),
(218,411,o),
(289,411,cs),
(360,411,o),
(398,348,o),
(398,255,cs),
(398,162,o),
(360,100,o),
(289,100,cs)
);
},
{
closed = 1;
nodes = (
(455,-16,o),
(563,101,o),
(563,255,cs),
(563,409,o),
(455,526,o),
(290,526,cs),
(126,526,o),
(16,409,o),
(16,255,cs),
(16,101,o),
(126,-16,o),
(290,-16,cs)
);
}
);
width = 579;
}
);
note = ocircumflex;
unicode = 244;
},
{
glyphname = odieresis;
kernLeft = c;
kernRight = o;
layers = (
{
hints = (
{
horizontal = 1;
place = (-16, 116);
place = (-16, 116);
type = Stem;
},
{
horizontal = 1;
place = (411, 115);
place = (411, 115);
type = Stem;
},
{
horizontal = 1;
place = (577, 128);
place = (577, 128);
type = Stem;
},
{
place = (101, 153);
place = (101, 153);
type = Stem;
},
{
place = (326, 153);
place = (326, 153);
type = Stem;
},
{
place = (16, 165);
place = (16, 165);
type = Stem;
},
{
place = (398, 165);
place = (398, 165);
type = Stem;
}
);
layerId = m01;
shapes = (
{
closed = 1;
nodes = (
(101,577,l),
(254,577,l),
(254,705,l),
(101,705,l)
);
},
{
closed = 1;
nodes = (
(326,577,l),
(479,577,l),
(479,705,l),
(326,705,l)
);
},
{
closed = 1;
nodes = (
(218,100,o),
(181,162,o),
(181,255,cs),
(181,348,o),
(218,411,o),
(289,411,cs),
(360,411,o),
(398,348,o),
(398,255,cs),
(398,162,o),
(360,100,o),
(289,100,cs)
);
},
{
closed = 1;
nodes = (
(455,-16,o),
(563,101,o),
(563,255,cs),
(563,409,o),
(455,526,o),
(290,526,cs),
(126,526,o),
(16,409,o),
(16,255,cs),
(16,101,o),
(126,-16,o),
(290,-16,cs)
);
}
);
width = 579;
}
);
note = odieresis;
unicode = 246;
},
{
glyphname = otilde;
kernLeft = c;
kernRight = o;
layers = (
{
hints = (
{
horizontal = 1;
place = (-16, 116);
place = (-16, 116);
type = Stem;
},
{
horizontal = 1;
place = (411, 115);
place = (411, 115);
type = Stem;
},
{
horizontal = 1;
place = (572, 132);
place = (572, 132);
type = Stem;
},
{
place = (16, 165);
place = (16, 165);
type = Stem;
},
{
place = (398, 165);
place = (398, 165);
type = Stem;
},
{
place = (124, 84);
place = (124, 84);
type = Stem;
},
{
horizontal = 1;
place = (607, 99);
place = (607, 99);
type = Stem;
},
{
place = (372, 84);
place = (372, 84);
type = Stem;
}
);
layerId = m01;
shapes = (
{
closed = 1;
nodes = (
(218,100,o),
(181,162,o),
(181,255,cs),
(181,348,o),
(218,411,o),
(289,411,cs),
(360,411,o),
(398,348,o),
(398,255,cs),
(398,162,o),
(360,100,o),
(289,100,cs)
);
},
{
closed = 1;
nodes = (
(455,-16,o),
(563,101,o),
(563,255,cs),
(563,409,o),
(455,526,o),
(290,526,cs),
(126,526,o),
(16,409,o),
(16,255,cs),
(16,101,o),
(126,-16,o),
(290,-16,cs)
);
},
{
closed = 1;
nodes = (
(208,571,l),
(211,594,o),
(222,607,o),
(238,607,cs),
(254,607,o),
(266,599,o),
(290,588,cs),
(309,580,o),
(330,572,o),
(356,572,cs),
(421,572,o),
(456,626,o),
(456,704,c),
(372,704,l),
(369,683,o),
(363,669,o),
(342,669,cs),
(327,669,o),
(315,676,o),
(293,687,cs),
(275,697,o),
(252,706,o),
(227,706,cs),
(170,706,o),
(124,661,o),
(124,571,c)
);
}
);
width = 579;
}
);
note = otilde;
unicode = 245;
},
{
glyphname = uacute;
kernLeft = u;
kernRight = u;
layers = (
{
hints = (
{
horizontal = 1;
place = (-15, 138);
place = (-15, 138);
type = Stem;
},
{
horizontal = 1;
place = (512, -20);
target = down;
type = TopGhost;
},
{
horizontal = 1;
place = (572, 148);
place = (572, 148);
type = Stem;
},
{
place = (35, 162);
place = (35, 162);
type = Stem;
},
{
place = (364, 163);
place = (364, 163);
type = Stem;
},
{
horizontal = 1;
place = (0, 123);
place = (0, 123);
type = Stem;
}
);
layerId = m01;
shapes = (
{
closed = 1;
nodes = (
(216,572,l),
(340,572,l),
(461,720,l),
(273,720,l)
);
},
{
closed = 1;
nodes = (
(286,-15,o),
(331,13,o),
(368,63,c),
(371,63,l),
(371,0,l),
(527,0,l),
(527,512,l),
(364,512,l),
(364,226,ls),
(364,165,o),
(330,123,o),
(274,123,cs),
(222,123,o),
(197,154,o),
(197,210,cs),
(197,512,l),
(35,512,l),
(35,176,ls),
(35,62,o),
(97,-15,o),
(215,-15,cs)
);
}
);
width = 566;
}
);
note = uacute;
unicode = 250;
},
{
glyphname = ugrave;
kernLeft = u;
kernRight = u;
layers = (
{
hints = (
{
horizontal = 1;
place = (-15, 138);
place = (-15, 138);
type = Stem;
},
{
horizontal = 1;
place = (512, -20);
target = down;
type = TopGhost;
},
{
horizontal = 1;
place = (572, 148);
place = (572, 148);
type = Stem;
},
{
place = (35, 162);
place = (35, 162);
type = Stem;
},
{
place = (364, 163);
place = (364, 163);
type = Stem;
},
{
horizontal = 1;
place = (0, 123);
place = (0, 123);
type = Stem;
}
);
layerId = m01;
shapes = (
{
closed = 1;
nodes = (
(286,-15,o),
(331,13,o),
(368,63,c),
(371,63,l),
(371,0,l),
(527,0,l),
(527,512,l),
(364,512,l),
(364,226,ls),
(364,165,o),
(330,123,o),
(274,123,cs),
(222,123,o),
(197,154,o),
(197,210,cs),
(197,512,l),
(35,512,l),
(35,176,ls),
(35,62,o),
(97,-15,o),
(215,-15,cs)
);
},
{
closed = 1;
nodes = (
(230,572,l),
(354,572,l),
(297,720,l),
(109,720,l)
);
}
);
width = 566;
}
);
note = ugrave;
unicode = 249;
},
{
glyphname = ucircumflex;
kernLeft = u;
kernRight = u;
layers = (
{
hints = (
{
horizontal = 1;
place = (-15, 138);
place = (-15, 138);
type = Stem;
},
{
horizontal = 1;
place = (512, -20);
target = down;
type = TopGhost;
},
{
horizontal = 1;
place = (574, 137);
place = (574, 137);
type = Stem;
},
{
place = (35, 162);
place = (35, 162);
type = Stem;
},
{
place = (364, 163);
place = (364, 163);
type = Stem;
},
{
horizontal = 1;
place = (0, 123);
place = (0, 123);
type = Stem;
}
);
layerId = m01;
shapes = (
{
closed = 1;
nodes = (
(97,574,l),
(237,574,l),
(283,640,l),
(285,640,l),
(330,574,l),
(467,574,l),
(360,711,l),
(204,711,l)
);
},
{
closed = 1;
nodes = (
(286,-15,o),
(331,13,o),
(368,63,c),
(371,63,l),
(371,0,l),
(527,0,l),
(527,512,l),
(364,512,l),
(364,226,ls),
(364,165,o),
(330,123,o),
(274,123,cs),
(222,123,o),
(197,154,o),
(197,210,cs),
(197,512,l),
(35,512,l),
(35,176,ls),
(35,62,o),
(97,-15,o),
(215,-15,cs)
);
}
);
width = 566;
}
);
note = ucircumflex;
unicode = 251;
},
{
glyphname = udieresis;
kernLeft = u;
kernRight = u;
layers = (
{
hints = (
{
horizontal = 1;
place = (-15, 138);
place = (-15, 138);
type = Stem;
},
{
horizontal = 1;
place = (512, -20);
target = down;
type = TopGhost;
},
{
horizontal = 1;
place = (577, 128);
place = (577, 128);
type = Stem;
},
{
place = (93, 153);
place = (93, 153);
type = Stem;
},
{
place = (318, 153);
place = (318, 153);
type = Stem;
},
{
place = (35, 162);
place = (35, 162);
type = Stem;
},
{
place = (364, 163);
place = (364, 163);
type = Stem;
},
{
horizontal = 1;
place = (0, 123);
place = (0, 123);
type = Stem;
}
);
layerId = m01;
shapes = (
{
closed = 1;
nodes = (
(93,577,l),
(246,577,l),
(246,705,l),
(93,705,l)
);
},
{
closed = 1;
nodes = (
(318,577,l),
(471,577,l),
(471,705,l),
(318,705,l)
);
},
{
closed = 1;
nodes = (
(286,-15,o),
(331,13,o),
(368,63,c),
(371,63,l),
(371,0,l),
(527,0,l),
(527,512,l),
(364,512,l),
(364,226,ls),
(364,165,o),
(330,123,o),
(274,123,cs),
(222,123,o),
(197,154,o),
(197,210,cs),
(197,512,l),
(35,512,l),
(35,176,ls),
(35,62,o),
(97,-15,o),
(215,-15,cs)
);
}
);
width = 566;
}
);
note = udieresis;
unicode = 252;
},
{
glyphname = dagger;
layers = (
{
hints = (
{
horizontal = 1;
place = (381, 134);
place = (381, 134);
type = Stem;
},
{
horizontal = 1;
place = (715, -20);
target = down;
type = TopGhost;
},
{
place = (210, 170);
place = (210, 170);
type = Stem;
}
);
layerId = m01;
shapes = (
{
closed = 1;
nodes = (
(210,-143,l),
(380,-143,l),
(380,381,l),
(555,381,l),
(555,515,l),
(380,515,l),
(380,715,l),
(210,715,l),
(210,515,l),
(34,515,l),
(34,381,l),
(210,381,l)
);
}
);
width = 589;
}
);
note = dagger;
unicode = 8224;
},
{
glyphname = degree;
layers = (
{
hints = (
{
horizontal = 1;
place = (400, 78);
place = (400, 78);
type = Stem;
},
{
horizontal = 1;
place = (622, 78);
place = (622, 78);
type = Stem;
},
{
place = (32, 88);
place = (32, 88);
type = Stem;
},
{
place = (256, 88);
place = (256, 88);
type = Stem;
}
);
layerId = m01;
shapes = (
{
closed = 1;
nodes = (
(145,478,o),
(120,510,o),
(120,549,cs),
(120,587,o),
(145,622,o),
(188,622,cs),
(230,622,o),
(256,587,o),
(256,549,cs),
(256,510,o),
(230,478,o),
(188,478,cs)
);
},
{
closed = 1;
nodes = (
(272,400,o),
(344,464,o),
(344,549,cs),
(344,633,o),
(272,700,o),
(188,700,cs),
(103,700,o),
(32,633,o),
(32,549,cs),
(32,464,o),
(103,400,o),
(188,400,cs)
);
}
);
width = 375;
}
);
note = degree;
unicode = 176;
},
{
glyphname = cent;
layers = (
{
hints = (
{
horizontal = 1;
place = (-15, 21);
target = up;
type = BottomGhost;
},
{
horizontal = 1;
place = (525, -20);
target = down;
type = TopGhost;
},
{
place = (16, 160);
place = (16, 160);
type = Stem;
},
{
place = (251, 61);
place = (251, 61);
type = Stem;
},
{
place = (376, 151);
place = (376, 151);
type = Stem;
},
{
horizontal = 1;
place = (-14, 21);
target = up;
type = BottomGhost;
},
{
horizontal = 1;
place = (524, -20);
target = down;
type = TopGhost;
}
);
layerId = m01;
shapes = (
{
closed = 1;
nodes = (
(251,-107,l),
(312,-107,l),
(312,-15,l),
(441,-4,o),
(522,84,o),
(527,194,c),
(376,194,l),
(370,147,o),
(347,118,o),
(312,108,c),
(312,402,l),
(343,392,o),
(363,365,o),
(371,330,c),
(523,330,l),
(509,436,o),
(433,513,o),
(312,525,c),
(312,594,l),
(251,594,l),
(251,524,l),
(106,510,o),
(16,399,o),
(16,255,cs),
(16,112,o),
(106,1,o),
(251,-14,c)
);
},
{
closed = 1;
nodes = (
(251,109,l),
(201,125,o),
(176,179,o),
(176,255,cs),
(176,332,o),
(202,386,o),
(251,402,c)
);
}
);
width = 544;
}
);
note = cent;
unicode = 162;
},
{
glyphname = sterling;
layers = (
{
hints = (
{
horizontal = 1;
place = (-15, 152);
place = (-15, 152);
type = Stem;
},
{
horizontal = 1;
place = (289, 93);
place = (289, 93);
type = Stem;
},
{
horizontal = 1;
place = (567, 132);
place = (567, 132);
type = Stem;
},
{
place = (40, 177);
place = (40, 177);
type = Stem;
},
{
place = (411, 162);
place = (411, 162);
type = Stem;
},
{
horizontal = 1;
place = (-10, 21);
target = up;
type = BottomGhost;
},
{
horizontal = 1;
place = (34, 128);
place = (34, 128);
type = Stem;
},
{
place = (118, 162);
place = (118, 162);
type = Stem;
}
);
layerId = m01;
shapes = (
{
closed = 1;
nodes = (
(480,-15,o),
(539,12,o),
(578,46,c),
(509,177,l),
(488,158,o),
(455,137,o),
(417,137,cs),
(364,137,o),
(351,162,o),
(279,162,cs),
(250,162,o),
(227,155,o),
(207,147,c),
(205,150,l),
(253,184,o),
(280,225,o),
(280,273,cs),
(280,277,o),
(280,284,o),
(279,289,c),
(384,289,l),
(384,382,l),
(249,382,l),
(233,414,o),
(217,444,o),
(217,481,cs),
(217,532,o),
(247,567,o),
(308,567,cs),
(369,567,o),
(410,532,o),
(411,449,c),
(573,449,l),
(571,545,o),
(543,602,o),
(492,643,cs),
(445,681,o),
(383,699,o),
(305,699,cs),
(131,699,o),
(40,606,o),
(40,486,cs),
(40,443,o),
(52,411,o),
(68,382,c),
(28,382,l),
(28,289,l),
(113,289,l),
(116,276,o),
(118,263,o),
(118,249,cs),
(118,195,o),
(78,149,o),
(23,113,c),
(104,-10,l),
(137,14,o),
(169,34,o),
(210,34,cs),
(288,34,o),
(320,-15,o),
(420,-15,cs)
);
}
);
width = 591;
}
);
note = sterling;
unicode = 163;
},
{
glyphname = section;
layers = (
{
hints = (
{
horizontal = 1;
place = (-181, 124);
place = (-181, 124);
type = Stem;
},
{
horizontal = 1;
place = (595, 119);
place = (595, 119);
type = Stem;
},
{
place = (98, 157);
place = (98, 157);
type = Stem;
},
{
place = (394, 159);
place = (394, 159);
type = Stem;
},
{
place = (447, 153);
place = (447, 153);
type = Stem;
},
{
place = (29, 148);
place = (29, 148);
type = Stem;
}
);
layerId = m01;
shapes = (
{
closed = 1;
nodes = (
(459,-181,o),
(553,-117,o),
(553,1,cs),
(553,62,o),
(525,101,o),
(489,127,c),
(557,147,o),
(600,188,o),
(600,266,cs),
(600,370,o),
(504,413,o),
(401,455,cs),
(301,495,o),
(255,507,o),
(255,546,cs),
(255,574,o),
(276,595,o),
(323,595,cs),
(376,595,o),
(400,567,o),
(404,523,c),
(545,523,l),
(539,646,o),
(450,714,o),
(316,714,cs),
(188,714,o),
(98,646,o),
(98,547,cs),
(98,492,o),
(116,464,o),
(147,438,c),
(74,417,o),
(29,367,o),
(29,297,cs),
(29,195,o),
(104,149,o),
(227,101,cs),
(339,58,o),
(394,48,o),
(394,1,cs),
(394,-32,o),
(366,-57,o),
(320,-57,cs),
(262,-57,o),
(228,-26,o),
(227,27,c),
(78,27,l),
(82,-102,o),
(174,-181,o),
(327,-181,cs)
);
},
{
closed = 1;
nodes = (
(305,230,ls),
(209,272,o),
(177,285,o),
(177,317,cs),
(177,342,o),
(193,359,o),
(224,367,c),
(253,353,o),
(288,339,o),
(323,325,cs),
(398,295,o),
(447,277,o),
(447,241,cs),
(447,215,o),
(426,198,o),
(395,190,c)
);
}
);
width = 625;
}
);
note = section;
unicode = 167;
},
{
glyphname = bullet;
layers = (
{
hints = (
{
horizontal = 1;
place = (170, 300);
place = (170, 300);
type = Stem;
},
{
place = (37, 300);
place = (37, 300);
type = Stem;
}
);
layerId = m01;
shapes = (
{
closed = 1;
nodes = (
(269,170,o),
(337,238,o),
(337,320,cs),
(337,402,o),
(269,470,o),
(187,470,cs),
(105,470,o),
(37,402,o),
(37,320,cs),
(37,238,o),
(105,170,o),
(187,170,cs)
);
}
);
width = 374;
}
);
note = bullet;
unicode = 8226;
},
{
glyphname = paragraph;
layers = (
{
hints = (
{
horizontal = 1;
place = (0, 21);
target = up;
type = BottomGhost;
},
{
horizontal = 1;
place = (619, 96);
place = (619, 96);
type = Stem;
},
{
place = (278, 104);
place = (278, 104);
type = Stem;
},
{
place = (446, 103);
place = (446, 103);
type = Stem;
}
);
layerId = m01;
shapes = (
{
closed = 1;
nodes = (
(278,0,l),
(382,0,l),
(382,619,l),
(446,619,l),
(446,0,l),
(549,0,l),
(549,715,l),
(236,715,ls),
(169,715,o),
(120,698,o),
(84,665,cs),
(47,630,o),
(27,581,o),
(27,522,cs),
(27,412,o),
(101,335,o),
(216,335,cs),
(278,335,l)
);
}
);
width = 603;
}
);
note = paragraph;
unicode = 182;
},
{
glyphname = germandbls;
kernLeft = germandbls;
kernRight = germandbls;
layers = (
{
hints = (
{
horizontal = 1;
place = (-9, 21);
target = up;
type = BottomGhost;
},
{
horizontal = 1;
place = (355, 93);
place = (355, 93);
type = Stem;
},
{
horizontal = 1;
place = (606, 123);
place = (606, 123);
type = Stem;
},
{
place = (39, 163);
place = (39, 163);
type = Stem;
},
{
place = (399, 161);
place = (399, 161);
type = Stem;
},
{
horizontal = 1;
place = (0, 21);
target = up;
type = BottomGhost;
},
{
place = (371, 152);
place = (371, 152);
type = Stem;
},
{
horizontal = 1;
place = (1, 21);
target = up;
type = BottomGhost;
},
{
place = (257, 178);
place = (257, 178);
type = Stem;
}
);
layerId = m01;
shapes = (
{
closed = 1;
nodes = (
(463,-9,o),
(560,70,o),
(560,224,cs),
(560,316,o),
(516,383,o),
(435,409,c),
(435,412,l),
(494,436,o),
(523,480,o),
(523,541,cs),
(523,655,o),
(432,729,o),
(289,729,cs),
(135,729,o),
(39,647,o),
(39,514,cs),
(39,0,l),
(202,0,l),
(202,510,ls),
(202,573,o),
(238,606,o),
(292,606,cs),
(343,606,o),
(371,574,o),
(371,529,cs),
(371,476,o),
(335,450,o),
(278,448,cs),
(257,448,l),
(257,355,l),
(284,355,ls),
(362,355,o),
(399,313,o),
(399,238,cs),
(399,148,o),
(347,108,o),
(255,119,c),
(255,1,l),
(277,-6,o),
(302,-9,o),
(331,-9,cs)
);
}
);
width = 576;
}
);
note = germandbls;
unicode = 223;
},
{
glyphname = registered;
kernLeft = registered;
kernRight = registered;
layers = (
{
hints = (
{
horizontal = 1;
place = (244, 39);
place = (244, 39);
type = Stem;
},
{
horizontal = 1;
place = (450, 53);
place = (450, 53);
type = Stem;
},
{
horizontal = 1;
place = (557, 59);
place = (557, 59);
type = Stem;
},
{
horizontal = 1;
place = (688, 40);
place = (688, 40);
type = Stem;
},
{
place = (26, 46);
place = (26, 46);
type = Stem;
},
{
place = (160, 76);
place = (160, 76);
type = Stem;
},
{
place = (308, 75);
place = (308, 75);
type = Stem;
},
{
place = (459, 46);
place = (459, 46);
type = Stem;
}
);
layerId = m01;
shapes = (
{
closed = 1;
nodes = (
(160,360,l),
(236,360,l),
(236,450,l),
(267,450,ls),
(290,450,o),
(301,441,o),
(304,419,cs),
(308,395,o),
(308,364,o),
(315,360,c),
(389,360,l),
(389,366,l),
(379,371,o),
(383,402,o),
(377,433,cs),
(372,455,o),
(363,470,o),
(340,477,c),
(340,479,l),
(368,489,o),
(383,511,o),
(383,540,cs),
(383,590,o),
(338,616,o),
(286,616,cs),
(160,616,l)
);
},
{
closed = 1;
nodes = (
(236,503,l),
(236,557,l),
(274,557,ls),
(298,557,o),
(308,548,o),
(308,530,cs),
(308,512,o),
(297,503,o),
(274,503,cs)
);
},
{
closed = 1;
nodes = (
(155,283,o),
(72,369,o),
(72,486,cs),
(72,602,o),
(155,688,o),
(266,688,cs),
(377,688,o),
(459,602,o),
(459,486,cs),
(459,369,o),
(377,283,o),
(266,283,cs)
);
},
{
closed = 1;
nodes = (
(400,244,o),
(505,347,o),
(505,486,cs),
(505,625,o),
(400,728,o),
(266,728,cs),
(132,728,o),
(26,625,o),
(26,486,cs),
(26,347,o),
(132,244,o),
(266,244,cs)
);
}
);
width = 531;
}
);
note = registered;
unicode = 174;
},
{
glyphname = copyright;
kernLeft = copyright;
kernRight = copyright;
layers = (
{
hints = (
{
horizontal = 1;
place = (-17, 52);
place = (-17, 52);
type = Stem;
},
{
horizontal = 1;
place = (135, 103);
place = (135, 103);
type = Stem;
},
{
horizontal = 1;
place = (480, 104);
place = (480, 104);
type = Stem;
},
{
horizontal = 1;
place = (676, 52);
place = (676, 52);
type = Stem;
},
{
place = (40, 61);
place = (40, 61);
type = Stem;
},
{
place = (197, 126);
place = (197, 126);
type = Stem;
},
{
place = (716, 61);
place = (716, 61);
type = Stem;
}
);
layerId = m01;
shapes = (
{
closed = 1;
nodes = (
(475,135,o),
(520,151,o),
(555,185,cs),
(585,214,o),
(606,256,o),
(610,302,c),
(489,302,l),
(485,267,o),
(459,238,o),
(414,238,cs),
(358,238,o),
(323,289,o),
(323,359,cs),
(323,428,o),
(352,480,o),
(412,480,cs),
(454,480,o),
(479,454,o),
(485,422,c),
(605,422,l),
(600,472,o),
(577,516,o),
(539,545,cs),
(506,569,o),
(464,584,o),
(413,584,cs),
(283,584,o),
(197,488,o),
(197,359,cs),
(197,230,o),
(283,135,o),
(412,135,cs)
);
},
{
closed = 1;
nodes = (
(233,35,o),
(101,172,o),
(101,355,cs),
(101,539,o),
(233,676,o),
(409,676,cs),
(584,676,o),
(716,539,o),
(716,355,cs),
(716,172,o),
(584,35,o),
(409,35,cs)
);
},
{
closed = 1;
nodes = (
(615,-17,o),
(777,141,o),
(777,355,cs),
(777,569,o),
(615,728,o),
(409,728,cs),
(203,728,o),
(40,569,o),
(40,355,cs),
(40,141,o),
(203,-17,o),
(409,-17,cs)
);
}
);
width = 817;
}
);
note = copyright;
unicode = 169;
},
{
glyphname = trademark;
kernLeft = trademark;
layers = (
{
hints = (
{
horizontal = 1;
place = (440, 120);
place = (440, 120);
type = Stem;
},
{
horizontal = 1;
place = (643, 72);
place = (643, 72);
type = Stem;
},
{
place = (109, 89);
place = (109, 89);
type = Stem;
},
{
place = (314, 80);
place = (314, 80);
type = Stem;
},
{
place = (564, 82);
place = (564, 82);
type = Stem;
}
);
layerId = m01;
shapes = (
{
closed = 1;
nodes = (
(314,440,l),
(394,440,l),
(394,605,l),
(396,605,l),
(446,440,l),
(511,440,l),
(562,605,l),
(564,605,l),
(564,440,l),
(646,440,l),
(646,715,l),
(524,715,l),
(480,560,l),
(478,560,l),
(435,715,l),
(314,715,l)
);
},
{
closed = 1;
nodes = (
(109,440,l),
(198,440,l),
(198,643,l),
(276,643,l),
(276,715,l),
(31,715,l),
(31,643,l),
(109,643,l)
);
}
);
width = 699;
}
);
note = trademark;
unicode = 8482;
},
{
glyphname = acute;
layers = (
{
hints = (
{
horizontal = 1;
place = (572, 148);
place = (572, 148);
type = Stem;
},
{
place = (171, 245);
place = (171, 245);
type = Stem;
}
);
layerId = m01;
shapes = (
{
closed = 1;
nodes = (
(171,572,l),
(295,572,l),
(416,720,l),
(228,720,l)
);
}
);
width = 500;
}
);
note = acute;
unicode = 180;
},
{
glyphname = dieresis;
layers = (
{
hints = (
{
horizontal = 1;
place = (577, 128);
place = (577, 128);
type = Stem;
},
{
place = (61, 153);
place = (61, 153);
type = Stem;
},
{
place = (286, 153);
place = (286, 153);
type = Stem;
}
);
layerId = m01;
shapes = (
{
closed = 1;
nodes = (
(61,577,l),
(214,577,l),
(214,705,l),
(61,705,l)
);
},
{
closed = 1;
nodes = (
(286,577,l),
(439,577,l),
(439,705,l),
(286,705,l)
);
}
);
width = 500;
}
);
note = dieresis;
unicode = 168;
},
{
glyphname = notequal;
layers = (
{
hints = (
{
horizontal = 1;
place = (140, 125);
place = (140, 125);
type = Stem;
},
{
horizontal = 1;
place = (354, 125);
place = (354, 125);
type = Stem;
},
{
place = (51, 468);
place = (51, 468);
type = Stem;
}
);
layerId = m01;
shapes = (
{
closed = 1;
nodes = (
(51,354,l),
(257,354,l),
(216,265,l),
(51,265,l),
(51,140,l),
(157,140,l),
(119,58,l),
(222,58,l),
(260,140,l),
(519,140,l),
(519,265,l),
(319,265,l),
(360,354,l),
(519,354,l),
(519,479,l),
(419,479,l),
(458,563,l),
(355,563,l),
(316,479,l),
(51,479,l)
);
}
);
width = 563;
}
);
note = notequal;
unicode = 8800;
},
{
glyphname = AE;
kernLeft = AE;
kernRight = E;
layers = (
{
hints = (
{
horizontal = 1;
place = (0, 155);
place = (0, 155);
type = Stem;
},
{
horizontal = 1;
place = (302, 137);
place = (302, 137);
type = Stem;
},
{
horizontal = 1;
place = (568, 147);
place = (568, 147);
type = Stem;
},
{
place = (431, 179);
place = (431, 179);
type = Stem;
},
{
horizontal = 1;
place = (126, 123);
place = (126, 123);
type = Stem;
}
);
layerId = m01;
shapes = (
{
closed = 1;
nodes = (
(-1,0,l),
(174,0,l),
(215,126,l),
(431,126,l),
(431,0,l),
(966,0,l),
(966,155,l),
(610,155,l),
(610,302,l),
(903,302,l),
(903,439,l),
(610,439,l),
(610,568,l),
(955,568,l),
(955,715,l),
(241,715,l)
);
},
{
closed = 1;
nodes = (
(255,249,l),
(358,568,l),
(431,568,l),
(431,249,l)
);
}
);
width = 995;
}
);
note = AE;
unicode = 198;
},
{
glyphname = Oslash;
kernLeft = C;
kernRight = O;
layers = (
{
hints = (
{
horizontal = 1;
place = (-17, 144);
place = (-17, 144);
type = Stem;
},
{
horizontal = 1;
place = (586, 143);
place = (586, 143);
type = Stem;
},
{
place = (20, 180);
place = (20, 180);
type = Stem;
},
{
place = (547, 180);
place = (547, 180);
type = Stem;
},
{
horizontal = 1;
place = (693, -20);
target = down;
type = TopGhost;
}
);
layerId = m01;
shapes = (
{
closed = 1;
nodes = (
(77,-35,l),
(155,53,l),
(213,9,o),
(286,-17,o),
(373,-17,cs),
(590,-17,o),
(727,142,o),
(727,356,cs),
(727,453,o),
(698,540,o),
(646,605,c),
(725,693,l),
(669,742,l),
(593,657,l),
(536,702,o),
(461,729,o),
(373,729,cs),
(157,729,o),
(20,570,o),
(20,356,cs),
(20,257,o),
(49,170,o),
(102,105,c),
(22,15,l)
);
},
{
closed = 1;
nodes = (
(220,237,l),
(206,272,o),
(200,312,o),
(200,356,cs),
(200,486,o),
(259,586,o),
(374,586,cs),
(422,586,o),
(460,568,o),
(488,539,c)
);
},
{
closed = 1;
nodes = (
(327,127,o),
(289,143,o),
(261,172,c),
(528,472,l),
(541,438,o),
(547,398,o),
(547,356,cs),
(547,226,o),
(490,127,o),
(374,127,cs)
);
}
);
width = 747;
}
);
note = Oslash;
unicode = 216;
},
{
glyphname = infinity;
layers = (
{
hints = (
{
horizontal = 1;
place = (119, 118);
place = (119, 118);
type = Stem;
},
{
horizontal = 1;
place = (372, 119);
place = (372, 119);
type = Stem;
},
{
place = (22, 125);
place = (22, 125);
type = Stem;
},
{
place = (580, 123);
place = (580, 123);
type = Stem;
}
);
layerId = m01;
shapes = (
{
closed = 1;
nodes = (
(269,119,o),
(320,164,o),
(365,227,c),
(411,164,o),
(458,119,o),
(539,119,cs),
(636,119,o),
(703,191,o),
(703,305,cs),
(703,418,o),
(636,491,o),
(539,491,cs),
(458,491,o),
(411,445,o),
(365,382,c),
(320,445,o),
(269,491,o),
(185,491,cs),
(81,491,o),
(22,407,o),
(22,305,cs),
(22,203,o),
(80,119,o),
(185,119,cs)
);
},
{
closed = 1;
nodes = (
(163,237,o),
(147,267,o),
(147,305,cs),
(147,342,o),
(163,372,o),
(200,372,cs),
(235,372,o),
(261,340,o),
(282,304,c),
(261,269,o),
(235,237,o),
(200,237,cs)
);
},
{
closed = 1;
nodes = (
(492,237,o),
(468,269,o),
(447,304,c),
(468,340,o),
(492,372,o),
(526,372,cs),
(563,372,o),
(580,342,o),
(580,305,cs),
(580,267,o),
(563,237,o),
(526,237,cs)
);
}
);
width = 725;
}
);
note = infinity;
unicode = 8734;
},
{
glyphname = plusminus;
layers = (
{
hints = (
{
horizontal = 1;
place = (0, 124);
place = (0, 124);
type = Stem;
},
{
horizontal = 1;
place = (309, 130);
place = (309, 130);
type = Stem;
},
{
place = (215, 136);
place = (215, 136);
type = Stem;
}
);
layerId = m01;
shapes = (
{
closed = 1;
nodes = (
(215,168,l),
(351,168,l),
(351,309,l),
(526,309,l),
(526,439,l),
(351,439,l),
(351,579,l),
(215,579,l),
(215,439,l),
(40,439,l),
(40,309,l),
(215,309,l)
);
},
{
closed = 1;
nodes = (
(40,0,l),
(526,0,l),
(526,124,l),
(40,124,l)
);
}
);
width = 566;
}
);
note = plusminus;
unicode = 177;
},
{
glyphname = lessequal;
layers = (
{
hints = (
{
horizontal = 1;
place = (0, 113);
place = (0, 113);
type = Stem;
},
{
place = (43, 412);
place = (43, 412);
type = Stem;
},
{
place = (43, 134);
place = (43, 134);
type = Stem;
}
);
layerId = m01;
shapes = (
{
closed = 1;
nodes = (
(455,130,l),
(455,264,l),
(272,317,ls),
(235,328,o),
(177,341,o),
(177,341,c),
(177,343,l),
(177,343,o),
(236,358,o),
(272,369,cs),
(455,426,l),
(455,556,l),
(43,419,l),
(43,267,l)
);
},
{
closed = 1;
nodes = (
(43,0,l),
(455,0,l),
(455,113,l),
(43,113,l)
);
}
);
width = 502;
}
);
note = lessequal;
unicode = 8804;
},
{
glyphname = greaterequal;
layers = (
{
hints = (
{
horizontal = 1;
place = (0, 113);
place = (0, 113);
type = Stem;
},
{
place = (47, 412);
place = (47, 412);
type = Stem;
},
{
place = (325, 134);
place = (325, 134);
type = Stem;
}
);
layerId = m01;
shapes = (
{
closed = 1;
nodes = (
(47,130,l),
(459,267,l),
(459,419,l),
(47,556,l),
(47,425,l),
(230,370,ls),
(266,359,o),
(325,344,o),
(325,344,c),
(325,342,l),
(325,342,o),
(267,328,o),
(230,318,cs),
(47,263,l)
);
},
{
closed = 1;
nodes = (
(47,0,l),
(459,0,l),
(459,113,l),
(47,113,l)
);
}
);
width = 502;
}
);
note = greaterequal;
unicode = 8805;
},
{
glyphname = yen;
layers = (
{
hints = (
{
horizontal = 1;
place = (0, 192);
place = (0, 192);
type = Stem;
},
{
horizontal = 1;
place = (249, 65);
place = (249, 65);
type = Stem;
},
{
horizontal = 1;
place = (686, -20);
target = down;
type = TopGhost;
},
{
place = (240, 163);
place = (240, 163);
type = Stem;
},
{
horizontal = 1;
place = (128, 64);
place = (128, 64);
type = Stem;
}
);
layerId = m01;
shapes = (
{
closed = 1;
nodes = (
(240,0,l),
(403,0,l),
(403,128,l),
(571,128,l),
(571,192,l),
(403,192,l),
(403,249,l),
(571,249,l),
(571,314,l),
(427,314,l),
(641,686,l),
(458,686,l),
(368,511,ls),
(346,467,o),
(324,415,o),
(324,415,c),
(322,415,l),
(322,415,o),
(301,467,o),
(279,511,cs),
(188,686,l),
(1,686,l),
(214,314,l),
(71,314,l),
(71,249,l),
(240,249,l),
(240,192,l),
(71,192,l),
(71,128,l),
(240,128,l)
);
}
);
width = 646;
}
);
note = yen;
unicode = 165;
},
{
glyphname = mu;
layers = (
{
hints = (
{
horizontal = 1;
place = (-169, 21);
target = up;
type = BottomGhost;
},
{
horizontal = 1;
place = (0, 122);
place = (0, 122);
type = Stem;
},
{
horizontal = 1;
place = (512, -20);
target = down;
type = TopGhost;
},
{
place = (39, 162);
place = (39, 162);
type = Stem;
},
{
place = (368, 163);
place = (368, 163);
type = Stem;
},
{
horizontal = 1;
place = (-13, 135);
place = (-13, 135);
type = Stem;
}
);
layerId = m01;
shapes = (
{
closed = 1;
nodes = (
(39,-169,l),
(199,-169,l),
(199,2,l),
(201,2,l),
(212,-6,o),
(227,-13,o),
(251,-13,cs),
(302,-13,o),
(342,13,o),
(372,63,c),
(375,63,l),
(375,0,l),
(531,0,l),
(531,512,l),
(368,512,l),
(368,225,ls),
(368,163,o),
(334,122,o),
(278,122,cs),
(226,122,o),
(201,152,o),
(201,209,cs),
(201,512,l),
(39,512,l)
);
}
);
width = 570;
}
);
note = mu;
unicode = 181;
},
{
glyphname = partialdiff;
layers = (
{
hints = (
{
horizontal = 1;
place = (-15, 116);
place = (-15, 116);
type = Stem;
},
{
horizontal = 1;
place = (358, 113);
place = (358, 113);
type = Stem;
},
{
horizontal = 1;
place = (722, -20);
target = down;
type = TopGhost;
},
{
place = (20, 163);
place = (20, 163);
type = Stem;
},
{
place = (384, 172);
place = (384, 172);
type = Stem;
}
);
layerId = m01;
shapes = (
{
closed = 1;
nodes = (
(463,-15,o),
(556,110,o),
(556,314,cs),
(556,569,o),
(416,709,o),
(149,722,c),
(149,584,l),
(277,569,o),
(361,524,o),
(383,433,c),
(358,457,o),
(320,471,o),
(267,471,cs),
(122,471,o),
(20,366,o),
(20,215,cs),
(20,81,o),
(106,-15,o),
(270,-15,cs)
);
},
{
closed = 1;
nodes = (
(218,101,o),
(183,138,o),
(183,215,cs),
(183,305,o),
(229,358,o),
(296,358,cs),
(350,358,o),
(384,323,o),
(384,253,cs),
(384,176,o),
(348,101,o),
(272,101,cs)
);
}
);
width = 580;
}
);
note = partialdiff;
unicode = 8706;
},
{
glyphname = summation;
layers = (
{
hints = (
{
horizontal = 1;
place = (-100, 142);
place = (-100, 142);
type = Stem;
},
{
horizontal = 1;
place = (577, 138);
place = (577, 138);
type = Stem;
},
{
place = (32, 550);
place = (32, 550);
type = Stem;
},
{
place = (32, 199);
place = (32, 199);
type = Stem;
}
);
layerId = m01;
shapes = (
{
closed = 1;
nodes = (
(32,-100,l),
(582,-100,l),
(582,42,l),
(224,42,l),
(224,44,l),
(454,284,l),
(454,354,l),
(231,575,l),
(231,577,l),
(572,577,l),
(572,715,l),
(32,715,l),
(32,575,l),
(284,317,l),
(284,315,l),
(32,45,l)
);
}
);
width = 611;
}
);
note = summation;
unicode = 8721;
},
{
glyphname = product;
layers = (
{
hints = (
{
horizontal = 1;
place = (570, 145);
place = (570, 145);
type = Stem;
},
{
place = (53, 174);
place = (53, 174);
type = Stem;
},
{
place = (492, 174);
place = (492, 174);
type = Stem;
}
);
layerId = m01;
shapes = (
{
closed = 1;
nodes = (
(53,-100,l),
(227,-100,l),
(227,570,l),
(492,570,l),
(492,-100,l),
(666,-100,l),
(666,715,l),
(53,715,l)
);
}
);
width = 719;
}
);
note = product;
unicode = 8719;
},
{
glyphname = pi;
layers = (
{
hints = (
{
horizontal = 1;
place = (-5, 119);
place = (-5, 119);
type = Stem;
},
{
horizontal = 1;
place = (410, 102);
place = (410, 102);
type = Stem;
},
{
place = (86, 159);
place = (86, 159);
type = Stem;
},
{
place = (377, 159);
place = (377, 159);
type = Stem;
},
{
horizontal = 1;
place = (0, 21);
target = up;
type = BottomGhost;
}
);
layerId = m01;
shapes = (
{
closed = 1;
nodes = (
(564,-5,o),
(582,-2,o),
(599,2,c),
(599,116,l),
(594,115,o),
(584,114,o),
(573,114,cs),
(546,114,o),
(536,125,o),
(536,156,cs),
(536,410,l),
(609,410,l),
(609,512,l),
(15,512,l),
(15,410,l),
(86,410,l),
(86,0,l),
(245,0,l),
(245,410,l),
(377,410,l),
(377,131,ls),
(377,28,o),
(441,-5,o),
(530,-5,cs)
);
}
);
width = 633;
}
);
note = pi;
unicode = 960;
},
{
glyphname = integral;
layers = (
{
hints = (
{
horizontal = 1;
place = (-176, 127);
place = (-176, 127);
type = Stem;
},
{
horizontal = 1;
place = (615, 126);
place = (615, 126);
type = Stem;
},
{
place = (102, 163);
place = (102, 163);
type = Stem;
}
);
layerId = m01;
shapes = (
{
closed = 1;
nodes = (
(155,-176,o),
(196,-163,o),
(227,-132,cs),
(250,-108,o),
(265,-73,o),
(265,-9,cs),
(265,563,ls),
(265,603,o),
(284,614,o),
(322,615,cs),
(341,615,o),
(356,613,o),
(370,610,c),
(372,610,l),
(372,731,l),
(346,737,o),
(312,741,o),
(278,741,cs),
(212,741,o),
(171,729,o),
(140,698,cs),
(117,673,o),
(102,639,o),
(102,574,cs),
(102,3,ls),
(102,-38,o),
(82,-49,o),
(43,-49,cs),
(24,-49,o),
(9,-47,o),
(-4,-45,cs),
(-5,-45,l),
(-5,-165,l),
(21,-172,o),
(55,-176,o),
(90,-176,cs)
);
}
);
width = 365;
}
);
note = integral;
unicode = 8747;
},
{
glyphname = ordfeminine;
layers = (
{
hints = (
{
horizontal = 1;
place = (226, 92);
place = (226, 92);
type = Stem;
},
{
horizontal = 1;
place = (601, 98);
place = (601, 98);
type = Stem;
},
{
place = (25, 142);
place = (25, 142);
type = Stem;
},
{
place = (319, 142);
place = (319, 142);
type = Stem;
},
{
horizontal = 1;
place = (236, 7);
place = (236, 7);
type = Stem;
},
{
horizontal = 1;
place = (544, 155);
place = (544, 155);
type = Stem;
}
);
layerId = m01;
shapes = (
{
closed = 1;
nodes = (
(248,226,o),
(290,249,o),
(316,286,c),
(318,286,l),
(321,264,o),
(327,246,o),
(333,236,c),
(477,236,l),
(477,243,l),
(465,251,o),
(461,271,o),
(461,307,cs),
(461,534,ls),
(461,590,o),
(442,634,o),
(402,662,cs),
(369,687,o),
(322,699,o),
(253,699,cs),
(116,699,o),
(49,628,o),
(45,544,c),
(182,544,l),
(186,580,o),
(207,601,o),
(255,601,cs),
(299,601,o),
(315,582,o),
(315,554,cs),
(315,524,o),
(288,516,o),
(200,504,cs),
(102,491,o),
(25,462,o),
(25,363,cs),
(25,274,o),
(93,226,o),
(182,226,cs)
);
},
{
closed = 1;
nodes = (
(193,318,o),
(167,333,o),
(167,368,cs),
(167,400,o),
(187,415,o),
(244,427,cs),
(274,434,o),
(301,441,o),
(319,451,c),
(319,397,ls),
(319,349,o),
(280,318,o),
(227,318,cs)
);
}
);
width = 510;
}
);
note = ordfeminine;
unicode = 170;
},
{
glyphname = ordmasculine;
layers = (
{
hints = (
{
horizontal = 1;
place = (223, 103);
place = (223, 103);
type = Stem;
},
{
horizontal = 1;
place = (596, 103);
place = (596, 103);
type = Stem;
},
{
place = (18, 150);
place = (18, 150);
type = Stem;
},
{
place = (353, 150);
place = (353, 150);
type = Stem;
}
);
layerId = m01;
shapes = (
{
closed = 1;
nodes = (
(199,326,o),
(168,381,o),
(168,461,cs),
(168,540,o),
(199,596,o),
(260,596,cs),
(321,596,o),
(353,540,o),
(353,461,cs),
(353,381,o),
(321,326,o),
(260,326,cs)
);
},
{
closed = 1;
nodes = (
(407,223,o),
(503,325,o),
(503,461,cs),
(503,596,o),
(407,699,o),
(261,699,cs),
(114,699,o),
(18,596,o),
(18,461,cs),
(18,325,o),
(114,223,o),
(261,223,cs)
);
}
);
width = 521;
}
);
note = ordmasculine;
unicode = 186;
},
{
glyphname = Omega;
layers = (
{
hints = (
{
horizontal = 1;
place = (0, 133);
place = (0, 133);
type = Stem;
},
{
horizontal = 1;
place = (586, 143);
place = (586, 143);
type = Stem;
},
{
place = (21, 180);
place = (21, 180);
type = Stem;
},
{
place = (540, 180);
place = (540, 180);
type = Stem;
}
);
layerId = m01;
shapes = (
{
closed = 1;
nodes = (
(29,0,l),
(335,0,l),
(335,128,l),
(244,147,o),
(201,229,o),
(201,363,cs),
(201,502,o),
(258,586,o),
(371,586,cs),
(484,586,o),
(540,502,o),
(540,363,cs),
(540,229,o),
(498,147,o),
(406,128,c),
(406,0,l),
(712,0,l),
(712,133,l),
(612,133,l),
(612,136,l),
(686,184,o),
(720,275,o),
(720,381,cs),
(720,583,o),
(581,729,o),
(371,729,cs),
(160,729,o),
(21,583,o),
(21,381,cs),
(21,275,o),
(55,184,o),
(130,136,c),
(130,133,l),
(29,133,l)
);
}
);
width = 741;
}
);
note = Omega;
unicode = 8486;
},
{
glyphname = ae;
kernLeft = a;
kernRight = e;
layers = (
{
hints = (
{
horizontal = 1;
place = (-14, 105);
place = (-14, 105);
type = Stem;
},
{
horizontal = 1;
place = (214, 97);
place = (214, 97);
type = Stem;
},
{
horizontal = 1;
place = (416, 110);
place = (416, 110);
type = Stem;
},
{
place = (15, 155);
place = (15, 155);
type = Stem;
},
{
horizontal = 1;
place = (-15, 117);
place = (-15, 117);
type = Stem;
},
{
horizontal = 1;
place = (411, 116);
place = (411, 116);
type = Stem;
},
{
horizontal = 1;
place = (350, 176);
place = (350, 176);
type = Stem;
}
);
layerId = m01;
shapes = (
{
closed = 1;
nodes = (
(310,-14,o),
(364,12,o),
(416,67,c),
(460,17,o),
(527,-15,o),
(613,-15,cs),
(681,-15,o),
(735,3,o),
(778,36,cs),
(820,67,o),
(849,109,o),
(859,153,c),
(701,153,l),
(686,121,o),
(659,102,o),
(616,102,cs),
(549,102,o),
(511,145,o),
(500,214,c),
(868,214,l),
(869,323,o),
(836,416,o),
(770,471,cs),
(727,507,o),
(672,527,o),
(603,527,cs),
(538,527,o),
(484,507,o),
(443,472,c),
(404,514,o),
(344,526,o),
(272,526,cs),
(116,526,o),
(42,445,o),
(38,350,c),
(188,350,l),
(192,393,o),
(219,416,o),
(273,416,cs),
(324,416,o),
(345,394,o),
(345,361,cs),
(345,326,o),
(312,317,o),
(212,304,cs),
(104,289,o),
(15,256,o),
(15,143,cs),
(15,42,o),
(93,-14,o),
(210,-14,cs)
);
},
{
closed = 1;
nodes = (
(202,91,o),
(170,107,o),
(170,148,cs),
(170,187,o),
(195,203,o),
(262,217,cs),
(296,225,o),
(328,233,o),
(349,244,c),
(349,183,ls),
(349,128,o),
(305,91,o),
(242,91,cs)
);
},
{
closed = 1;
nodes = (
(660,411,o),
(697,372,o),
(703,311,c),
(501,311,l),
(512,372,o),
(544,411,o),
(606,411,cs)
);
}
);
width = 885;
}
);
note = ae;
unicode = 230;
},
{
glyphname = oslash;
kernLeft = c;
kernRight = o;
layers = (
{
hints = (
{
horizontal = 1;
place = (-16, 116);
place = (-16, 116);
type = Stem;
},
{
horizontal = 1;
place = (411, 115);
place = (411, 115);
type = Stem;
},
{
place = (16, 165);
place = (16, 165);
type = Stem;
},
{
place = (398, 165);
place = (398, 165);
type = Stem;
}
);
layerId = m01;
shapes = (
{
closed = 1;
nodes = (
(71,-36,l),
(130,30,l),
(174,1,o),
(228,-16,o),
(290,-16,cs),
(455,-16,o),
(563,101,o),
(563,255,cs),
(563,327,o),
(539,391,o),
(497,439,c),
(553,501,l),
(509,543,l),
(451,479,l),
(407,508,o),
(353,526,o),
(290,526,cs),
(126,526,o),
(16,409,o),
(16,255,cs),
(16,182,o),
(40,118,o),
(84,70,c),
(27,7,l)
);
},
{
closed = 1;
nodes = (
(260,100,o),
(236,110,o),
(219,129,c),
(390,319,l),
(395,300,o),
(398,279,o),
(398,255,cs),
(398,162,o),
(360,100,o),
(289,100,cs)
);
},
{
closed = 1;
nodes = (
(190,189,l),
(184,208,o),
(181,231,o),
(181,255,cs),
(181,348,o),
(218,411,o),
(289,411,cs),
(319,411,o),
(343,400,o),
(362,379,c)
);
}
);
width = 579;
}
);
note = oslash;
unicode = 248;
},
{
glyphname = questiondown;
kernRight = questiondown;
layers = (
{
hints = (
{
horizontal = 1;
place = (-140, 135);
place = (-140, 135);
type = Stem;
},
{
horizontal = 1;
place = (420, 168);
place = (420, 168);
type = Stem;
},
{
place = (17, 172);
place = (17, 172);
type = Stem;
},
{
place = (375, 160);
place = (375, 160);
type = Stem;
},
{
place = (204, 170);
place = (204, 170);
type = Stem;
},
{
place = (214, 145);
place = (214, 145);
type = Stem;
}
);
layerId = m01;
shapes = (
{
closed = 1;
nodes = (
(433,-140,o),
(533,-43,o),
(535,99,c),
(375,99,l),
(374,34,o),
(333,-5,o),
(274,-5,cs),
(226,-5,o),
(189,23,o),
(189,70,cs),
(189,132,o),
(245,147,o),
(290,187,cs),
(337,228,o),
(359,253,o),
(359,355,c),
(214,355,l),
(214,322,o),
(209,304,o),
(195,286,cs),
(179,267,o),
(153,253,o),
(112,227,cs),
(67,197,o),
(17,158,o),
(17,65,cs),
(17,-57,o),
(118,-140,o),
(267,-140,cs)
);
},
{
closed = 1;
nodes = (
(204,420,l),
(374,420,l),
(374,588,l),
(204,588,l)
);
}
);
width = 547;
}
);
note = questiondown;
unicode = 191;
},
{
glyphname = exclamdown;
kernRight = exclamdown;
layers = (
{
hints = (
{
horizontal = 1;
place = (420, 168);
place = (420, 168);
type = Stem;
},
{
place = (47, 170);
place = (47, 170);
type = Stem;
}
);
layerId = m01;
shapes = (
{
closed = 1;
nodes = (
(48,-127,l),
(216,-127,l),
(216,43,l),
(174,355,l),
(90,355,l),
(48,43,l)
);
},
{
closed = 1;
nodes = (
(47,420,l),
(217,420,l),
(217,588,l),
(47,588,l)
);
}
);
width = 264;
}
);
note = exclamdown;
unicode = 161;
},
{
glyphname = logicalnot;
layers = (
{
hints = (
{
horizontal = 1;
place = (299, 131);
place = (299, 131);
type = Stem;
},
{
place = (330, 139);
place = (330, 139);
type = Stem;
}
);
layerId = m01;
shapes = (
{
closed = 1;
nodes = (
(330,134,l),
(469,134,l),
(469,430,l),
(40,430,l),
(40,299,l),
(330,299,l)
);
}
);
width = 524;
}
);
note = logicalnot;
unicode = 172;
},
{
glyphname = radical;
layers = (
{
hints = (
{
horizontal = 1;
place = (200, 138);
place = (200, 138);
type = Stem;
},
{
horizontal = 1;
place = (715, -20);
target = down;
type = TopGhost;
},
{
place = (14, 631);
place = (14, 631);
type = Stem;
}
);
layerId = m01;
shapes = (
{
closed = 1;
nodes = (
(219,-100,l),
(376,-100,l),
(645,715,l),
(483,715,l),
(322,215,ls),
(303,157,o),
(291,102,o),
(291,102,c),
(289,102,l),
(289,102,o),
(273,156,o),
(250,214,cs),
(201,338,l),
(14,338,l),
(14,200,l),
(89,200,l)
);
}
);
width = 652;
}
);
note = radical;
unicode = 8730;
},
{
glyphname = florin;
layers = (
{
hints = (
{
horizontal = 1;
place = (-157, 112);
place = (-157, 112);
type = Stem;
},
{
horizontal = 1;
place = (315, 102);
place = (315, 102);
type = Stem;
},
{
horizontal = 1;
place = (579, 119);
place = (579, 119);
type = Stem;
},
{
place = (-17, 419);
place = (-17, 419);
type = Stem;
},
{
horizontal = 1;
place = (579, 114);
place = (579, 114);
type = Stem;
}
);
layerId = m01;
shapes = (
{
closed = 1;
nodes = (
(-17,-151,l),
(53,-160,o),
(123,-163,o),
(168,-129,cs),
(201,-104,o),
(218,-66,o),
(226,-11,cs),
(273,315,l),
(385,315,l),
(385,417,l),
(288,417,l),
(304,528,ls),
(312,582,o),
(344,583,o),
(402,579,c),
(402,693,l),
(322,703,o),
(244,702,o),
(195,660,cs),
(164,634,o),
(147,598,o),
(140,546,cs),
(121,417,l),
(29,417,l),
(29,315,l),
(106,315,l),
(61,8,ls),
(54,-46,o),
(29,-48,o),
(-17,-45,c)
);
}
);
width = 425;
}
);
note = florin;
unicode = 402;
},
{
glyphname = approxequal;
layers = (
{
hints = (
{
horizontal = 1;
place = (125, 169);
place = (125, 169);
type = Stem;
},
{
horizontal = 1;
place = (339, 163);
place = (339, 163);
type = Stem;
},
{
place = (34, 107);
place = (34, 107);
type = Stem;
},
{
horizontal = 1;
place = (130, 163);
place = (130, 163);
type = Stem;
},
{
horizontal = 1;
place = (334, 168);
place = (334, 168);
type = Stem;
}
);
layerId = m01;
shapes = (
{
closed = 1;
nodes = (
(141,125,l),
(144,150,o),
(156,162,o),
(178,162,cs),
(223,162,o),
(315,130,o),
(389,130,cs),
(480,130,o),
(520,190,o),
(520,293,c),
(413,293,l),
(411,271,o),
(403,260,o),
(378,260,cs),
(334,260,o),
(240,294,o),
(172,294,cs),
(91,294,o),
(35,244,o),
(34,125,c)
);
},
{
closed = 1;
nodes = (
(141,334,l),
(144,359,o),
(156,371,o),
(178,371,cs),
(223,371,o),
(315,339,o),
(389,339,cs),
(480,339,o),
(520,398,o),
(520,502,c),
(413,502,l),
(411,479,o),
(403,469,o),
(378,469,cs),
(334,469,o),
(240,502,o),
(172,502,cs),
(91,502,o),
(35,453,o),
(34,334,c)
);
}
);
width = 546;
}
);
note = approxequal;
unicode = 8776;
},
{
glyphname = Delta;
layers = (
{
hints = (
{
horizontal = 1;
place = (0, 133);
place = (0, 133);
type = Stem;
},
{
horizontal = 1;
place = (715, -20);
target = down;
type = TopGhost;
},
{
place = (22, 637);
place = (22, 637);
type = Stem;
}
);
layerId = m01;
shapes = (
{
closed = 1;
nodes = (
(198,133,l),
(305,437,ls),
(318,473,o),
(336,543,o),
(336,543,c),
(338,543,l),
(338,543,o),
(356,473,o),
(368,437,cs),
(474,133,l)
);
},
{
closed = 1;
nodes = (
(22,0,l),
(659,0,l),
(659,111,l),
(430,715,l),
(249,715,l),
(22,110,l)
);
}
);
width = 680;
}
);
note = Delta;
unicode = 8710;
},
{
glyphname = guillemotleft;
kernLeft = guillemotleft;
kernRight = guillemotleft;
layers = (
{
hints = (
{
horizontal = 1;
place = (42, 419);
place = (42, 419);
type = Stem;
},
{
place = (44, 154);
place = (44, 154);
type = Stem;
},
{
place = (238, 151);
place = (238, 151);
type = Stem;
}
);
layerId = m01;
shapes = (
{
closed = 1;
nodes = (
(198,42,l),
(198,182,l),
(117,249,l),
(117,251,l),
(198,319,l),
(198,461,l),
(44,330,l),
(44,174,l)
);
},
{
closed = 1;
nodes = (
(389,42,l),
(389,182,l),
(310,249,l),
(310,251,l),
(389,319,l),
(389,461,l),
(238,330,l),
(238,174,l)
);
}
);
width = 440;
}
);
note = guillemotleft;
unicode = 171;
},
{
glyphname = guillemotright;
kernLeft = guillemotright;
kernRight = guillemotright;
layers = (
{
hints = (
{
horizontal = 1;
place = (42, 419);
place = (42, 419);
type = Stem;
},
{
place = (51, 151);
place = (51, 151);
type = Stem;
},
{
place = (242, 154);
place = (242, 154);
type = Stem;
}
);
layerId = m01;
shapes = (
{
closed = 1;
nodes = (
(51,42,l),
(202,173,l),
(202,329,l),
(51,461,l),
(51,321,l),
(130,254,l),
(130,252,l),
(51,184,l)
);
},
{
closed = 1;
nodes = (
(242,42,l),
(396,173,l),
(396,329,l),
(242,461,l),
(242,321,l),
(323,254,l),
(323,252,l),
(242,184,l)
);
}
);
width = 440;
}
);
note = guillemotright;
unicode = 187;
},
{
glyphname = ellipsis;
kernLeft = comma;
kernRight = comma;
layers = (
{
hints = (
{
horizontal = 1;
place = (0, 168);
place = (0, 168);
type = Stem;
},
{
place = (32, 171);
place = (32, 171);
type = Stem;
},
{
place = (293, 171);
place = (293, 171);
type = Stem;
},
{
place = (554, 170);
place = (554, 170);
type = Stem;
}
);
layerId = m01;
shapes = (
{
closed = 1;
nodes = (
(32,0,l),
(203,0,l),
(203,168,l),
(32,168,l)
);
},
{
closed = 1;
nodes = (
(293,0,l),
(464,0,l),
(464,168,l),
(293,168,l)
);
},
{
closed = 1;
nodes = (
(554,0,l),
(724,0,l),
(724,168,l),
(554,168,l)
);
}
);
width = 756;
}
);
note = ellipsis;
unicode = 8230;
},
{
glyphname = Agrave;
kernLeft = A;
kernRight = A;
layers = (
{
hints = (
{
horizontal = 1;
place = (0, 21);
target = up;
type = BottomGhost;
},
{
horizontal = 1;
place = (129, 127);
place = (129, 127);
type = Stem;
},
{
horizontal = 1;
place = (715, -20);
target = down;
type = TopGhost;
},
{
horizontal = 1;
place = (750, 130);
place = (750, 130);
type = Stem;
},
{
place = (-1, 697);
place = (-1, 697);
type = Stem;
}
);
layerId = m01;
shapes = (
{
closed = 1;
nodes = (
(-1,0,l),
(177,0,l),
(218,129,l),
(468,129,l),
(510,0,l),
(696,0,l),
(438,715,l),
(256,715,l)
);
},
{
closed = 1;
nodes = (
(259,256,l),
(314,429,ls),
(326,466,o),
(343,530,o),
(343,530,c),
(345,530,l),
(345,530,o),
(361,466,o),
(373,429,cs),
(427,256,l)
);
},
{
closed = 1;
nodes = (
(295,750,l),
(419,750,l),
(376,880,l),
(189,880,l)
);
}
);
width = 697;
}
);
note = Agrave;
unicode = 192;
},
{
glyphname = Atilde;
kernLeft = A;
kernRight = A;
layers = (
{
hints = (
{
horizontal = 1;
place = (0, 21);
target = up;
type = BottomGhost;
},
{
horizontal = 1;
place = (129, 127);
place = (129, 127);
type = Stem;
},
{
horizontal = 1;
place = (715, -20);
target = down;
type = TopGhost;
},
{
place = (281, 132);
place = (281, 132);
type = Stem;
}
);
layerId = m01;
shapes = (
{
closed = 1;
nodes = (
(-1,0,l),
(177,0,l),
(218,129,l),
(468,129,l),
(510,0,l),
(696,0,l),
(438,715,l),
(256,715,l)
);
},
{
closed = 1;
nodes = (
(259,256,l),
(314,429,ls),
(326,466,o),
(343,530,o),
(343,530,c),
(345,530,l),
(345,530,o),
(361,466,o),
(373,429,cs),
(427,256,l)
);
},
{
closed = 1;
nodes = (
(311,750,o),
(368,770,o),
(377,799,c),
(379,799,o),
(382,800,o),
(385,803,c),
(413,808,o),
(420,842,o),
(408,886,c),
(385,886,o),
(326,869,o),
(316,837,c),
(311,834,l),
(288,830,o),
(273,801,o),
(285,750,c)
);
},
{
closed = 1;
nodes = (
(334,809,o),
(333,810,o),
(333,811,c),
(337,809,o),
(340,808,o),
(335,808,c)
);
},
{
closed = 1;
nodes = (
(360,828,o),
(361,827,o),
(362,826,c),
(358,828,o),
(356,829,o),
(360,829,c)
);
}
);
width = 697;
}
);
note = Atilde;
unicode = 195;
},
{
glyphname = Otilde;
kernLeft = C;
kernRight = O;
layers = (
{
hints = (
{
horizontal = 1;
place = (-17, 144);
place = (-17, 144);
type = Stem;
},
{
horizontal = 1;
place = (586, 143);
place = (586, 143);
type = Stem;
},
{
place = (20, 180);
place = (20, 180);
type = Stem;
},
{
place = (307, 132);
place = (307, 132);
type = Stem;
},
{
place = (547, 180);
place = (547, 180);
type = Stem;
}
);
layerId = m01;
shapes = (
{
closed = 1;
nodes = (
(590,-17,o),
(727,142,o),
(727,356,cs),
(727,570,o),
(590,729,o),
(373,729,cs),
(157,729,o),
(20,570,o),
(20,356,cs),
(20,142,o),
(157,-17,o),
(373,-17,cs)
);
},
{
closed = 1;
nodes = (
(259,127,o),
(200,226,o),
(200,356,cs),
(200,486,o),
(259,586,o),
(374,586,cs),
(490,586,o),
(547,486,o),
(547,356,cs),
(547,226,o),
(490,127,o),
(374,127,cs)
);
},
{
closed = 1;
nodes = (
(337,750,o),
(394,770,o),
(403,799,c),
(405,799,o),
(408,800,o),
(411,803,c),
(439,808,o),
(446,842,o),
(434,886,c),
(411,886,o),
(352,869,o),
(342,837,c),
(337,834,l),
(314,830,o),
(299,801,o),
(311,750,c)
);
},
{
closed = 1;
nodes = (
(360,809,o),
(359,810,o),
(359,811,c),
(363,809,o),
(366,808,o),
(361,808,c)
);
},
{
closed = 1;
nodes = (
(386,828,o),
(387,827,o),
(388,826,c),
(384,828,o),
(382,829,o),
(386,829,c)
);
}
);
width = 747;
}
);
note = Otilde;
unicode = 213;
},
{
glyphname = OE;
kernLeft = C;
kernRight = E;
layers = (
{
hints = (
{
horizontal = 1;
place = (-17, 144);
place = (-17, 144);
type = Stem;
},
{
horizontal = 1;
place = (302, 137);
place = (302, 137);
type = Stem;
},
{
horizontal = 1;
place = (568, 147);
place = (568, 147);
type = Stem;
},
{
place = (20, 180);
place = (20, 180);
type = Stem;
},
{
place = (518, 177);
place = (518, 177);
type = Stem;
},
{
horizontal = 1;
place = (0, 155);
place = (0, 155);
type = Stem;
},
{
horizontal = 1;
place = (586, 143);
place = (586, 143);
type = Stem;
}
);
layerId = m01;
shapes = (
{
closed = 1;
nodes = (
(431,-17,o),
(486,11,o),
(529,50,c),
(529,0,l),
(1046,0,l),
(1046,155,l),
(695,155,l),
(695,302,l),
(983,302,l),
(983,439,l),
(695,439,l),
(695,568,l),
(1036,568,l),
(1036,715,l),
(529,715,l),
(529,665,l),
(487,703,o),
(432,729,o),
(349,729,cs),
(158,729,o),
(20,570,o),
(20,356,cs),
(20,142,o),
(158,-17,o),
(357,-17,cs)
);
},
{
closed = 1;
nodes = (
(258,127,o),
(200,226,o),
(200,356,cs),
(200,486,o),
(258,586,o),
(368,586,cs),
(451,586,o),
(494,541,o),
(518,495,c),
(518,215,l),
(499,175,o),
(451,127,o),
(368,127,cs)
);
}
);
width = 1077;
}
);
note = OE;
unicode = 338;
},
{
glyphname = oe;
kernLeft = c;
kernRight = e;
layers = (
{
hints = (
{
horizontal = 1;
place = (-16, 116);
place = (-16, 116);
type = Stem;
},
{
horizontal = 1;
place = (214, 97);
place = (214, 97);
type = Stem;
},
{
horizontal = 1;
place = (411, 115);
place = (411, 115);
type = Stem;
},
{
place = (16, 165);
place = (16, 165);
type = Stem;
},
{
horizontal = 1;
place = (-15, 117);
place = (-15, 117);
type = Stem;
},
{
horizontal = 1;
place = (411, 116);
place = (411, 116);
type = Stem;
}
);
layerId = m01;
shapes = (
{
closed = 1;
nodes = (
(371,-16,o),
(434,13,o),
(477,59,c),
(521,13,o),
(584,-15,o),
(666,-15,cs),
(732,-15,o),
(784,2,o),
(827,32,cs),
(871,63,o),
(902,107,o),
(912,153,c),
(754,153,l),
(739,121,o),
(712,102,o),
(669,102,cs),
(602,102,o),
(564,145,o),
(553,214,c),
(921,214,l),
(922,318,o),
(892,408,o),
(832,463,cs),
(788,503,o),
(730,527,o),
(656,527,cs),
(580,527,o),
(519,498,o),
(476,452,c),
(433,498,o),
(370,526,o),
(290,526,cs),
(126,526,o),
(16,409,o),
(16,255,cs),
(16,101,o),
(126,-16,o),
(290,-16,cs)
);
},
{
closed = 1;
nodes = (
(218,100,o),
(181,162,o),
(181,255,cs),
(181,348,o),
(218,411,o),
(289,411,cs),
(360,411,o),
(398,348,o),
(398,255,cs),
(398,162,o),
(360,100,o),
(289,100,cs)
);
},
{
closed = 1;
nodes = (
(554,311,l),
(565,372,o),
(597,411,o),
(659,411,cs),
(713,411,o),
(750,372,o),
(756,311,c)
);
}
);
width = 938;
}
);
note = oe;
unicode = 339;
},
{
glyphname = endash;
kernLeft = hyphen;
kernRight = hyphen;
layers = (
{
hints = (
{
horizontal = 1;
place = (185, 140);
place = (185, 140);
type = Stem;
},
{
place = (43, 484);
place = (43, 484);
type = Stem;
}
);
layerId = m01;
shapes = (
{
closed = 1;
nodes = (
(43,185,l),
(527,185,l),
(527,325,l),
(43,325,l)
);
}
);
width = 570;
}
);
note = endash;
unicode = 8211;
},
{
glyphname = emdash;
kernLeft = hyphen;
kernRight = hyphen;
layers = (
{
hints = (
{
horizontal = 1;
place = (185, 140);
place = (185, 140);
type = Stem;
},
{
place = (43, 847);
place = (43, 847);
type = Stem;
}
);
layerId = m01;
shapes = (
{
closed = 1;
nodes = (
(43,185,l),
(890,185,l),
(890,325,l),
(43,325,l)
);
}
);
width = 933;
}
);
note = emdash;
unicode = 8212;
},
{
glyphname = quotedblleft;
kernLeft = quotedblleft;
kernRight = quotedblleft;
layers = (
{
hints = (
{
horizontal = 1;
place = (421, 149);
place = (421, 149);
type = Stem;
},
{
horizontal = 1;
place = (718, -20);
target = down;
type = TopGhost;
},
{
place = (34, 149);
place = (34, 149);
type = Stem;
},
{
place = (244, 149);
place = (244, 149);
type = Stem;
}
);
layerId = m01;
shapes = (
{
closed = 1;
nodes = (
(34,421,l),
(183,421,l),
(183,570,l),
(115,570,l),
(115,614,o),
(147,648,o),
(186,660,c),
(186,718,l),
(146,714,o),
(104,696,o),
(77,668,cs),
(50,641,o),
(34,604,o),
(34,552,cs)
);
},
{
closed = 1;
nodes = (
(244,421,l),
(393,421,l),
(393,570,l),
(325,570,l),
(325,614,o),
(357,648,o),
(396,660,c),
(396,718,l),
(356,714,o),
(314,696,o),
(287,668,cs),
(260,641,o),
(244,604,o),
(244,552,cs)
);
}
);
width = 428;
}
);
note = quotedblleft;
unicode = 8220;
},
{
glyphname = quotedblright;
kernLeft = quotedblright;
kernRight = quotedblright;
layers = (
{
hints = (
{
horizontal = 1;
place = (566, 149);
place = (566, 149);
type = Stem;
},
{
place = (35, 149);
place = (35, 149);
type = Stem;
},
{
place = (245, 149);
place = (245, 149);
type = Stem;
}
);
layerId = m01;
shapes = (
{
closed = 1;
nodes = (
(32,418,l),
(72,422,o),
(113,439,o),
(141,468,cs),
(167,495,o),
(184,532,o),
(184,584,cs),
(184,715,l),
(35,715,l),
(35,566,l),
(103,566,l),
(103,522,o),
(71,488,o),
(32,476,c)
);
},
{
closed = 1;
nodes = (
(242,418,l),
(282,422,o),
(323,439,o),
(351,468,cs),
(377,495,o),
(394,532,o),
(394,584,cs),
(394,715,l),
(245,715,l),
(245,566,l),
(313,566,l),
(313,522,o),
(281,488,o),
(242,476,c)
);
}
);
width = 428;
}
);
note = quotedblright;
unicode = 8221;
},
{
glyphname = quoteleft;
kernLeft = quotedblleft;
kernRight = quotedblleft;
layers = (
{
hints = (
{
horizontal = 1;
place = (421, 149);
place = (421, 149);
type = Stem;
},
{
horizontal = 1;
place = (718, -20);
target = down;
type = TopGhost;
},
{
place = (34, 149);
place = (34, 149);
type = Stem;
}
);
layerId = m01;
shapes = (
{
closed = 1;
nodes = (
(34,421,l),
(183,421,l),
(183,570,l),
(115,570,l),
(115,614,o),
(147,648,o),
(186,660,c),
(186,718,l),
(146,714,o),
(104,696,o),
(77,668,cs),
(50,641,o),
(34,604,o),
(34,552,cs)
);
}
);
width = 218;
}
);
note = quoteleft;
unicode = 8216;
},
{
glyphname = quoteright;
kernLeft = quotedblright;
kernRight = quotedblright;
layers = (
{
hints = (
{
horizontal = 1;
place = (566, 149);
place = (566, 149);
type = Stem;
},
{
place = (35, 149);
place = (35, 149);
type = Stem;
}
);
layerId = m01;
shapes = (
{
closed = 1;
nodes = (
(32,418,l),
(72,422,o),
(113,439,o),
(141,468,cs),
(167,495,o),
(184,532,o),
(184,584,cs),
(184,715,l),
(35,715,l),
(35,566,l),
(103,566,l),
(103,522,o),
(71,488,o),
(32,476,c)
);
}
);
width = 218;
}
);
note = quoteright;
unicode = 8217;
},
{
glyphname = divide;
kernLeft = minus;
kernRight = minus;
layers = (
{
hints = (
{
place = (59, 149);
place = (59, 149);
type = Stem;
},
{
place = (264, 131);
place = (264, 131);
type = Stem;
},
{
place = (451, 149);
place = (451, 149);
type = Stem;
},
{
place = (197, 171);
place = (197, 171);
type = Stem;
}
);
layerId = m01;
shapes = (
{
closed = 1;
nodes = (
(197,59,l),
(368,59,l),
(368,208,l),
(197,208,l)
);
},
{
closed = 1;
nodes = (
(197,451,l),
(368,451,l),
(368,600,l),
(197,600,l)
);
},
{
closed = 1;
nodes = (
(526,264,l),
(526,395,l),
(40,395,l),
(40,264,l)
);
}
);
width = 566;
}
);
note = divide;
unicode = 247;
},
{
glyphname = lozenge;
layers = (
{
hints = (
{
horizontal = 1;
place = (0, 139);
place = (0, 139);
type = Stem;
},
{
horizontal = 1;
place = (577, 138);
place = (577, 138);
type = Stem;
},
{
place = (16, 564);
place = (16, 564);
type = Stem;
}
);
layerId = m01;
shapes = (
{
closed = 1;
nodes = (
(298,139,l),
(183,360,l),
(296,577,l),
(298,577,l),
(413,354,l),
(300,139,l)
);
},
{
closed = 1;
nodes = (
(218,0,l),
(379,0,l),
(580,357,l),
(378,715,l),
(217,715,l),
(16,358,l)
);
}
);
width = 596;
}
);
note = lozenge;
unicode = 9674;
},
{
glyphname = ydieresis;
kernLeft = yacute;
kernRight = yacute;
layers = (
{
hints = (
{
horizontal = 1;
place = (-169, 127);
place = (-169, 127);
type = Stem;
},
{
horizontal = 1;
place = (512, -20);
target = down;
type = TopGhost;
},
{
horizontal = 1;
place = (577, 128);
place = (577, 128);
type = Stem;
},
{
place = (78, 153);
place = (78, 153);
type = Stem;
},
{
place = (303, 153);
place = (303, 153);
type = Stem;
}
);
layerId = m01;
shapes = (
{
closed = 1;
nodes = (
(56,-169,l),
(162,-169,ls),
(265,-169,o),
(314,-127,o),
(355,-7,cs),
(532,512,l),
(369,512,l),
(302,294,ls),
(286,244,o),
(272,176,o),
(272,176,c),
(270,176,l),
(270,176,o),
(254,244,o),
(238,294,cs),
(169,512,l),
(-3,512,l),
(148,118,ls),
(169,64,o),
(179,34,o),
(179,12,cs),
(179,-23,o),
(160,-42,o),
(112,-42,cs),
(56,-42,l)
);
},
{
closed = 1;
nodes = (
(78,577,l),
(231,577,l),
(231,705,l),
(78,705,l)
);
},
{
closed = 1;
nodes = (
(303,577,l),
(456,577,l),
(456,705,l),
(303,705,l)
);
}
);
width = 529;
}
);
note = ydieresis;
unicode = 255;
},
{
glyphname = Ydieresis;
kernLeft = Yacute;
kernRight = Yacute;
layers = (
{
hints = (
{
horizontal = 1;
place = (0, 21);
target = up;
type = BottomGhost;
},
{
horizontal = 1;
place = (715, -20);
target = down;
type = TopGhost;
},
{
horizontal = 1;
place = (753, 128);
place = (753, 128);
type = Stem;
},
{
place = (243, 177);
place = (243, 177);
type = Stem;
},
{
place = (149, 153);
place = (149, 153);
type = Stem;
},
{
place = (364, 153);
place = (364, 153);
type = Stem;
}
);
layerId = m01;
shapes = (
{
closed = 1;
nodes = (
(243,0,l),
(420,0,l),
(420,264,l),
(662,715,l),
(475,715,l),
(384,530,ls),
(360,481,o),
(335,421,o),
(335,421,c),
(333,421,l),
(333,421,o),
(310,481,o),
(286,530,cs),
(194,715,l),
(1,715,l),
(243,264,l)
);
},
{
closed = 1;
nodes = (
(149,753,l),
(302,753,l),
(302,881,l),
(149,881,l)
);
},
{
closed = 1;
nodes = (
(364,753,l),
(517,753,l),
(517,881,l),
(364,881,l)
);
}
);
width = 663;
}
);
note = Ydieresis;
unicode = 376;
},
{
glyphname = fraction;
layers = (
{
hints = (
{
horizontal = 1;
place = (0, 21);
target = up;
type = BottomGhost;
},
{
horizontal = 1;
place = (715, -20);
target = down;
type = TopGhost;
},
{
place = (-181, 646);
place = (-181, 646);
type = Stem;
}
);
layerId = m01;
shapes = (
{
closed = 1;
nodes = (
(-181,0,l),
(-80,0,l),
(465,715,l),
(363,715,l)
);
}
);
width = 284;
}
);
note = fraction;
unicode = 8260;
},
{
glyphname = Euro;
layers = (
{
hints = (
{
horizontal = 1;
place = (-16, 135);
place = (-16, 135);
type = Stem;
},
{
horizontal = 1;
place = (245, 64);
place = (245, 64);
type = Stem;
},
{
horizontal = 1;
place = (366, 65);
place = (366, 65);
type = Stem;
},
{
horizontal = 1;
place = (566, 134);
place = (566, 134);
type = Stem;
},
{
place = (61, 174);
place = (61, 174);
type = Stem;
},
{
place = (479, 162);
place = (479, 162);
type = Stem;
},
{
place = (470, 166);
place = (470, 166);
type = Stem;
}
);
layerId = m01;
shapes = (
{
closed = 1;
nodes = (
(538,-16,o),
(632,91,o),
(641,243,c),
(479,243,l),
(471,174,o),
(439,119,o),
(368,119,cs),
(301,119,o),
(259,163,o),
(242,245,c),
(395,245,l),
(395,309,l),
(235,309,l),
(234,319,o),
(233,356,o),
(235,366,c),
(395,366,l),
(395,431,l),
(241,431,l),
(256,514,o),
(296,566,o),
(364,566,cs),
(427,566,o),
(461,522,o),
(470,454,c),
(636,454,l),
(624,596,o),
(533,700,o),
(366,700,cs),
(209,700,o),
(98,591,o),
(69,431,c),
(15,431,l),
(15,366,l),
(61,366,l),
(61,341,ls),
(61,330,o),
(61,319,o),
(62,309,c),
(15,309,l),
(15,245,l),
(70,245,l),
(102,87,o),
(212,-16,o),
(368,-16,cs)
);
}
);
width = 651;
}
);
note = Euro;
unicode = 8364;
},
{
glyphname = guilsinglleft;
kernLeft = guillemotleft;
kernRight = guillemotleft;
layers = (
{
hints = (
{
horizontal = 1;
place = (34, 435);
place = (34, 435);
type = Stem;
},
{
place = (44, 170);
place = (44, 170);
type = Stem;
}
);
layerId = m01;
shapes = (
{
closed = 1;
nodes = (
(214,34,l),
(214,182,l),
(129,250,l),
(129,252,l),
(214,320,l),
(214,469,l),
(44,329,l),
(44,175,l)
);
}
);
width = 265;
}
);
note = guilsinglleft;
unicode = 8249;
},
{
glyphname = guilsinglright;
kernLeft = guillemotright;
kernRight = guillemotright;
layers = (
{
hints = (
{
horizontal = 1;
place = (34, 435);
place = (34, 435);
type = Stem;
},
{
place = (51, 170);
place = (51, 170);
type = Stem;
}
);
layerId = m01;
shapes = (
{
closed = 1;
nodes = (
(51,34,l),
(221,174,l),
(221,328,l),
(51,469,l),
(51,321,l),
(136,253,l),
(136,251,l),
(51,183,l)
);
}
);
width = 265;
}
);
note = guilsinglright;
unicode = 8250;
},
{
glyphname = fi;
kernLeft = f;
kernRight = d;
layers = (
{
hints = (
{
horizontal = 1;
place = (0, 21);
target = up;
type = BottomGhost;
},
{
horizontal = 1;
place = (408, 104);
place = (408, 104);
type = Stem;
},
{
horizontal = 1;
place = (583, 132);
place = (583, 132);
type = Stem;
},
{
place = (78, 162);
place = (78, 162);
type = Stem;
},
{
place = (388, 163);
place = (388, 163);
type = Stem;
},
{
horizontal = 1;
place = (597, 118);
place = (597, 118);
type = Stem;
}
);
layerId = m01;
shapes = (
{
closed = 1;
nodes = (
(78,0,l),
(240,0,l),
(240,408,l),
(336,408,l),
(336,512,l),
(240,512,l),
(240,537,ls),
(240,594,o),
(275,599,o),
(336,597,c),
(336,712,l),
(239,722,o),
(148,708,o),
(108,651,c),
(88,627,o),
(78,593,o),
(78,549,cs),
(78,512,l),
(11,512,l),
(11,408,l),
(78,408,l)
);
},
{
closed = 1;
nodes = (
(388,0,l),
(551,0,l),
(551,512,l),
(388,512,l)
);
},
{
closed = 1;
nodes = (
(388,583,l),
(551,583,l),
(551,715,l),
(388,715,l)
);
}
);
width = 590;
}
);
note = fi;
unicode = 64257;
},
{
glyphname = fl;
kernLeft = f;
kernRight = d;
layers = (
{
hints = (
{
horizontal = 1;
place = (0, 21);
target = up;
type = BottomGhost;
},
{
horizontal = 1;
place = (408, 104);
place = (408, 104);
type = Stem;
},
{
horizontal = 1;
place = (597, 118);
place = (597, 118);
type = Stem;
},
{
place = (77, 163);
place = (77, 163);
type = Stem;
},
{
place = (388, 165);
place = (388, 165);
type = Stem;
}
);
layerId = m01;
shapes = (
{
closed = 1;
nodes = (
(77,0,l),
(240,0,l),
(240,408,l),
(336,408,l),
(336,512,l),
(240,512,l),
(240,537,ls),
(240,594,o),
(274,599,o),
(336,597,c),
(336,712,l),
(238,722,o),
(147,707,o),
(107,651,cs),
(87,626,o),
(77,593,o),
(77,549,cs),
(77,512,l),
(11,512,l),
(11,408,l),
(77,408,l)
);
},
{
closed = 1;
nodes = (
(388,0,l),
(553,0,l),
(553,715,l),
(388,715,l)
);
}
);
width = 593;
}
);
note = fl;
unicode = 64258;
},
{
glyphname = daggerdbl;
layers = (
{
hints = (
{
horizontal = 1;
place = (58, 134);
place = (58, 134);
type = Stem;
},
{
horizontal = 1;
place = (381, 134);
place = (381, 134);
type = Stem;
},
{
horizontal = 1;
place = (715, -20);
target = down;
type = TopGhost;
},
{
place = (210, 170);
place = (210, 170);
type = Stem;
}
);
layerId = m01;
shapes = (
{
closed = 1;
nodes = (
(210,-143,l),
(380,-143,l),
(380,58,l),
(555,58,l),
(555,192,l),
(380,192,l),
(380,381,l),
(555,381,l),
(555,515,l),
(380,515,l),
(380,715,l),
(210,715,l),
(210,515,l),
(34,515,l),
(34,381,l),
(210,381,l),
(210,192,l),
(34,192,l),
(34,58,l),
(210,58,l)
);
}
);
width = 590;
}
);
note = daggerdbl;
unicode = 8225;
},
{
glyphname = periodcentered;
kernLeft = periodcentered;
kernRight = periodcentered;
layers = (
{
hints = (
{
horizontal = 1;
place = (234, 168);
place = (234, 168);
type = Stem;
},
{
place = (32, 171);
place = (32, 171);
type = Stem;
}
);
layerId = m01;
shapes = (
{
closed = 1;
nodes = (
(32,234,l),
(203,234,l),
(203,402,l),
(32,402,l)
);
}
);
width = 235;
}
);
note = periodcentered;
unicode = 183;
},
{
glyphname = quotesinglbase;
kernLeft = quotesinglbase;
kernRight = quotesinglbase;
layers = (
{
hints = (
{
horizontal = 1;
place = (0, 149);
place = (0, 149);
type = Stem;
},
{
place = (35, 149);
place = (35, 149);
type = Stem;
}
);
layerId = m01;
shapes = (
{
closed = 1;
nodes = (
(32,-149,l),
(72,-144,o),
(113,-127,o),
(141,-99,cs),
(167,-71,o),
(184,-34,o),
(184,18,cs),
(184,149,l),
(35,149,l),
(35,0,l),
(103,0,l),
(103,-45,o),
(71,-79,o),
(32,-90,c)
);
}
);
width = 218;
}
);
note = quotesinglbase;
unicode = 8218;
},
{
glyphname = quotedblbase;
kernLeft = quotesinglbase;
kernRight = quotesinglbase;
layers = (
{
hints = (
{
horizontal = 1;
place = (0, 149);
place = (0, 149);
type = Stem;
},
{
place = (35, 149);
place = (35, 149);
type = Stem;
},
{
place = (245, 149);
place = (245, 149);
type = Stem;
}
);
layerId = m01;
shapes = (
{
closed = 1;
nodes = (
(32,-149,l),
(72,-144,o),
(113,-127,o),
(141,-99,cs),
(167,-71,o),
(184,-34,o),
(184,18,cs),
(184,149,l),
(35,149,l),
(35,0,l),
(103,0,l),
(103,-45,o),
(71,-79,o),
(32,-90,c)
);
},
{
closed = 1;
nodes = (
(242,-149,l),
(282,-144,o),
(323,-127,o),
(351,-99,cs),
(377,-71,o),
(394,-34,o),
(394,18,cs),
(394,149,l),
(245,149,l),
(245,0,l),
(313,0,l),
(313,-45,o),
(281,-79,o),
(242,-90,c)
);
}
);
width = 428;
}
);
note = quotedblbase;
unicode = 8222;
},
{
glyphname = perthousand;
kernLeft = percent;
layers = (
{
hints = (
{
horizontal = 1;
place = (-17, 87);
place = (-17, 87);
type = Stem;
},
{
horizontal = 1;
place = (299, 85);
place = (299, 85);
type = Stem;
},
{
horizontal = 1;
place = (615, 85);
place = (615, 85);
type = Stem;
},
{
place = (20, 123);
place = (20, 123);
type = Stem;
},
{
place = (263, 123);
place = (263, 123);
type = Stem;
},
{
place = (478, 123);
place = (478, 123);
type = Stem;
},
{
place = (721, 123);
place = (721, 123);
type = Stem;
},
{
place = (881, 124);
place = (881, 124);
type = Stem;
},
{
place = (1125, 123);
place = (1125, 123);
type = Stem;
},
{
horizontal = 1;
place = (0, 21);
target = up;
type = BottomGhost;
},
{
horizontal = 1;
place = (686, -20);
target = down;
type = TopGhost;
}
);
layerId = m01;
shapes = (
{
closed = 1;
nodes = (
(161,386,o),
(143,433,o),
(143,499,cs),
(143,566,o),
(161,615,o),
(203,615,cs),
(245,615,o),
(263,566,o),
(263,499,cs),
(263,432,o),
(245,386,o),
(203,386,cs)
);
},
{
closed = 1;
nodes = (
(309,299,o),
(386,378,o),
(386,499,cs),
(386,621,o),
(311,700,o),
(203,700,cs),
(97,700,o),
(20,621,o),
(20,499,cs),
(20,378,o),
(98,299,o),
(203,299,cs)
);
},
{
closed = 1;
nodes = (
(200,0,l),
(294,0,l),
(663,686,l),
(570,686,l)
);
},
{
closed = 1;
nodes = (
(619,70,o),
(601,117,o),
(601,184,cs),
(601,251,o),
(619,299,o),
(661,299,cs),
(703,299,o),
(721,250,o),
(721,184,cs),
(721,117,o),
(703,70,o),
(661,70,cs)
);
},
{
closed = 1;
nodes = (
(767,-17,o),
(844,62,o),
(844,184,cs),
(844,306,o),
(769,384,o),
(661,384,cs),
(555,384,o),
(478,305,o),
(478,184,cs),
(478,62,o),
(556,-17,o),
(661,-17,cs)
);
},
{
closed = 1;
nodes = (
(1022,70,o),
(1005,117,o),
(1005,184,cs),
(1005,251,o),
(1022,299,o),
(1065,299,cs),
(1106,299,o),
(1125,250,o),
(1125,184,cs),
(1125,117,o),
(1107,70,o),
(1065,70,cs)
);
},
{
closed = 1;
nodes = (
(1171,-17,o),
(1248,62,o),
(1248,184,cs),
(1248,306,o),
(1173,384,o),
(1064,384,cs),
(959,384,o),
(881,305,o),
(881,184,cs),
(881,62,o),
(959,-17,o),
(1064,-17,cs)
);
}
);
width = 1267;
}
);
note = perthousand;
unicode = 8240;
},
{
glyphname = Acircumflex;
kernLeft = A;
kernRight = A;
layers = (
{
hints = (
{
horizontal = 1;
place = (0, 21);
target = up;
type = BottomGhost;
},
{
horizontal = 1;
place = (129, 127);
place = (129, 127);
type = Stem;
},
{
horizontal = 1;
place = (715, -20);
target = down;
type = TopGhost;
},
{
horizontal = 1;
place = (750, 125);
place = (750, 125);
type = Stem;
},
{
place = (-1, 697);
place = (-1, 697);
type = Stem;
}
);
layerId = m01;
shapes = (
{
closed = 1;
nodes = (
(-1,0,l),
(177,0,l),
(218,129,l),
(468,129,l),
(510,0,l),
(696,0,l),
(438,715,l),
(256,715,l)
);
},
{
closed = 1;
nodes = (
(259,256,l),
(314,429,ls),
(326,466,o),
(343,530,o),
(343,530,c),
(345,530,l),
(345,530,o),
(361,466,o),
(373,429,cs),
(427,256,l)
);
},
{
closed = 1;
nodes = (
(162,750,l),
(302,750,l),
(348,804,l),
(350,804,l),
(395,750,l),
(532,750,l),
(425,875,l),
(269,875,l)
);
}
);
width = 697;
}
);
note = Acircumflex;
unicode = 194;
},
{
glyphname = Ecircumflex;
kernRight = E;
layers = (
{
hints = (
{
horizontal = 1;
place = (0, 150);
place = (0, 150);
type = Stem;
},
{
horizontal = 1;
place = (303, 138);
place = (303, 138);
type = Stem;
},
{
horizontal = 1;
place = (569, 146);
place = (569, 146);
type = Stem;
},
{
horizontal = 1;
place = (750, 125);
place = (750, 125);
type = Stem;
},
{
place = (49, 177);
place = (49, 177);
type = Stem;
}
);
layerId = m01;
shapes = (
{
closed = 1;
nodes = (
(49,0,l),
(597,0,l),
(597,150,l),
(226,150,l),
(226,303,l),
(539,303,l),
(539,441,l),
(226,441,l),
(226,569,l),
(591,569,l),
(591,715,l),
(49,715,l)
);
},
{
closed = 1;
nodes = (
(144,750,l),
(284,750,l),
(330,804,l),
(332,804,l),
(377,750,l),
(514,750,l),
(407,875,l),
(251,875,l)
);
}
);
width = 628;
}
);
note = Ecircumflex;
unicode = 202;
},
{
glyphname = Aacute;
kernLeft = A;
kernRight = A;
layers = (
{
hints = (
{
horizontal = 1;
place = (0, 21);
target = up;
type = BottomGhost;
},
{
horizontal = 1;
place = (129, 127);
place = (129, 127);
type = Stem;
},
{
horizontal = 1;
place = (715, -20);
target = down;
type = TopGhost;
},
{
horizontal = 1;
place = (750, 130);
place = (750, 130);
type = Stem;
},
{
place = (-1, 697);
place = (-1, 697);
type = Stem;
}
);
layerId = m01;
shapes = (
{
closed = 1;
nodes = (
(-1,0,l),
(177,0,l),
(218,129,l),
(468,129,l),
(510,0,l),
(696,0,l),
(438,715,l),
(256,715,l)
);
},
{
closed = 1;
nodes = (
(259,256,l),
(314,429,ls),
(326,466,o),
(343,530,o),
(343,530,c),
(345,530,l),
(345,530,o),
(361,466,o),
(373,429,cs),
(427,256,l)
);
},
{
closed = 1;
nodes = (
(281,750,l),
(405,750,l),
(511,880,l),
(324,880,l)
);
}
);
width = 697;
}
);
note = Aacute;
unicode = 193;
},
{
glyphname = Edieresis;
kernRight = E;
layers = (
{
hints = (
{
horizontal = 1;
place = (0, 150);
place = (0, 150);
type = Stem;
},
{
horizontal = 1;
place = (303, 138);
place = (303, 138);
type = Stem;
},
{
horizontal = 1;
place = (569, 146);
place = (569, 146);
type = Stem;
},
{
horizontal = 1;
place = (753, 128);
place = (753, 128);
type = Stem;
},
{
place = (145, 153);
place = (145, 153);
type = Stem;
},
{
place = (360, 153);
place = (360, 153);
type = Stem;
},
{
place = (49, 177);
place = (49, 177);
type = Stem;
}
);
layerId = m01;
shapes = (
{
closed = 1;
nodes = (
(145,753,l),
(298,753,l),
(298,881,l),
(145,881,l)
);
},
{
closed = 1;
nodes = (
(360,753,l),
(513,753,l),
(513,881,l),
(360,881,l)
);
},
{
closed = 1;
nodes = (
(49,0,l),
(597,0,l),
(597,150,l),
(226,150,l),
(226,303,l),
(539,303,l),
(539,441,l),
(226,441,l),
(226,569,l),
(591,569,l),
(591,715,l),
(49,715,l)
);
}
);
width = 628;
}
);
note = Edieresis;
unicode = 203;
},
{
glyphname = Egrave;
kernRight = E;
layers = (
{
hints = (
{
horizontal = 1;
place = (0, 150);
place = (0, 150);
type = Stem;
},
{
horizontal = 1;
place = (303, 138);
place = (303, 138);
type = Stem;
},
{
horizontal = 1;
place = (569, 146);
place = (569, 146);
type = Stem;
},
{
horizontal = 1;
place = (750, 130);
place = (750, 130);
type = Stem;
},
{
place = (49, 177);
place = (49, 177);
type = Stem;
}
);
layerId = m01;
shapes = (
{
closed = 1;
nodes = (
(277,750,l),
(401,750,l),
(358,880,l),
(171,880,l)
);
},
{
closed = 1;
nodes = (
(49,0,l),
(597,0,l),
(597,150,l),
(226,150,l),
(226,303,l),
(539,303,l),
(539,441,l),
(226,441,l),
(226,569,l),
(591,569,l),
(591,715,l),
(49,715,l)
);
}
);
width = 628;
}
);
note = Egrave;
unicode = 200;
},
{
glyphname = Iacute;
kernRight = H;
layers = (
{
hints = (
{
horizontal = 1;
place = (0, 21);
target = up;
type = BottomGhost;
},
{
horizontal = 1;
place = (715, -20);
target = down;
type = TopGhost;
},
{
horizontal = 1;
place = (750, 130);
place = (750, 130);
type = Stem;
},
{
place = (50, 177);
place = (50, 177);
type = Stem;
}
);
layerId = m01;
shapes = (
{
closed = 1;
nodes = (
(50,0,l),
(227,0,l),
(227,715,l),
(50,715,l)
);
},
{
closed = 1;
nodes = (
(72,750,l),
(196,750,l),
(302,880,l),
(115,880,l)
);
}
);
width = 276;
}
);
note = Iacute;
unicode = 205;
},
{
glyphname = Icircumflex;
kernRight = H;
layers = (
{
hints = (
{
horizontal = 1;
place = (0, 21);
target = up;
type = BottomGhost;
},
{
horizontal = 1;
place = (715, -20);
target = down;
type = TopGhost;
},
{
horizontal = 1;
place = (750, 125);
place = (750, 125);
type = Stem;
},
{
place = (50, 177);
place = (50, 177);
type = Stem;
}
);
layerId = m01;
shapes = (
{
closed = 1;
nodes = (
(50,0,l),
(227,0,l),
(227,715,l),
(50,715,l)
);
},
{
closed = 1;
nodes = (
(-47,750,l),
(93,750,l),
(139,804,l),
(141,804,l),
(186,750,l),
(323,750,l),
(216,875,l),
(60,875,l)
);
}
);
width = 276;
}
);
note = Icircumflex;
unicode = 206;
},
{
glyphname = Idieresis;
kernRight = H;
layers = (
{
hints = (
{
horizontal = 1;
place = (0, 21);
target = up;
type = BottomGhost;
},
{
horizontal = 1;
place = (715, -20);
target = down;
type = TopGhost;
},
{
horizontal = 1;
place = (753, 128);
place = (753, 128);
type = Stem;
},
{
place = (50, 177);
place = (50, 177);
type = Stem;
},
{
place = (-46, 153);
place = (-46, 153);
type = Stem;
},
{
place = (169, 153);
place = (169, 153);
type = Stem;
}
);
layerId = m01;
shapes = (
{
closed = 1;
nodes = (
(50,0,l),
(227,0,l),
(227,715,l),
(50,715,l)
);
},
{
closed = 1;
nodes = (
(-46,753,l),
(107,753,l),
(107,881,l),
(-46,881,l)
);
},
{
closed = 1;
nodes = (
(169,753,l),
(322,753,l),
(322,881,l),
(169,881,l)
);
}
);
width = 276;
}
);
note = Idieresis;
unicode = 207;
},
{
glyphname = Igrave;
kernRight = H;
layers = (
{
hints = (
{
horizontal = 1;
place = (0, 21);
target = up;
type = BottomGhost;
},
{
horizontal = 1;
place = (715, -20);
target = down;
type = TopGhost;
},
{
horizontal = 1;
place = (750, 130);
place = (750, 130);
type = Stem;
},
{
place = (50, 177);
place = (50, 177);
type = Stem;
}
);
layerId = m01;
shapes = (
{
closed = 1;
nodes = (
(50,0,l),
(227,0,l),
(227,715,l),
(50,715,l)
);
},
{
closed = 1;
nodes = (
(86,750,l),
(210,750,l),
(167,880,l),
(-20,880,l)
);
}
);
width = 276;
}
);
note = Igrave;
unicode = 204;
},
{
glyphname = Oacute;
kernLeft = C;
kernRight = O;
layers = (
{
hints = (
{
horizontal = 1;
place = (-17, 144);
place = (-17, 144);
type = Stem;
},
{
horizontal = 1;
place = (586, 143);
place = (586, 143);
type = Stem;
},
{
place = (20, 180);
place = (20, 180);
type = Stem;
},
{
place = (547, 180);
place = (547, 180);
type = Stem;
},
{
horizontal = 1;
place = (750, 130);
place = (750, 130);
type = Stem;
}
);
layerId = m01;
shapes = (
{
closed = 1;
nodes = (
(307,750,l),
(431,750,l),
(537,880,l),
(350,880,l)
);
},
{
closed = 1;
nodes = (
(259,127,o),
(200,226,o),
(200,356,cs),
(200,486,o),
(259,586,o),
(374,586,cs),
(490,586,o),
(547,486,o),
(547,356,cs),
(547,226,o),
(490,127,o),
(374,127,cs)
);
},
{
closed = 1;
nodes = (
(590,-17,o),
(727,142,o),
(727,356,cs),
(727,570,o),
(590,729,o),
(373,729,cs),
(157,729,o),
(20,570,o),
(20,356,cs),
(20,142,o),
(157,-17,o),
(373,-17,cs)
);
}
);
width = 747;
}
);
note = Oacute;
unicode = 211;
},
{
glyphname = Ocircumflex;
kernLeft = C;
kernRight = O;
layers = (
{
hints = (
{
horizontal = 1;
place = (-17, 144);
place = (-17, 144);
type = Stem;
},
{
horizontal = 1;
place = (586, 143);
place = (586, 143);
type = Stem;
},
{
place = (20, 180);
place = (20, 180);
type = Stem;
},
{
place = (547, 180);
place = (547, 180);
type = Stem;
},
{
horizontal = 1;
place = (750, 125);
place = (750, 125);
type = Stem;
}
);
layerId = m01;
shapes = (
{
closed = 1;
nodes = (
(259,127,o),
(200,226,o),
(200,356,cs),
(200,486,o),
(259,586,o),
(374,586,cs),
(490,586,o),
(547,486,o),
(547,356,cs),
(547,226,o),
(490,127,o),
(374,127,cs)
);
},
{
closed = 1;
nodes = (
(590,-17,o),
(727,142,o),
(727,356,cs),
(727,570,o),
(590,729,o),
(373,729,cs),
(157,729,o),
(20,570,o),
(20,356,cs),
(20,142,o),
(157,-17,o),
(373,-17,cs)
);
},
{
closed = 1;
nodes = (
(188,750,l),
(328,750,l),
(374,804,l),
(376,804,l),
(421,750,l),
(558,750,l),
(451,875,l),
(295,875,l)
);
}
);
width = 747;
}
);
note = Ocircumflex;
unicode = 212;
},
{
glyphname = Ograve;
kernLeft = C;
kernRight = O;
layers = (
{
hints = (
{
horizontal = 1;
place = (-17, 144);
place = (-17, 144);
type = Stem;
},
{
horizontal = 1;
place = (586, 143);
place = (586, 143);
type = Stem;
},
{
place = (20, 180);
place = (20, 180);
type = Stem;
},
{
place = (547, 180);
place = (547, 180);
type = Stem;
},
{
horizontal = 1;
place = (750, 130);
place = (750, 130);
type = Stem;
}
);
layerId = m01;
shapes = (
{
closed = 1;
nodes = (
(321,750,l),
(445,750,l),
(402,880,l),
(215,880,l)
);
},
{
closed = 1;
nodes = (
(259,127,o),
(200,226,o),
(200,356,cs),
(200,486,o),
(259,586,o),
(374,586,cs),
(490,586,o),
(547,486,o),
(547,356,cs),
(547,226,o),
(490,127,o),
(374,127,cs)
);
},
{
closed = 1;
nodes = (
(590,-17,o),
(727,142,o),
(727,356,cs),
(727,570,o),
(590,729,o),
(373,729,cs),
(157,729,o),
(20,570,o),
(20,356,cs),
(20,142,o),
(157,-17,o),
(373,-17,cs)
);
}
);
width = 747;
}
);
note = Ograve;
unicode = 210;
},
{
glyphname = Uacute;
kernLeft = U;
kernRight = U;
layers = (
{
hints = (
{
horizontal = 1;
place = (-13, 142);
place = (-13, 142);
type = Stem;
},
{
horizontal = 1;
place = (715, -20);
target = down;
type = TopGhost;
},
{
horizontal = 1;
place = (750, 130);
place = (750, 130);
type = Stem;
},
{
place = (44, 177);
place = (44, 177);
type = Stem;
},
{
place = (465, 177);
place = (465, 177);
type = Stem;
}
);
layerId = m01;
shapes = (
{
closed = 1;
nodes = (
(276,750,l),
(400,750,l),
(506,880,l),
(319,880,l)
);
},
{
closed = 1;
nodes = (
(543,-13,o),
(642,87,o),
(642,252,cs),
(642,715,l),
(465,715,l),
(465,249,ls),
(465,179,o),
(426,129,o),
(344,129,cs),
(257,129,o),
(221,176,o),
(221,246,cs),
(221,715,l),
(44,715,l),
(44,252,ls),
(44,85,o),
(144,-13,o),
(344,-13,cs)
);
}
);
width = 686;
}
);
note = Uacute;
unicode = 218;
},
{
glyphname = Ucircumflex;
kernLeft = U;
kernRight = U;
layers = (
{
hints = (
{
horizontal = 1;
place = (-13, 142);
place = (-13, 142);
type = Stem;
},
{
horizontal = 1;
place = (715, -20);
target = down;
type = TopGhost;
},
{
horizontal = 1;
place = (750, 125);
place = (750, 125);
type = Stem;
},
{
place = (44, 177);
place = (44, 177);
type = Stem;
},
{
place = (465, 177);
place = (465, 177);
type = Stem;
}
);
layerId = m01;
shapes = (
{
closed = 1;
nodes = (
(543,-13,o),
(642,87,o),
(642,252,cs),
(642,715,l),
(465,715,l),
(465,249,ls),
(465,179,o),
(426,129,o),
(344,129,cs),
(257,129,o),
(221,176,o),
(221,246,cs),
(221,715,l),
(44,715,l),
(44,252,ls),
(44,85,o),
(144,-13,o),
(344,-13,cs)
);
},
{
closed = 1;
nodes = (
(157,750,l),
(297,750,l),
(343,804,l),
(345,804,l),
(390,750,l),
(527,750,l),
(420,875,l),
(264,875,l)
);
}
);
width = 686;
}
);
note = Ucircumflex;
unicode = 219;
},
{
glyphname = Ugrave;
kernLeft = U;
kernRight = U;
layers = (
{
hints = (
{
horizontal = 1;
place = (-13, 142);
place = (-13, 142);
type = Stem;
},
{
horizontal = 1;
place = (715, -20);
target = down;
type = TopGhost;
},
{
horizontal = 1;
place = (750, 130);
place = (750, 130);
type = Stem;
},
{
place = (44, 177);
place = (44, 177);
type = Stem;
},
{
place = (465, 177);
place = (465, 177);
type = Stem;
}
);
layerId = m01;
shapes = (
{
closed = 1;
nodes = (
(290,750,l),
(414,750,l),
(371,880,l),
(184,880,l)
);
},
{
closed = 1;
nodes = (
(543,-13,o),
(642,87,o),
(642,252,cs),
(642,715,l),
(465,715,l),
(465,249,ls),
(465,179,o),
(426,129,o),
(344,129,cs),
(257,129,o),
(221,176,o),
(221,246,cs),
(221,715,l),
(44,715,l),
(44,252,ls),
(44,85,o),
(144,-13,o),
(344,-13,cs)
);
}
);
width = 686;
}
);
note = Ugrave;
unicode = 217;
},
{
glyphname = dotlessi;
kernLeft = m;
kernRight = u;
layers = (
{
hints = (
{
horizontal = 1;
place = (0, 21);
target = up;
type = BottomGhost;
},
{
horizontal = 1;
place = (512, -20);
target = down;
type = TopGhost;
},
{
place = (39, 163);
place = (39, 163);
type = Stem;
}
);
layerId = m01;
shapes = (
{
closed = 1;
nodes = (
(39,0,l),
(202,0,l),
(202,512,l),
(39,512,l)
);
}
);
width = 241;
}
);
note = dotlessi;
unicode = 305;
},
{
glyphname = circumflex;
layers = (
{
hints = (
{
horizontal = 1;
place = (574, 137);
place = (574, 137);
type = Stem;
},
{
place = (65, 370);
place = (65, 370);
type = Stem;
}
);
layerId = m01;
shapes = (
{
closed = 1;
nodes = (
(65,574,l),
(205,574,l),
(251,640,l),
(253,640,l),
(298,574,l),
(435,574,l),
(328,711,l),
(172,711,l)
);
}
);
width = 500;
}
);
note = circumflex;
unicode = 710;
},
